mononoki-Bold.ufo
<glyph name="exclam" format="2">
	<advance width="575"/>
	<unicode hex="0021"/>
	<outline>
		<contour>
			<point x="315" y="720" type="curve"/>
			<point x="260" y="720" type="line"/>
			<point x="240" y="720"/>
			<point x="225" y="705"/>
			<point x="225" y="685" type="curve"/>
			<point x="236" y="240" type="line"/>
			<point x="236" y="220"/>
			<point x="251" y="205"/>
			<point x="271" y="205" type="curve"/>
			<point x="304" y="205" type="line"/>
			<point x="324" y="205"/>
			<point x="340" y="220"/>
			<point x="340" y="240" type="curve"/>
			<point x="350" y="685" type="line"/>
			<point x="350" y="705"/>
			<point x="336" y="720"/>
		</contour>
		<contour>
			<point x="340" y="25" type="curve"/>
			<point x="340" y="72" type="line"/>
			<point x="340" y="92"/>
			<point x="326" y="107"/>
			<point x="305" y="107" type="curve"/>
			<point x="270" y="107" type="line"/>
			<point x="250" y="107"/>
			<point x="235" y="92"/>
			<point x="235" y="72" type="curve"/>
			<point x="235" y="25" type="line"/>
			<point x="235" y="4"/>
			<point x="250" y="-10"/>
			<point x="270" y="-10" type="curve"/>
			<point x="305" y="-10" type="line"/>
			<point x="326" y="-10"/>
			<point x="340" y="4"/>
		</contour>
	</outline>
</glyph>
<glyph name="quotedbl" format="1">
  <advance width="575"/>
  <unicode hex="0022"/>
  <outline>
    <contour>
      <point x="146" y="770" type="line"/>
      <point x="125" y="770"/>
      <point x="111" y="755"/>
      <point x="111" y="735" type="curve"/>
      <point x="124" y="447" type="line"/>
      <point x="125" y="426"/>
      <point x="140" y="413"/>
      <point x="160" y="413" type="curve"/>
      <point x="187" y="413" type="line"/>
      <point x="207" y="413"/>
      <point x="222" y="426"/>
      <point x="223" y="446" type="curve"/>
      <point x="235" y="735" type="line"/>
      <point x="236" y="755"/>
      <point x="221" y="770"/>
      <point x="201" y="770" type="curve"/>
    </contour>
    <contour>
      <point x="375" y="770" type="line"/>
      <point x="354" y="770"/>
      <point x="339" y="755"/>
      <point x="340" y="734" type="curve"/>
      <point x="353" y="447" type="line"/>
      <point x="354" y="427"/>
      <point x="368" y="413"/>
      <point x="388" y="413" type="curve"/>
      <point x="416" y="413" type="line"/>
      <point x="436" y="413"/>
      <point x="451" y="427"/>
      <point x="451" y="447" type="curve"/>
      <point x="464" y="735" type="line"/>
      <point x="465" y="755"/>
      <point x="450" y="770"/>
      <point x="430" y="770" type="curve"/>
    </contour>
  </outline>
</glyph>
<glyph name="numbersign" format="1">
  <advance width="575"/>
  <unicode hex="0023"/>
  <outline>
    <contour>
      <point x="443" y="290" type="line"/>
      <point x="443" y="424" type="line"/>
      <point x="499" y="424" type="line"/>
      <point x="519" y="424"/>
      <point x="534" y="439"/>
      <point x="534" y="459" type="curve"/>
      <point x="534" y="486" type="line"/>
      <point x="534" y="506"/>
      <point x="519" y="521"/>
      <point x="499" y="521" type="curve"/>
      <point x="443" y="521" type="line"/>
      <point x="443" y="685" type="line"/>
      <point x="443" y="706"/>
      <point x="428" y="720"/>
      <point x="408" y="720" type="curve"/>
      <point x="373" y="720" type="line"/>
      <point x="352" y="720"/>
      <point x="338" y="705"/>
      <point x="338" y="685" type="curve"/>
      <point x="338" y="521" type="line"/>
      <point x="238" y="521" type="line"/>
      <point x="238" y="685" type="line"/>
      <point x="238" y="706"/>
      <point x="223" y="720"/>
      <point x="203" y="720" type="curve"/>
      <point x="168" y="720" type="line"/>
      <point x="148" y="720"/>
      <point x="133" y="705"/>
      <point x="133" y="685" type="curve"/>
      <point x="133" y="521" type="line"/>
      <point x="76" y="521" type="line"/>
      <point x="56" y="521"/>
      <point x="41" y="506"/>
      <point x="41" y="485" type="curve"/>
      <point x="41" y="459" type="line"/>
      <point x="41" y="439"/>
      <point x="56" y="424"/>
      <point x="76" y="424" type="curve"/>
      <point x="133" y="424" type="line"/>
      <point x="133" y="290" type="line"/>
      <point x="76" y="290" type="line"/>
      <point x="56" y="290"/>
      <point x="41" y="275"/>
      <point x="41" y="254" type="curve"/>
      <point x="41" y="228" type="line"/>
      <point x="41" y="208"/>
      <point x="56" y="193"/>
      <point x="76" y="193" type="curve"/>
      <point x="133" y="193" type="line"/>
      <point x="133" y="35" type="line"/>
      <point x="133" y="15"/>
      <point x="148" y="0"/>
      <point x="168" y="0" type="curve"/>
      <point x="203" y="0" type="line"/>
      <point x="223" y="0"/>
      <point x="238" y="15"/>
      <point x="238" y="35" type="curve"/>
      <point x="238" y="193" type="line"/>
      <point x="338" y="193" type="line"/>
      <point x="338" y="35" type="line"/>
      <point x="338" y="15"/>
      <point x="352" y="0"/>
      <point x="373" y="0" type="curve"/>
      <point x="408" y="0" type="line"/>
      <point x="428" y="0"/>
      <point x="443" y="15"/>
      <point x="443" y="35" type="curve"/>
      <point x="443" y="193" type="line"/>
      <point x="499" y="193" type="line"/>
      <point x="519" y="193"/>
      <point x="534" y="208"/>
      <point x="534" y="228" type="curve"/>
      <point x="534" y="255" type="line"/>
      <point x="534" y="275"/>
      <point x="519" y="290"/>
      <point x="499" y="290" type="curve"/>
    </contour>
    <contour>
      <point x="238" y="424" type="line"/>
      <point x="338" y="424" type="line"/>
      <point x="338" y="290" type="line"/>
      <point x="238" y="290" type="line"/>
    </contour>
  </outline>
</glyph>
<glyph name="dollar" format="2">
	<advance width="575"/>
	<unicode hex="0024"/>
	<outline>
		<contour>
			<point x="528" y="176" type="curve" smooth="yes"/>
			<point x="528" y="285"/>
			<point x="441" y="346"/>
			<point x="289" y="363" type="curve" smooth="yes"/>
			<point x="203" y="373"/>
			<point x="155" y="393"/>
			<point x="155" y="449" type="curve" smooth="yes"/>
			<point x="155" y="504"/>
			<point x="203" y="534"/>
			<point x="297" y="534" type="curve" smooth="yes"/>
			<point x="321" y="534"/>
			<point x="384" y="532"/>
			<point x="434" y="523" type="curve" smooth="yes"/>
			<point x="454" y="519"/>
			<point x="471" y="530"/>
			<point x="476" y="548" type="curve" smooth="yes"/>
			<point x="483" y="574" type="line" smooth="yes"/>
			<point x="488" y="595"/>
			<point x="476" y="613"/>
			<point x="456" y="618" type="curve"/>
			<point x="417" y="625"/>
			<point x="374" y="628"/>
			<point x="340" y="629" type="curve"/>
			<point x="340" y="785" type="line" smooth="yes"/>
			<point x="340" y="806"/>
			<point x="325" y="820"/>
			<point x="305" y="820" type="curve" smooth="yes"/>
			<point x="270" y="820" type="line" smooth="yes"/>
			<point x="250" y="820"/>
			<point x="235" y="806"/>
			<point x="235" y="785" type="curve" smooth="yes"/>
			<point x="235" y="626" type="line"/>
			<point x="117" y="611"/>
			<point x="50" y="549"/>
			<point x="50" y="448" type="curve" smooth="yes"/>
			<point x="50" y="327"/>
			<point x="138" y="282"/>
			<point x="287" y="266" type="curve" smooth="yes"/>
			<point x="376" y="257"/>
			<point x="422" y="226"/>
			<point x="422" y="182" type="curve" smooth="yes"/>
			<point x="422" y="122"/>
			<point x="366" y="87"/>
			<point x="259" y="87" type="curve" smooth="yes"/>
			<point x="230" y="87"/>
			<point x="160" y="88"/>
			<point x="100" y="99" type="curve"/>
			<point x="99" y="99" type="line"/>
			<point x="80" y="101"/>
			<point x="63" y="91"/>
			<point x="58" y="71" type="curve" smooth="yes"/>
			<point x="52" y="45" type="line" smooth="yes"/>
			<point x="48" y="25"/>
			<point x="60" y="7"/>
			<point x="80" y="3" type="curve"/>
			<point x="135" y="-6"/>
			<point x="195" y="-9"/>
			<point x="235" y="-10" type="curve"/>
			<point x="235" y="-165" type="line" smooth="yes"/>
			<point x="235" y="-186"/>
			<point x="250" y="-200"/>
			<point x="270" y="-200" type="curve" smooth="yes"/>
			<point x="305" y="-200" type="line" smooth="yes"/>
			<point x="326" y="-200"/>
			<point x="340" y="-185"/>
			<point x="340" y="-165" type="curve" smooth="yes"/>
			<point x="340" y="-4" type="line"/>
			<point x="461" y="14"/>
			<point x="528" y="77"/>
		</contour>
	</outline>
</glyph>
<glyph name="percent" format="1">
  <advance width="575"/>
  <unicode hex="0025"/>
  <outline>
    <contour>
      <point x="88" y="620" type="line"/>
      <point x="67" y="620"/>
      <point x="53" y="606"/>
      <point x="53" y="585" type="curve"/>
      <point x="53" y="495" type="line"/>
      <point x="53" y="475"/>
      <point x="68" y="460"/>
      <point x="88" y="460" type="curve"/>
      <point x="188" y="460" type="line"/>
      <point x="208" y="460"/>
      <point x="223" y="475"/>
      <point x="223" y="495" type="curve"/>
      <point x="223" y="585" type="line"/>
      <point x="223" y="606"/>
      <point x="208" y="620"/>
      <point x="188" y="620" type="curve"/>
    </contour>
    <contour>
      <point x="69" y="69" type="line"/>
      <point x="84" y="55"/>
      <point x="104" y="55"/>
      <point x="118" y="69" type="curve"/>
      <point x="531" y="482" type="line"/>
      <point x="545" y="496"/>
      <point x="545" y="517"/>
      <point x="530" y="531" type="curve"/>
      <point x="506" y="553" type="line"/>
      <point x="491" y="566"/>
      <point x="471" y="565"/>
      <point x="457" y="551" type="curve"/>
      <point x="45" y="139" type="line"/>
      <point x="30" y="124"/>
      <point x="31" y="103"/>
      <point x="46" y="90" type="curve"/>
    </contour>
    <contour>
      <point x="388" y="160" type="line"/>
      <point x="367" y="160"/>
      <point x="353" y="146"/>
      <point x="353" y="125" type="curve"/>
      <point x="353" y="35" type="line"/>
      <point x="353" y="15"/>
      <point x="368" y="0"/>
      <point x="388" y="0" type="curve"/>
      <point x="488" y="0" type="line"/>
      <point x="508" y="0"/>
      <point x="523" y="15"/>
      <point x="523" y="35" type="curve"/>
      <point x="523" y="125" type="line"/>
      <point x="523" y="146"/>
      <point x="508" y="160"/>
      <point x="488" y="160" type="curve"/>
    </contour>
  </outline>
</glyph>
<glyph name="ampersand" format="1">
  <advance width="575"/>
  <unicode hex="0026"/>
  <outline>
    <contour>
      <point x="503" y="0" type="line" smooth="yes"/>
      <point x="527" y="0"/>
      <point x="540" y="16"/>
      <point x="535" y="39" type="curve"/>
      <point x="523" y="80"/>
      <point x="503" y="122"/>
      <point x="473" y="170" type="curve"/>
      <point x="488" y="201"/>
      <point x="500" y="236"/>
      <point x="510" y="275" type="curve" smooth="yes"/>
      <point x="515" y="296"/>
      <point x="504" y="313"/>
      <point x="483" y="317" type="curve" smooth="yes"/>
      <point x="450" y="323" type="line" smooth="yes"/>
      <point x="429" y="327"/>
      <point x="414" y="317"/>
      <point x="408" y="297" type="curve" smooth="yes"/>
      <point x="406" y="286"/>
      <point x="404" y="277"/>
      <point x="401" y="268" type="curve"/>
      <point x="355" y="325"/>
      <point x="297" y="386"/>
      <point x="238" y="445" type="curve" smooth="yes"/>
      <point x="198" y="485"/>
      <point x="178" y="521"/>
      <point x="178" y="552" type="curve" smooth="yes"/>
      <point x="178" y="590"/>
      <point x="208" y="618"/>
      <point x="247" y="618" type="curve" smooth="yes"/>
      <point x="292" y="618"/>
      <point x="325" y="585"/>
      <point x="325" y="542" type="curve" smooth="yes"/>
      <point x="325" y="522"/>
      <point x="317" y="503"/>
      <point x="302" y="488" type="curve" smooth="yes"/>
      <point x="288" y="474"/>
      <point x="288" y="455"/>
      <point x="304" y="440" type="curve" smooth="yes"/>
      <point x="324" y="420" type="line" smooth="yes"/>
      <point x="339" y="404"/>
      <point x="358" y="404"/>
      <point x="372" y="418" type="curve" smooth="yes"/>
      <point x="407" y="453"/>
      <point x="426" y="498"/>
      <point x="426" y="544" type="curve" smooth="yes"/>
      <point x="426" y="643"/>
      <point x="349" y="717"/>
      <point x="248" y="717" type="curve" smooth="yes"/>
      <point x="148" y="717"/>
      <point x="73" y="645"/>
      <point x="73" y="551" type="curve" smooth="yes"/>
      <point x="73" y="500"/>
      <point x="99" y="445"/>
      <point x="150" y="391" type="curve"/>
      <point x="81" y="338"/>
      <point x="42" y="267"/>
      <point x="42" y="190" type="curve" smooth="yes"/>
      <point x="42" y="71"/>
      <point x="117" y="-7"/>
      <point x="233" y="-7" type="curve" smooth="yes"/>
      <point x="300" y="-7"/>
      <point x="363" y="23"/>
      <point x="413" y="78" type="curve"/>
      <point x="422" y="61"/>
      <point x="429" y="44"/>
      <point x="433" y="28" type="curve" smooth="yes"/>
      <point x="434" y="28" type="line" smooth="yes"/>
      <point x="440" y="9"/>
      <point x="452" y="0"/>
      <point x="471" y="0" type="curve" smooth="yes"/>
    </contour>
    <contour>
      <point x="177" y="89"/>
      <point x="146" y="124"/>
      <point x="146" y="190" type="curve" smooth="yes"/>
      <point x="146" y="239"/>
      <point x="173" y="286"/>
      <point x="219" y="321" type="curve"/>
      <point x="274" y="264"/>
      <point x="319" y="213"/>
      <point x="355" y="167" type="curve"/>
      <point x="320" y="117"/>
      <point x="277" y="89"/>
      <point x="233" y="89" type="curve" smooth="yes"/>
    </contour>
  </outline>
</glyph>
<glyph name="quotesingle" format="1">
  <advance width="575"/>
  <unicode hex="0027"/>
  <outline>
    <contour>
      <point x="260" y="770" type="line" smooth="yes"/>
      <point x="238" y="770"/>
      <point x="225" y="756"/>
      <point x="226" y="734" type="curve" smooth="yes"/>
      <point x="238" y="447" type="line" smooth="yes"/>
      <point x="239" y="425"/>
      <point x="253" y="413"/>
      <point x="274" y="413" type="curve" smooth="yes"/>
      <point x="302" y="413" type="line" smooth="yes"/>
      <point x="323" y="413"/>
      <point x="336" y="425"/>
      <point x="337" y="446" type="curve" smooth="yes"/>
      <point x="350" y="735" type="line"/>
      <point x="350" y="757"/>
      <point x="337" y="770"/>
      <point x="315" y="770" type="curve" smooth="yes"/>
    </contour>
  </outline>
</glyph>
<glyph name="parenleft" format="1">
  <advance width="575"/>
  <unicode hex="0028"/>
  <outline>
    <contour>
      <point x="296" y="-56"/>
      <point x="181" y="89"/>
      <point x="181" y="285" type="curve"/>
      <point x="181" y="481"/>
      <point x="296" y="626"/>
      <point x="454" y="658" type="curve"/>
      <point x="474" y="662"/>
      <point x="486" y="680"/>
      <point x="481" y="700" type="curve"/>
      <point x="475" y="728" type="line"/>
      <point x="471" y="749"/>
      <point x="453" y="758"/>
      <point x="433" y="755" type="curve"/>
      <point x="223" y="712"/>
      <point x="75" y="527"/>
      <point x="75" y="285" type="curve"/>
      <point x="75" y="43"/>
      <point x="223" y="-142"/>
      <point x="433" y="-185" type="curve"/>
      <point x="453" y="-188"/>
      <point x="471" y="-179"/>
      <point x="475" y="-158" type="curve"/>
      <point x="481" y="-130" type="line"/>
      <point x="486" y="-110"/>
      <point x="474" y="-92"/>
      <point x="454" y="-88" type="curve"/>
    </contour>
  </outline>
</glyph>
<glyph name="parenright" format="1">
  <advance width="575"/>
  <unicode hex="0029"/>
  <outline>
    <contour>
      <point x="96" y="-92"/>
      <point x="84" y="-110"/>
      <point x="89" y="-130" type="curve"/>
      <point x="95" y="-158" type="line"/>
      <point x="99" y="-179"/>
      <point x="117" y="-188"/>
      <point x="137" y="-185" type="curve"/>
      <point x="347" y="-142"/>
      <point x="495" y="43"/>
      <point x="495" y="285" type="curve"/>
      <point x="495" y="527"/>
      <point x="347" y="712"/>
      <point x="137" y="755" type="curve"/>
      <point x="117" y="758"/>
      <point x="99" y="749"/>
      <point x="95" y="728" type="curve"/>
      <point x="89" y="700" type="line"/>
      <point x="84" y="680"/>
      <point x="96" y="662"/>
      <point x="116" y="658" type="curve"/>
      <point x="274" y="626"/>
      <point x="389" y="481"/>
      <point x="389" y="285" type="curve"/>
      <point x="389" y="89"/>
      <point x="274" y="-56"/>
      <point x="116" y="-88" type="curve"/>
    </contour>
  </outline>
</glyph>
<glyph name="asterisk" format="1">
  <advance width="575"/>
  <unicode hex="002A"/>
  <outline>
    <contour>
      <point x="529" y="358" type="line"/>
      <point x="522" y="377"/>
      <point x="504" y="387"/>
      <point x="484" y="381" type="curve" smooth="yes"/>
      <point x="340" y="333" type="line"/>
      <point x="340" y="485" type="line" smooth="yes"/>
      <point x="340" y="506"/>
      <point x="325" y="520"/>
      <point x="305" y="520" type="curve" smooth="yes"/>
      <point x="270" y="520" type="line" smooth="yes"/>
      <point x="250" y="520"/>
      <point x="235" y="506"/>
      <point x="235" y="485" type="curve" smooth="yes"/>
      <point x="235" y="333" type="line"/>
      <point x="91" y="380" type="line" smooth="yes"/>
      <point x="71" y="387"/>
      <point x="53" y="377"/>
      <point x="47" y="358" type="curve" smooth="yes"/>
      <point x="35" y="324" type="line" smooth="yes"/>
      <point x="29" y="305"/>
      <point x="39" y="287"/>
      <point x="58" y="281" type="curve" smooth="yes"/>
      <point x="187" y="239" type="line"/>
      <point x="93" y="110" type="line" smooth="yes"/>
      <point x="82" y="94"/>
      <point x="83" y="72"/>
      <point x="100" y="61" type="curve"/>
      <point x="129" y="40" type="line" smooth="yes"/>
      <point x="146" y="28"/>
      <point x="165" y="32"/>
      <point x="179" y="48" type="curve"/>
      <point x="287" y="199" type="line"/>
      <point x="396" y="48" type="line" smooth="yes"/>
      <point x="408" y="32"/>
      <point x="429" y="28"/>
      <point x="445" y="41" type="curve"/>
      <point x="474" y="61" type="line" smooth="yes"/>
      <point x="489" y="72"/>
      <point x="492" y="93"/>
      <point x="481" y="110" type="curve"/>
      <point x="389" y="239" type="line"/>
      <point x="517" y="280" type="line"/>
      <point x="536" y="287"/>
      <point x="546" y="305"/>
      <point x="539" y="324" type="curve"/>
    </contour>
  </outline>
</glyph>
<glyph name="plus" format="1">
  <advance width="575"/>
  <unicode hex="002B"/>
  <outline>
    <contour>
      <point x="340" y="309" type="line"/>
      <point x="340" y="485" type="line" smooth="yes"/>
      <point x="340" y="507"/>
      <point x="327" y="520"/>
      <point x="305" y="520" type="curve" smooth="yes"/>
      <point x="270" y="520" type="line" smooth="yes"/>
      <point x="249" y="520"/>
      <point x="235" y="506"/>
      <point x="235" y="485" type="curve" smooth="yes"/>
      <point x="235" y="309" type="line"/>
      <point x="76" y="309" type="line" smooth="yes"/>
      <point x="54" y="309"/>
      <point x="41" y="295"/>
      <point x="41" y="273" type="curve" smooth="yes"/>
      <point x="41" y="247" type="line" smooth="yes"/>
      <point x="41" y="226"/>
      <point x="55" y="212"/>
      <point x="76" y="212" type="curve" smooth="yes"/>
      <point x="235" y="212" type="line"/>
      <point x="235" y="35" type="line" smooth="yes"/>
      <point x="235" y="14"/>
      <point x="249" y="0"/>
      <point x="270" y="0" type="curve" smooth="yes"/>
      <point x="305" y="0" type="line" smooth="yes"/>
      <point x="327" y="0"/>
      <point x="340" y="13"/>
      <point x="340" y="35" type="curve" smooth="yes"/>
      <point x="340" y="212" type="line"/>
      <point x="499" y="212" type="line" smooth="yes"/>
      <point x="521" y="212"/>
      <point x="534" y="225"/>
      <point x="534" y="247" type="curve" smooth="yes"/>
      <point x="534" y="274" type="line" smooth="yes"/>
      <point x="534" y="296"/>
      <point x="521" y="309"/>
      <point x="499" y="309" type="curve" smooth="yes"/>
    </contour>
  </outline>
</glyph>
<glyph name="comma" format="1">
  <advance width="575"/>
  <unicode hex="002C"/>
  <outline>
    <contour>
      <point x="238" y="160" type="line" smooth="yes"/>
      <point x="216" y="160"/>
      <point x="203" y="147"/>
      <point x="203" y="125" type="curve" smooth="yes"/>
      <point x="203" y="35" type="line" smooth="yes"/>
      <point x="203" y="14"/>
      <point x="217" y="0"/>
      <point x="238" y="0" type="curve" smooth="yes"/>
      <point x="268" y="0" type="line"/>
      <point x="267" y="-112"/>
      <point x="227" y="-151"/>
      <point x="117" y="-151" type="curve" smooth="yes"/>
      <point x="96" y="-151"/>
      <point x="83" y="-164"/>
      <point x="83" y="-186" type="curve" smooth="yes"/>
      <point x="83" y="-213" type="line" smooth="yes"/>
      <point x="83" y="-234"/>
      <point x="96" y="-247"/>
      <point x="118" y="-247" type="curve" smooth="yes"/>
      <point x="302" y="-247"/>
      <point x="373" y="-176"/>
      <point x="373" y="8" type="curve" smooth="yes"/>
      <point x="373" y="125" type="line" smooth="yes"/>
      <point x="373" y="147"/>
      <point x="360" y="160"/>
      <point x="338" y="160" type="curve" smooth="yes"/>
    </contour>
  </outline>
</glyph>
<glyph name="hyphen" format="1">
  <advance width="575"/>
  <unicode hex="002D"/>
  <outline>
    <contour>
      <point x="42" y="237" type="line"/>
      <point x="42" y="217"/>
      <point x="57" y="202"/>
      <point x="77" y="202" type="curve"/>
      <point x="500" y="202" type="line"/>
      <point x="520" y="202"/>
      <point x="535" y="217"/>
      <point x="535" y="237" type="curve"/>
      <point x="535" y="264" type="line"/>
      <point x="535" y="284"/>
      <point x="520" y="299"/>
      <point x="500" y="299" type="curve"/>
      <point x="77" y="299" type="line"/>
      <point x="57" y="299"/>
      <point x="42" y="284"/>
      <point x="42" y="263" type="curve"/>
    </contour>
  </outline>
</glyph>
<glyph name="period" format="1">
  <advance width="575"/>
  <unicode hex="002E"/>
  <outline>
    <contour>
      <point x="237" y="160" type="line"/>
      <point x="217" y="160"/>
      <point x="202" y="146"/>
      <point x="202" y="125" type="curve"/>
      <point x="202" y="35" type="line"/>
      <point x="202" y="15"/>
      <point x="217" y="0"/>
      <point x="237" y="0" type="curve"/>
      <point x="337" y="0" type="line"/>
      <point x="358" y="0"/>
      <point x="372" y="15"/>
      <point x="372" y="35" type="curve"/>
      <point x="372" y="125" type="line"/>
      <point x="372" y="146"/>
      <point x="357" y="160"/>
      <point x="337" y="160" type="curve"/>
    </contour>
  </outline>
</glyph>
<glyph name="slash" format="2">
	<advance width="575"/>
	<unicode hex="002F"/>
	<outline>
		<contour>
			<point x="446" y="686" type="curve"/>
			<point x="33" y="-140" type="line"/>
			<point x="24" y="-157"/>
			<point x="31" y="-177"/>
			<point x="49" y="-186" type="curve"/>
			<point x="81" y="-202" type="line"/>
			<point x="98" y="-211"/>
			<point x="118" y="-204"/>
			<point x="127" y="-186" type="curve"/>
			<point x="540" y="640" type="line"/>
			<point x="549" y="657"/>
			<point x="542" y="677"/>
			<point x="524" y="686" type="curve"/>
			<point x="492" y="702" type="line"/>
			<point x="475" y="711"/>
			<point x="455" y="704"/>
		</contour>
	</outline>
</glyph>
<glyph name="zero" format="1">
  <advance width="575"/>
  <unicode hex="0030"/>
  <outline>
    <contour>
      <point x="138" y="730"/>
      <point x="45" y="588"/>
      <point x="45" y="360" type="curve" smooth="yes"/>
      <point x="45" y="132"/>
      <point x="138" y="-10"/>
      <point x="288" y="-10" type="curve" smooth="yes"/>
      <point x="437" y="-10"/>
      <point x="530" y="133"/>
      <point x="530" y="360" type="curve" smooth="yes"/>
      <point x="530" y="587"/>
      <point x="437" y="730"/>
      <point x="288" y="730" type="curve" smooth="yes"/>
    </contour>
    <contour>
      <point x="338" y="634"/>
      <point x="378" y="597"/>
      <point x="401" y="530" type="curve"/>
      <point x="154" y="283" type="line"/>
      <point x="151" y="307"/>
      <point x="150" y="333"/>
      <point x="150" y="360" type="curve" smooth="yes"/>
      <point x="150" y="529"/>
      <point x="204" y="634"/>
      <point x="288" y="634" type="curve" smooth="yes"/>
    </contour>
    <contour>
      <point x="238" y="87"/>
      <point x="198" y="125"/>
      <point x="174" y="191" type="curve"/>
      <point x="421" y="438" type="line"/>
      <point x="424" y="414"/>
      <point x="425" y="388"/>
      <point x="425" y="360" type="curve" smooth="yes"/>
      <point x="425" y="191"/>
      <point x="372" y="87"/>
      <point x="288" y="87" type="curve" smooth="yes"/>
    </contour>
  </outline>
</glyph>
<glyph name="one" format="1">
  <advance width="575"/>
  <unicode hex="0031"/>
  <outline>
    <contour>
      <point x="372" y="97" type="line"/>
      <point x="372" y="685" type="line"/>
      <point x="372" y="705"/>
      <point x="357" y="720"/>
      <point x="337" y="720" type="curve"/>
      <point x="318" y="720" type="line"/>
      <point x="301" y="720"/>
      <point x="287" y="711"/>
      <point x="280" y="694" type="curve"/>
      <point x="254" y="636"/>
      <point x="206" y="617"/>
      <point x="110" y="617" type="curve"/>
      <point x="90" y="617"/>
      <point x="75" y="602"/>
      <point x="75" y="582" type="curve"/>
      <point x="75" y="555" type="line"/>
      <point x="75" y="535"/>
      <point x="90" y="520"/>
      <point x="110" y="520" type="curve"/>
      <point x="267" y="520" type="line"/>
      <point x="267" y="97" type="line"/>
      <point x="110" y="97" type="line"/>
      <point x="90" y="97"/>
      <point x="75" y="82"/>
      <point x="75" y="62" type="curve"/>
      <point x="75" y="35" type="line"/>
      <point x="75" y="15"/>
      <point x="90" y="0"/>
      <point x="110" y="0" type="curve"/>
      <point x="465" y="0" type="line"/>
      <point x="486" y="0"/>
      <point x="500" y="15"/>
      <point x="500" y="35" type="curve"/>
      <point x="500" y="62" type="line"/>
      <point x="500" y="82"/>
      <point x="486" y="97"/>
      <point x="465" y="97" type="curve"/>
    </contour>
  </outline>
</glyph>
<glyph name="two" format="1">
  <advance width="575"/>
  <unicode hex="0032"/>
  <outline>
    <contour>
      <point x="182" y="97" type="line"/>
      <point x="194" y="154"/>
      <point x="252" y="199"/>
      <point x="318" y="250" type="curve"/>
      <point x="406" y="319"/>
      <point x="506" y="396"/>
      <point x="506" y="524" type="curve"/>
      <point x="506" y="669"/>
      <point x="389" y="730"/>
      <point x="265" y="730" type="curve"/>
      <point x="213" y="730"/>
      <point x="157" y="719"/>
      <point x="108" y="700" type="curve"/>
      <point x="90" y="693"/>
      <point x="81" y="674"/>
      <point x="89" y="655" type="curve"/>
      <point x="98" y="630" type="line"/>
      <point x="105" y="611"/>
      <point x="123" y="602"/>
      <point x="143" y="608" type="curve"/>
      <point x="188" y="624"/>
      <point x="225" y="632"/>
      <point x="265" y="632" type="curve"/>
      <point x="349" y="632"/>
      <point x="400" y="600"/>
      <point x="400" y="524" type="curve"/>
      <point x="400" y="444"/>
      <point x="337" y="393"/>
      <point x="253" y="327" type="curve"/>
      <point x="183" y="274"/>
      <point x="74" y="198"/>
      <point x="74" y="58" type="curve"/>
      <point x="74" y="34" type="line"/>
      <point x="74" y="14"/>
      <point x="89" y="-1"/>
      <point x="109" y="-1" type="curve"/>
      <point x="489" y="-1" type="line"/>
      <point x="509" y="-1"/>
      <point x="524" y="14"/>
      <point x="524" y="34" type="curve"/>
      <point x="524" y="62" type="line"/>
      <point x="524" y="82"/>
      <point x="509" y="97"/>
      <point x="489" y="97" type="curve"/>
    </contour>
  </outline>
</glyph>
<glyph name="three" format="2">
	<advance width="575"/>
	<unicode hex="0033"/>
	<outline>
		<contour>
			<point x="105" y="672" type="curve" smooth="yes"/>
			<point x="113" y="644" type="line" smooth="yes"/>
			<point x="119" y="624"/>
			<point x="135" y="616"/>
			<point x="156" y="621" type="curve" smooth="yes"/>
			<point x="187" y="628"/>
			<point x="217" y="632"/>
			<point x="248" y="632" type="curve" smooth="yes"/>
			<point x="343" y="632"/>
			<point x="384" y="603"/>
			<point x="384" y="536" type="curve" smooth="yes"/>
			<point x="384" y="462"/>
			<point x="336" y="421"/>
			<point x="250" y="421" type="curve" smooth="yes"/>
			<point x="199" y="421" type="line" smooth="yes"/>
			<point x="178" y="421"/>
			<point x="164" y="407"/>
			<point x="164" y="386" type="curve" smooth="yes"/>
			<point x="164" y="359" type="line" smooth="yes"/>
			<point x="164" y="338"/>
			<point x="178" y="324"/>
			<point x="199" y="324" type="curve" smooth="yes"/>
			<point x="250" y="324" type="line" smooth="yes"/>
			<point x="335" y="324"/>
			<point x="394" y="273"/>
			<point x="394" y="199" type="curve" smooth="yes"/>
			<point x="394" y="125"/>
			<point x="345" y="88"/>
			<point x="243" y="88" type="curve" smooth="yes"/>
			<point x="210" y="88"/>
			<point x="177" y="92"/>
			<point x="146" y="99" type="curve" smooth="yes"/>
			<point x="125" y="104"/>
			<point x="109" y="96"/>
			<point x="103" y="76" type="curve" smooth="yes"/>
			<point x="95" y="48" type="line" smooth="yes"/>
			<point x="90" y="26"/>
			<point x="99" y="9"/>
			<point x="120" y="4" type="curve" smooth="yes"/>
			<point x="158" y="-5"/>
			<point x="200" y="-10"/>
			<point x="243" y="-10" type="curve" smooth="yes"/>
			<point x="399" y="-10"/>
			<point x="500" y="66"/>
			<point x="500" y="187" type="curve" smooth="yes"/>
			<point x="500" y="266"/>
			<point x="458" y="335"/>
			<point x="387" y="375" type="curve"/>
			<point x="457" y="417"/>
			<point x="490" y="470"/>
			<point x="490" y="541" type="curve" smooth="yes"/>
			<point x="490" y="659"/>
			<point x="399" y="730"/>
			<point x="248" y="730" type="curve" smooth="yes"/>
			<point x="207" y="730"/>
			<point x="167" y="725"/>
			<point x="130" y="716" type="curve" smooth="yes"/>
			<point x="109" y="711"/>
			<point x="100" y="694"/>
		</contour>
	</outline>
</glyph>
<glyph name="four" format="1">
  <advance width="575"/>
  <unicode hex="0034"/>
  <outline>
    <contour>
      <point x="441" y="241" type="line"/>
      <point x="441" y="402" type="line"/>
      <point x="441" y="422"/>
      <point x="426" y="437"/>
      <point x="406" y="437" type="curve"/>
      <point x="371" y="437" type="line"/>
      <point x="351" y="437"/>
      <point x="336" y="422"/>
      <point x="336" y="402" type="curve"/>
      <point x="336" y="241" type="line"/>
      <point x="181" y="241" type="line"/>
      <point x="399" y="676" type="line"/>
      <point x="411" y="699"/>
      <point x="396" y="720"/>
      <point x="371" y="720" type="curve"/>
      <point x="335" y="720" type="line"/>
      <point x="312" y="720"/>
      <point x="298" y="711"/>
      <point x="289" y="691" type="curve"/>
      <point x="71" y="254" type="line"/>
      <point x="66" y="243"/>
      <point x="63" y="232"/>
      <point x="63" y="219" type="curve"/>
      <point x="63" y="179" type="line"/>
      <point x="63" y="159"/>
      <point x="77" y="145"/>
      <point x="97" y="145" type="curve"/>
      <point x="336" y="145" type="line"/>
      <point x="336" y="35" type="line"/>
      <point x="336" y="15"/>
      <point x="350" y="0"/>
      <point x="370" y="0" type="curve"/>
      <point x="405" y="0" type="line"/>
      <point x="426" y="0"/>
      <point x="440" y="15"/>
      <point x="440" y="35" type="curve"/>
      <point x="440" y="145" type="line"/>
      <point x="485" y="145" type="line"/>
      <point x="506" y="145"/>
      <point x="520" y="160"/>
      <point x="520" y="180" type="curve"/>
      <point x="520" y="206" type="line"/>
      <point x="520" y="226"/>
      <point x="506" y="241"/>
      <point x="485" y="241" type="curve"/>
    </contour>
  </outline>
</glyph>
<glyph name="five" format="2">
	<advance width="575"/>
	<unicode hex="0035"/>
	<outline>
		<contour>
			<point x="263" y="451" type="curve"/>
			<point x="221" y="451" type="line"/>
			<point x="234" y="624" type="line"/>
			<point x="431" y="624" type="line"/>
			<point x="452" y="624"/>
			<point x="466" y="639"/>
			<point x="466" y="659" type="curve"/>
			<point x="466" y="685" type="line"/>
			<point x="466" y="706"/>
			<point x="452" y="720"/>
			<point x="431" y="720" type="curve"/>
			<point x="176" y="720" type="line"/>
			<point x="156" y="720"/>
			<point x="140" y="707"/>
			<point x="139" y="688" type="curve"/>
			<point x="117" y="400" type="line"/>
			<point x="116" y="380"/>
			<point x="127" y="364"/>
			<point x="148" y="361" type="curve"/>
			<point x="198" y="354" type="line"/>
			<point x="263" y="354" type="line"/>
			<point x="352" y="354"/>
			<point x="397" y="310"/>
			<point x="397" y="221" type="curve"/>
			<point x="397" y="133"/>
			<point x="347" y="88"/>
			<point x="246" y="88" type="curve"/>
			<point x="211" y="88"/>
			<point x="179" y="92"/>
			<point x="149" y="99" type="curve"/>
			<point x="130" y="104"/>
			<point x="112" y="95"/>
			<point x="106" y="76" type="curve"/>
			<point x="98" y="48" type="line"/>
			<point x="93" y="29"/>
			<point x="102" y="10"/>
			<point x="123" y="4" type="curve"/>
			<point x="160" y="-5"/>
			<point x="203" y="-10"/>
			<point x="246" y="-10" type="curve"/>
			<point x="414" y="-10"/>
			<point x="503" y="71"/>
			<point x="503" y="221" type="curve"/>
			<point x="503" y="371"/>
			<point x="419" y="451"/>
		</contour>
	</outline>
</glyph>
<glyph name="six" format="2">
	<advance width="575"/>
	<unicode hex="0036"/>
	<outline>
		<contour>
			<point x="439" y="651" type="curve"/>
			<point x="445" y="680" type="line" smooth="yes"/>
			<point x="449" y="702"/>
			<point x="438" y="718"/>
			<point x="417" y="722" type="curve" smooth="yes"/>
			<point x="385" y="727"/>
			<point x="354" y="730"/>
			<point x="330" y="730" type="curve" smooth="yes"/>
			<point x="151" y="730"/>
			<point x="43" y="581"/>
			<point x="43" y="336" type="curve" smooth="yes"/>
			<point x="43" y="111"/>
			<point x="127" y="-10"/>
			<point x="283" y="-10" type="curve" smooth="yes"/>
			<point x="418" y="-10"/>
			<point x="506" y="84"/>
			<point x="506" y="230" type="curve" smooth="yes"/>
			<point x="506" y="358"/>
			<point x="414" y="449"/>
			<point x="285" y="449" type="curve" smooth="yes"/>
			<point x="248" y="449"/>
			<point x="209" y="442"/>
			<point x="156" y="406" type="curve"/>
			<point x="173" y="561"/>
			<point x="234" y="632"/>
			<point x="332" y="632" type="curve" smooth="yes"/>
			<point x="350" y="632"/>
			<point x="372" y="630"/>
			<point x="397" y="625" type="curve" smooth="yes"/>
			<point x="418" y="621"/>
			<point x="433" y="631"/>
		</contour>
		<contour>
			<point x="286" y="88" type="curve" smooth="yes"/>
			<point x="200" y="88"/>
			<point x="150" y="172"/>
			<point x="149" y="321" type="curve"/>
			<point x="207" y="349"/>
			<point x="254" y="351"/>
			<point x="281" y="351" type="curve" smooth="yes"/>
			<point x="354" y="351"/>
			<point x="400" y="305"/>
			<point x="400" y="230" type="curve" smooth="yes"/>
			<point x="400" y="143"/>
			<point x="356" y="88"/>
		</contour>
	</outline>
</glyph>
<glyph name="seven" format="2">
	<advance width="575"/>
	<unicode hex="0037"/>
	<outline>
		<contour>
			<point x="491" y="720" type="curve"/>
			<point x="110" y="720" type="line"/>
			<point x="90" y="720"/>
			<point x="75" y="706"/>
			<point x="75" y="685" type="curve"/>
			<point x="75" y="528" type="line"/>
			<point x="75" y="508"/>
			<point x="90" y="493"/>
			<point x="110" y="493" type="curve"/>
			<point x="145" y="493" type="line"/>
			<point x="166" y="493"/>
			<point x="180" y="507"/>
			<point x="180" y="528" type="curve"/>
			<point x="180" y="624" type="line"/>
			<point x="420" y="624" type="line"/>
			<point x="418" y="592"/>
			<point x="407" y="560"/>
			<point x="380" y="506" type="curve"/>
			<point x="290" y="326" type="line"/>
			<point x="236" y="216"/>
			<point x="207" y="116"/>
			<point x="207" y="34" type="curve"/>
			<point x="207" y="14"/>
			<point x="221" y="0"/>
			<point x="242" y="0" type="curve"/>
			<point x="276" y="0" type="line"/>
			<point x="297" y="0"/>
			<point x="312" y="14"/>
			<point x="312" y="34" type="curve"/>
			<point x="312" y="113"/>
			<point x="335" y="197"/>
			<point x="381" y="285" type="curve"/>
			<point x="479" y="470" type="line"/>
			<point x="512" y="534"/>
			<point x="525" y="581"/>
			<point x="525" y="636" type="curve"/>
			<point x="525" y="686" type="line"/>
			<point x="525" y="706"/>
			<point x="511" y="720"/>
		</contour>
	</outline>
</glyph>
<glyph name="eight" format="1">
  <advance width="575"/>
  <unicode hex="0038"/>
  <outline>
    <contour>
      <point x="467" y="424"/>
      <point x="506" y="488"/>
      <point x="506" y="558" type="curve" smooth="yes"/>
      <point x="506" y="658"/>
      <point x="415" y="730"/>
      <point x="288" y="730" type="curve" smooth="yes"/>
      <point x="160" y="730"/>
      <point x="70" y="656"/>
      <point x="70" y="551" type="curve" smooth="yes"/>
      <point x="70" y="472"/>
      <point x="108" y="415"/>
      <point x="192" y="367" type="curve"/>
      <point x="95" y="308"/>
      <point x="47" y="244"/>
      <point x="47" y="173" type="curve" smooth="yes"/>
      <point x="47" y="68"/>
      <point x="151" y="-10"/>
      <point x="288" y="-10" type="curve" smooth="yes"/>
      <point x="436" y="-10"/>
      <point x="529" y="62"/>
      <point x="529" y="179" type="curve"/>
      <point x="529" y="274"/>
      <point x="463" y="328"/>
      <point x="391" y="370" type="curve"/>
    </contour>
    <contour>
      <point x="175" y="598"/>
      <point x="223" y="634"/>
      <point x="288" y="634" type="curve" smooth="yes"/>
      <point x="352" y="634"/>
      <point x="400" y="599"/>
      <point x="400" y="553" type="curve" smooth="yes"/>
      <point x="400" y="510"/>
      <point x="362" y="454"/>
      <point x="307" y="414" type="curve"/>
      <point x="219" y="456"/>
      <point x="175" y="502"/>
      <point x="175" y="550" type="curve" smooth="yes"/>
    </contour>
    <contour>
      <point x="205" y="87"/>
      <point x="152" y="124"/>
      <point x="152" y="181" type="curve" smooth="yes"/>
      <point x="152" y="230"/>
      <point x="192" y="275"/>
      <point x="278" y="325" type="curve"/>
      <point x="378" y="280"/>
      <point x="424" y="236"/>
      <point x="424" y="181" type="curve" smooth="yes"/>
      <point x="424" y="124"/>
      <point x="371" y="87"/>
      <point x="288" y="87" type="curve" smooth="yes"/>
    </contour>
  </outline>
</glyph>
<glyph name="colon" format="1">
  <advance width="575"/>
  <unicode hex="003A"/>
  <outline>
    <contour>
      <point x="238" y="520" type="line"/>
      <point x="217" y="520"/>
      <point x="203" y="506"/>
      <point x="203" y="485" type="curve"/>
      <point x="203" y="395" type="line"/>
      <point x="203" y="375"/>
      <point x="218" y="360"/>
      <point x="238" y="360" type="curve"/>
      <point x="338" y="360" type="line"/>
      <point x="358" y="360"/>
      <point x="373" y="375"/>
      <point x="373" y="395" type="curve"/>
      <point x="373" y="485" type="line"/>
      <point x="373" y="506"/>
      <point x="358" y="520"/>
      <point x="338" y="520" type="curve"/>
    </contour>
    <contour>
      <point x="238" y="160" type="line"/>
      <point x="217" y="160"/>
      <point x="203" y="146"/>
      <point x="203" y="125" type="curve"/>
      <point x="203" y="35" type="line"/>
      <point x="203" y="15"/>
      <point x="218" y="0"/>
      <point x="238" y="0" type="curve"/>
      <point x="338" y="0" type="line"/>
      <point x="358" y="0"/>
      <point x="373" y="15"/>
      <point x="373" y="35" type="curve"/>
      <point x="373" y="125" type="line"/>
      <point x="373" y="146"/>
      <point x="358" y="160"/>
      <point x="338" y="160" type="curve"/>
    </contour>
  </outline>
</glyph>
<glyph name="semicolon" format="2">
	<advance width="575"/>
	<unicode hex="003B"/>
	<outline>
		<contour>
			<point x="338" y="520" type="curve"/>
			<point x="238" y="520" type="line"/>
			<point x="217" y="520"/>
			<point x="203" y="506"/>
			<point x="203" y="485" type="curve"/>
			<point x="203" y="395" type="line"/>
			<point x="203" y="375"/>
			<point x="218" y="360"/>
			<point x="238" y="360" type="curve"/>
			<point x="338" y="360" type="line"/>
			<point x="358" y="360"/>
			<point x="373" y="375"/>
			<point x="373" y="395" type="curve"/>
			<point x="373" y="485" type="line"/>
			<point x="373" y="506"/>
			<point x="358" y="520"/>
		</contour>
		<contour>
			<point x="338" y="160" type="curve"/>
			<point x="238" y="160" type="line"/>
			<point x="217" y="160"/>
			<point x="203" y="146"/>
			<point x="203" y="125" type="curve"/>
			<point x="203" y="35" type="line"/>
			<point x="203" y="15"/>
			<point x="218" y="0"/>
			<point x="238" y="0" type="curve"/>
			<point x="268" y="0" type="line"/>
			<point x="267" y="-111"/>
			<point x="226" y="-151"/>
			<point x="117" y="-151" type="curve"/>
			<point x="97" y="-151"/>
			<point x="83" y="-166"/>
			<point x="83" y="-186" type="curve"/>
			<point x="83" y="-213" type="line"/>
			<point x="83" y="-233"/>
			<point x="98" y="-247"/>
			<point x="118" y="-247" type="curve"/>
			<point x="301" y="-247"/>
			<point x="373" y="-175"/>
			<point x="373" y="8" type="curve"/>
			<point x="373" y="125" type="line"/>
			<point x="373" y="146"/>
			<point x="358" y="160"/>
		</contour>
	</outline>
</glyph>
<glyph name="equal" format="2">
	<advance width="575"/>
	<unicode hex="003D"/>
	<outline>
		<contour>
			<point x="41" y="388" type="curve"/>
			<point x="41" y="362" type="line"/>
			<point x="41" y="342"/>
			<point x="56" y="327"/>
			<point x="76" y="327" type="curve"/>
			<point x="499" y="327" type="line"/>
			<point x="520" y="327"/>
			<point x="534" y="342"/>
			<point x="534" y="362" type="curve"/>
			<point x="534" y="389" type="line"/>
			<point x="534" y="409"/>
			<point x="520" y="424"/>
			<point x="499" y="424" type="curve"/>
			<point x="76" y="424" type="line"/>
			<point x="56" y="424"/>
			<point x="41" y="409"/>
		</contour>
		<contour>
			<point x="41" y="158" type="curve"/>
			<point x="41" y="132" type="line"/>
			<point x="41" y="112"/>
			<point x="56" y="97"/>
			<point x="76" y="97" type="curve"/>
			<point x="499" y="97" type="line"/>
			<point x="520" y="97"/>
			<point x="534" y="112"/>
			<point x="534" y="132" type="curve"/>
			<point x="534" y="159" type="line"/>
			<point x="534" y="179"/>
			<point x="520" y="194"/>
			<point x="499" y="194" type="curve"/>
			<point x="76" y="194" type="line"/>
			<point x="56" y="194"/>
			<point x="41" y="179"/>
		</contour>
	</outline>
</glyph>
<glyph name="greater" format="1">
  <advance width="575"/>
  <unicode hex="003E"/>
  <outline>
    <contour>
      <point x="117" y="514" type="line" smooth="yes"/>
      <point x="98" y="524"/>
      <point x="80" y="518"/>
      <point x="71" y="499" type="curve"/>
      <point x="57" y="475" type="line"/>
      <point x="47" y="456"/>
      <point x="52" y="438"/>
      <point x="71" y="427" type="curve"/>
      <point x="72" y="427" type="line"/>
      <point x="406" y="260" type="line"/>
      <point x="72" y="93" type="line" smooth="yes"/>
      <point x="52" y="83"/>
      <point x="47" y="65"/>
      <point x="57" y="45" type="curve"/>
      <point x="71" y="21" type="line"/>
      <point x="71" y="22" type="line"/>
      <point x="81" y="3"/>
      <point x="99" y="-3"/>
      <point x="117" y="6" type="curve" smooth="yes"/>
      <point x="462" y="179" type="line" smooth="yes"/>
      <point x="508" y="201"/>
      <point x="529" y="226"/>
      <point x="529" y="260" type="curve" smooth="yes"/>
      <point x="529" y="302"/>
      <point x="496" y="325"/>
      <point x="463" y="342" type="curve" smooth="yes"/>
    </contour>
  </outline>
</glyph>
<glyph name="question" format="2">
	<advance width="575"/>
	<unicode hex="003F"/>
	<outline>
		<contour>
			<point x="55" y="685" type="curve" smooth="yes"/>
			<point x="55" y="661" type="line" smooth="yes"/>
			<point x="55" y="641"/>
			<point x="70" y="626"/>
			<point x="90" y="626" type="curve" smooth="yes"/>
			<point x="285" y="625"/>
			<point x="404" y="575"/>
			<point x="404" y="505" type="curve" smooth="yes"/>
			<point x="404" y="455"/>
			<point x="344" y="421"/>
			<point x="244" y="421" type="curve" smooth="yes"/>
			<point x="183" y="421" type="line" smooth="yes"/>
			<point x="163" y="421"/>
			<point x="148" y="406"/>
			<point x="148" y="386" type="curve" smooth="yes"/>
			<point x="148" y="240" type="line" smooth="yes"/>
			<point x="148" y="220"/>
			<point x="163" y="205"/>
			<point x="183" y="205" type="curve" smooth="yes"/>
			<point x="218" y="205" type="line" smooth="yes"/>
			<point x="238" y="205"/>
			<point x="253" y="220"/>
			<point x="253" y="240" type="curve" smooth="yes"/>
			<point x="253" y="327" type="line"/>
			<point x="409" y="330"/>
			<point x="510" y="399"/>
			<point x="510" y="505" type="curve" smooth="yes"/>
			<point x="510" y="608"/>
			<point x="381" y="718"/>
			<point x="90" y="720" type="curve" smooth="yes"/>
			<point x="70" y="720"/>
			<point x="55" y="705"/>
		</contour>
		<contour>
			<point x="148" y="82" type="curve" smooth="yes"/>
			<point x="148" y="35" type="line" smooth="yes"/>
			<point x="148" y="14"/>
			<point x="163" y="0"/>
			<point x="183" y="0" type="curve" smooth="yes"/>
			<point x="218" y="0" type="line" smooth="yes"/>
			<point x="238" y="0"/>
			<point x="253" y="14"/>
			<point x="253" y="35" type="curve" smooth="yes"/>
			<point x="253" y="82" type="line" smooth="yes"/>
			<point x="253" y="102"/>
			<point x="238" y="117"/>
			<point x="218" y="117" type="curve" smooth="yes"/>
			<point x="183" y="117" type="line" smooth="yes"/>
			<point x="163" y="117"/>
			<point x="148" y="102"/>
		</contour>
	</outline>
</glyph>
<glyph name="at" format="2">
	<advance width="575"/>
	<unicode hex="0040"/>
	<outline>
		<contour>
			<point x="41" y="474" type="curve"/>
			<point x="41" y="98" type="line"/>
			<point x="41" y="-69"/>
			<point x="127" y="-158"/>
			<point x="288" y="-158" type="curve"/>
			<point x="335" y="-158"/>
			<point x="375" y="-151"/>
			<point x="414" y="-136" type="curve"/>
			<point x="433" y="-130"/>
			<point x="442" y="-110"/>
			<point x="433" y="-91" type="curve"/>
			<point x="422" y="-64" type="line"/>
			<point x="415" y="-46"/>
			<point x="396" y="-37"/>
			<point x="377" y="-45" type="curve"/>
			<point x="345" y="-56"/>
			<point x="320" y="-62"/>
			<point x="288" y="-62" type="curve"/>
			<point x="194" y="-62"/>
			<point x="146" y="-9"/>
			<point x="146" y="98" type="curve"/>
			<point x="146" y="474" type="line"/>
			<point x="146" y="581"/>
			<point x="194" y="634"/>
			<point x="288" y="634" type="curve"/>
			<point x="379" y="634"/>
			<point x="426" y="584"/>
			<point x="429" y="485" type="curve"/>
			<point x="317" y="481"/>
			<point x="268" y="410"/>
			<point x="268" y="286" type="curve"/>
			<point x="268" y="158"/>
			<point x="320" y="87"/>
			<point x="439" y="87" type="curve"/>
			<point x="499" y="87" type="line"/>
			<point x="519" y="87"/>
			<point x="534" y="102"/>
			<point x="534" y="122" type="curve"/>
			<point x="534" y="474" type="line"/>
			<point x="534" y="641"/>
			<point x="448" y="730"/>
			<point x="288" y="730" type="curve"/>
			<point x="127" y="730"/>
			<point x="41" y="641"/>
		</contour>
	</outline>
</glyph>
<glyph name="A" format="1">
  <advance width="575"/>
  <unicode hex="0041"/>
  <outline>
    <contour>
      <point x="74" y="0" type="line" smooth="yes"/>
      <point x="94" y="0"/>
      <point x="108" y="11"/>
      <point x="112" y="30" type="curve"/>
      <point x="160" y="220" type="line"/>
      <point x="416" y="220" type="line"/>
      <point x="463" y="30" type="line" smooth="yes"/>
      <point x="468" y="10"/>
      <point x="482" y="0"/>
      <point x="501" y="0" type="curve" smooth="yes"/>
      <point x="537" y="0" type="line" smooth="yes"/>
      <point x="561" y="0"/>
      <point x="574" y="18"/>
      <point x="568" y="41" type="curve" smooth="yes"/>
      <point x="420" y="633" type="line" smooth="yes"/>
      <point x="405" y="693"/>
      <point x="355" y="730"/>
      <point x="288" y="730" type="curve" smooth="yes"/>
      <point x="222" y="730"/>
      <point x="171" y="693"/>
      <point x="155" y="634" type="curve" smooth="yes"/>
      <point x="7" y="40" type="line" smooth="yes"/>
      <point x="2" y="17"/>
      <point x="15" y="0"/>
      <point x="39" y="0" type="curve" smooth="yes"/>
    </contour>
    <contour>
      <point x="259" y="615" type="line"/>
      <point x="261" y="626"/>
      <point x="273" y="634"/>
      <point x="288" y="634" type="curve" smooth="yes"/>
      <point x="303" y="634"/>
      <point x="315" y="626"/>
      <point x="317" y="615" type="curve"/>
      <point x="392" y="316" type="line"/>
      <point x="184" y="316" type="line"/>
    </contour>
    <contour>
      <point x="517" y="10" type="move" name="ogonek"/>
    </contour>
    <contour>
      <point x="288" y="700" type="move" name="top"/>
    </contour>
  </outline>
</glyph>
<glyph name="B" format="1">
  <advance width="575"/>
  <unicode hex="0042"/>
  <outline>
    <contour>
      <point x="92" y="35" type="line" smooth="yes"/>
      <point x="92" y="14"/>
      <point x="106" y="0"/>
      <point x="127" y="0" type="curve" smooth="yes"/>
      <point x="264" y="0" type="line" smooth="yes"/>
      <point x="414" y="0"/>
      <point x="523" y="88"/>
      <point x="523" y="206" type="curve" smooth="yes"/>
      <point x="523" y="281"/>
      <point x="477" y="348"/>
      <point x="394" y="382" type="curve"/>
      <point x="452" y="415"/>
      <point x="483" y="473"/>
      <point x="483" y="531" type="curve" smooth="yes"/>
      <point x="483" y="643"/>
      <point x="386" y="720"/>
      <point x="244" y="720" type="curve" smooth="yes"/>
      <point x="64" y="720" type="line" smooth="yes"/>
      <point x="42" y="720"/>
      <point x="29" y="707"/>
      <point x="29" y="685" type="curve" smooth="yes"/>
      <point x="29" y="659" type="line" smooth="yes"/>
      <point x="29" y="637"/>
      <point x="42" y="624"/>
      <point x="64" y="624" type="curve" smooth="yes"/>
      <point x="92" y="624" type="line"/>
    </contour>
    <contour>
      <point x="197" y="624" type="line"/>
      <point x="244" y="624" type="line" smooth="yes"/>
      <point x="331" y="624"/>
      <point x="388" y="582"/>
      <point x="388" y="521" type="curve" smooth="yes"/>
      <point x="388" y="462"/>
      <point x="331" y="423"/>
      <point x="244" y="423" type="curve" smooth="yes"/>
      <point x="197" y="423" type="line"/>
    </contour>
    <contour>
      <point x="197" y="97" type="line"/>
      <point x="197" y="326" type="line"/>
      <point x="264" y="326" type="line" smooth="yes"/>
      <point x="360" y="326"/>
      <point x="427" y="278"/>
      <point x="427" y="211" type="curve" smooth="yes"/>
      <point x="427" y="144"/>
      <point x="360" y="97"/>
      <point x="264" y="97" type="curve" smooth="yes"/>
    </contour>
  </outline>
</glyph>
<glyph name="C" format="2">
	<advance width="575"/>
	<unicode hex="0043"/>
	<anchor x="288" y="0" name="bottom"/>
	<anchor x="338" y="700" name="top"/>
	<outline>
		<contour>
			<point x="500" y="57" type="curve" smooth="yes"/>
			<point x="490" y="81" type="line"/>
			<point x="482" y="101"/>
			<point x="465" y="108"/>
			<point x="445" y="100" type="curve" smooth="yes"/>
			<point x="404" y="85"/>
			<point x="369" y="78"/>
			<point x="338" y="78" type="curve" smooth="yes"/>
			<point x="235" y="78"/>
			<point x="181" y="158"/>
			<point x="181" y="310" type="curve" smooth="yes"/>
			<point x="181" y="400" type="line" smooth="yes"/>
			<point x="181" y="552"/>
			<point x="235" y="632"/>
			<point x="338" y="632" type="curve" smooth="yes"/>
			<point x="369" y="632"/>
			<point x="404" y="625"/>
			<point x="446" y="610" type="curve" smooth="yes"/>
			<point x="465" y="602"/>
			<point x="482" y="609"/>
			<point x="490" y="629" type="curve" smooth="yes"/>
			<point x="500" y="653" type="line" smooth="yes"/>
			<point x="508" y="674"/>
			<point x="501" y="691"/>
			<point x="482" y="699" type="curve" smooth="yes"/>
			<point x="434" y="720"/>
			<point x="387" y="730"/>
			<point x="340" y="730" type="curve" smooth="yes"/>
			<point x="174" y="730"/>
			<point x="75" y="608"/>
			<point x="75" y="400" type="curve" smooth="yes"/>
			<point x="75" y="310" type="line" smooth="yes"/>
			<point x="75" y="102"/>
			<point x="174" y="-20"/>
			<point x="340" y="-20" type="curve" smooth="yes"/>
			<point x="387" y="-20"/>
			<point x="434" y="-10"/>
			<point x="482" y="11" type="curve" smooth="yes"/>
			<point x="501" y="19"/>
			<point x="508" y="36"/>
		</contour>
	</outline>
</glyph>
<glyph name="D" format="1">
  <advance width="575"/>
  <unicode hex="0044"/>
  <outline>
    <contour>
      <point x="64" y="720" type="line"/>
      <point x="43" y="720"/>
      <point x="29" y="705"/>
      <point x="29" y="685" type="curve"/>
      <point x="29" y="659" type="line"/>
      <point x="29" y="639"/>
      <point x="43" y="624"/>
      <point x="64" y="624" type="curve"/>
      <point x="92" y="624" type="line"/>
      <point x="92" y="35" type="line"/>
      <point x="92" y="15"/>
      <point x="107" y="0"/>
      <point x="127" y="0" type="curve"/>
      <point x="183" y="0" type="line"/>
      <point x="439" y="0"/>
      <point x="527" y="108"/>
      <point x="527" y="330" type="curve"/>
      <point x="527" y="390" type="line"/>
      <point x="527" y="647"/>
      <point x="396" y="720"/>
      <point x="144" y="720" type="curve"/>
    </contour>
    <contour>
      <point x="422" y="330" type="line"/>
      <point x="422" y="167"/>
      <point x="357" y="100"/>
      <point x="197" y="97" type="curve"/>
      <point x="197" y="623" type="line"/>
      <point x="362" y="615"/>
      <point x="422" y="537"/>
      <point x="422" y="390" type="curve"/>
    </contour>
    <contour>
      <point x="288" y="350" type="move" name="center"/>
    </contour>
    <contour>
      <point x="288" y="700" type="move" name="top"/>
    </contour>
  </outline>
</glyph>
<glyph name="E" format="1">
  <advance width="575"/>
  <unicode hex="0045"/>
  <outline>
    <contour>
      <point x="180" y="97" type="line"/>
      <point x="180" y="326" type="line"/>
      <point x="448" y="326" type="line"/>
      <point x="468" y="326"/>
      <point x="483" y="341"/>
      <point x="483" y="361" type="curve"/>
      <point x="483" y="388" type="line"/>
      <point x="483" y="408"/>
      <point x="468" y="423"/>
      <point x="448" y="423" type="curve"/>
      <point x="180" y="423" type="line"/>
      <point x="180" y="624" type="line"/>
      <point x="469" y="624" type="line"/>
      <point x="489" y="624"/>
      <point x="504" y="638"/>
      <point x="504" y="659" type="curve"/>
      <point x="504" y="685" type="line"/>
      <point x="504" y="706"/>
      <point x="489" y="720"/>
      <point x="469" y="720" type="curve"/>
      <point x="110" y="720" type="line"/>
      <point x="90" y="720"/>
      <point x="75" y="705"/>
      <point x="75" y="685" type="curve"/>
      <point x="75" y="35" type="line"/>
      <point x="75" y="15"/>
      <point x="90" y="0"/>
      <point x="110" y="0" type="curve"/>
      <point x="491" y="0" type="line"/>
      <point x="511" y="0"/>
      <point x="526" y="15"/>
      <point x="526" y="35" type="curve"/>
      <point x="526" y="62" type="line"/>
      <point x="526" y="82"/>
      <point x="511" y="97"/>
      <point x="491" y="97" type="curve"/>
    </contour>
    <contour>
      <point x="518" y="5" type="move" name="ogonek"/>
    </contour>
    <contour>
      <point x="288" y="0" type="move" name="bottom"/>
    </contour>
    <contour>
      <point x="288" y="700" type="move" name="top"/>
    </contour>
  </outline>
</glyph>
<glyph name="F" format="2">
	<advance width="575"/>
	<unicode hex="0046"/>
	<anchor x="288" y="0" name="bottom"/>
	<anchor x="288" y="720" name="top"/>
	<outline>
		<contour>
			<point x="491" y="720" type="curve"/>
			<point x="110" y="720" type="line"/>
			<point x="90" y="720"/>
			<point x="75" y="705"/>
			<point x="75" y="685" type="curve"/>
			<point x="75" y="35" type="line"/>
			<point x="75" y="15"/>
			<point x="90" y="0"/>
			<point x="110" y="0" type="curve"/>
			<point x="145" y="0" type="line"/>
			<point x="166" y="0"/>
			<point x="180" y="15"/>
			<point x="180" y="35" type="curve"/>
			<point x="180" y="292" type="line"/>
			<point x="469" y="292" type="line"/>
			<point x="489" y="292"/>
			<point x="504" y="306"/>
			<point x="504" y="326" type="curve"/>
			<point x="504" y="353" type="line"/>
			<point x="504" y="373"/>
			<point x="489" y="388"/>
			<point x="469" y="388" type="curve"/>
			<point x="180" y="388" type="line"/>
			<point x="180" y="624" type="line"/>
			<point x="491" y="624" type="line"/>
			<point x="511" y="624"/>
			<point x="526" y="638"/>
			<point x="526" y="659" type="curve"/>
			<point x="526" y="685" type="line"/>
			<point x="526" y="706"/>
			<point x="511" y="720"/>
		</contour>
	</outline>
</glyph>
<glyph name="G" format="2">
	<advance width="575"/>
	<unicode hex="0047"/>
	<anchor x="288" y="0" name="bottom"/>
	<anchor x="288" y="700" name="top"/>
	<outline>
		<contour>
			<point x="475" y="409" type="curve" smooth="yes"/>
			<point x="343" y="409" type="line" smooth="yes"/>
			<point x="321" y="409"/>
			<point x="308" y="395"/>
			<point x="308" y="373" type="curve" smooth="yes"/>
			<point x="308" y="347" type="line" smooth="yes"/>
			<point x="308" y="325"/>
			<point x="321" y="312"/>
			<point x="343" y="312" type="curve" smooth="yes"/>
			<point x="405" y="312" type="line"/>
			<point x="405" y="88" type="line"/>
			<point x="380" y="81"/>
			<point x="358" y="78"/>
			<point x="338" y="78" type="curve" smooth="yes"/>
			<point x="235" y="78"/>
			<point x="181" y="158"/>
			<point x="181" y="310" type="curve" smooth="yes"/>
			<point x="181" y="400" type="line" smooth="yes"/>
			<point x="181" y="552"/>
			<point x="235" y="632"/>
			<point x="338" y="632" type="curve" smooth="yes"/>
			<point x="369" y="632"/>
			<point x="404" y="625"/>
			<point x="446" y="610" type="curve" smooth="yes"/>
			<point x="465" y="602"/>
			<point x="482" y="609"/>
			<point x="490" y="629" type="curve" smooth="yes"/>
			<point x="500" y="653" type="line" smooth="yes"/>
			<point x="508" y="674"/>
			<point x="501" y="691"/>
			<point x="482" y="699" type="curve" smooth="yes"/>
			<point x="434" y="720"/>
			<point x="387" y="730"/>
			<point x="340" y="730" type="curve" smooth="yes"/>
			<point x="174" y="730"/>
			<point x="75" y="608"/>
			<point x="75" y="400" type="curve" smooth="yes"/>
			<point x="75" y="310" type="line" smooth="yes"/>
			<point x="75" y="102"/>
			<point x="174" y="-20"/>
			<point x="340" y="-20" type="curve" smooth="yes"/>
			<point x="387" y="-20"/>
			<point x="436" y="-9"/>
			<point x="485" y="12" type="curve" smooth="yes"/>
			<point x="501" y="19"/>
			<point x="510" y="33"/>
			<point x="510" y="51" type="curve" smooth="yes"/>
			<point x="510" y="374" type="line" smooth="yes"/>
			<point x="510" y="395"/>
			<point x="496" y="409"/>
		</contour>
	</outline>
</glyph>
<glyph name="H" format="1">
  <advance width="575"/>
  <unicode hex="0048"/>
  <outline>
    <contour>
      <point x="447" y="720" type="line"/>
      <point x="427" y="720"/>
      <point x="412" y="706"/>
      <point x="412" y="685" type="curve"/>
      <point x="412" y="430" type="line"/>
      <point x="163" y="430" type="line"/>
      <point x="163" y="685" type="line"/>
      <point x="163" y="706"/>
      <point x="149" y="720"/>
      <point x="128" y="720" type="curve"/>
      <point x="93" y="720" type="line"/>
      <point x="73" y="720"/>
      <point x="58" y="705"/>
      <point x="58" y="685" type="curve"/>
      <point x="58" y="35" type="line"/>
      <point x="58" y="15"/>
      <point x="73" y="0"/>
      <point x="93" y="0" type="curve"/>
      <point x="128" y="0" type="line"/>
      <point x="149" y="0"/>
      <point x="163" y="15"/>
      <point x="163" y="35" type="curve"/>
      <point x="163" y="333" type="line"/>
      <point x="412" y="333" type="line"/>
      <point x="412" y="35" type="line"/>
      <point x="412" y="15"/>
      <point x="427" y="0"/>
      <point x="447" y="0" type="curve"/>
      <point x="482" y="0" type="line"/>
      <point x="503" y="0"/>
      <point x="517" y="15"/>
      <point x="517" y="35" type="curve"/>
      <point x="517" y="685" type="line"/>
      <point x="517" y="706"/>
      <point x="502" y="720"/>
      <point x="482" y="720" type="curve"/>
    </contour>
    <contour>
      <point x="288" y="0" type="move" name="bottom"/>
    </contour>
    <contour>
      <point x="288" y="700" type="move" name="top"/>
    </contour>
    <contour>
      <point x="20" y="720" type="move" name="topleft"/>
    </contour>
    <contour>
      <point x="288" y="350" type="move" name="center"/>
    </contour>
  </outline>
</glyph>
<glyph name="I" format="1">
  <advance width="575"/>
  <unicode hex="0049"/>
  <outline>
    <contour>
      <point x="120" y="720" type="line"/>
      <point x="100" y="720"/>
      <point x="85" y="706"/>
      <point x="85" y="685" type="curve"/>
      <point x="85" y="659" type="line"/>
      <point x="85" y="639"/>
      <point x="100" y="624"/>
      <point x="120" y="624" type="curve"/>
      <point x="235" y="624" type="line"/>
      <point x="235" y="97" type="line"/>
      <point x="110" y="97" type="line"/>
      <point x="90" y="97"/>
      <point x="75" y="82"/>
      <point x="75" y="62" type="curve"/>
      <point x="75" y="35" type="line"/>
      <point x="75" y="15"/>
      <point x="90" y="0"/>
      <point x="110" y="0" type="curve"/>
      <point x="465" y="0" type="line"/>
      <point x="486" y="0"/>
      <point x="500" y="15"/>
      <point x="500" y="35" type="curve"/>
      <point x="500" y="62" type="line"/>
      <point x="500" y="82"/>
      <point x="486" y="97"/>
      <point x="465" y="97" type="curve"/>
      <point x="340" y="97" type="line"/>
      <point x="340" y="624" type="line"/>
      <point x="455" y="624" type="line"/>
      <point x="475" y="624"/>
      <point x="490" y="638"/>
      <point x="490" y="659" type="curve"/>
      <point x="490" y="685" type="line"/>
      <point x="490" y="706"/>
      <point x="475" y="720"/>
      <point x="455" y="720" type="curve"/>
    </contour>
    <contour>
      <point x="518" y="5" type="move" name="ogonek"/>
    </contour>
    <contour>
      <point x="288" y="700" type="move" name="top"/>
    </contour>
    <contour>
      <point x="20" y="720" type="move" name="topleft"/>
    </contour>
    <contour>
      <point x="288" y="0" type="move" name="bottom"/>
    </contour>
  </outline>
</glyph>
<glyph name="J" format="2">
	<advance width="575"/>
	<unicode hex="004A"/>
	<anchor x="288" y="700" name="top"/>
	<outline>
		<contour>
			<point x="465" y="720" type="curve"/>
			<point x="185" y="720" type="line"/>
			<point x="165" y="720"/>
			<point x="150" y="705"/>
			<point x="150" y="685" type="curve"/>
			<point x="150" y="657" type="line"/>
			<point x="150" y="637"/>
			<point x="165" y="622"/>
			<point x="185" y="622" type="curve"/>
			<point x="394" y="622" type="line"/>
			<point x="394" y="280" type="line"/>
			<point x="394" y="131"/>
			<point x="331" y="88"/>
			<point x="247" y="88" type="curve"/>
			<point x="207" y="88"/>
			<point x="173" y="95"/>
			<point x="129" y="110" type="curve"/>
			<point x="111" y="118"/>
			<point x="92" y="109"/>
			<point x="85" y="91" type="curve"/>
			<point x="75" y="67" type="line"/>
			<point x="67" y="48"/>
			<point x="74" y="28"/>
			<point x="93" y="21" type="curve"/>
			<point x="141" y="0"/>
			<point x="195" y="-10"/>
			<point x="247" y="-10" type="curve"/>
			<point x="376" y="-10"/>
			<point x="500" y="64"/>
			<point x="500" y="280" type="curve"/>
			<point x="500" y="685" type="line"/>
			<point x="500" y="705"/>
			<point x="485" y="720"/>
		</contour>
	</outline>
</glyph>
<glyph name="K" format="2">
	<advance width="575"/>
	<unicode hex="004B"/>
	<anchor x="150" y="0" name="bottom"/>
	<anchor x="150" y="700" name="top"/>
	<outline>
		<contour>
			<point x="443" y="0" type="curve" smooth="yes"/>
			<point x="495" y="0" type="line" smooth="yes"/>
			<point x="524" y="0"/>
			<point x="536" y="24"/>
			<point x="518" y="47" type="curve" smooth="yes"/>
			<point x="302" y="334" type="line" smooth="yes"/>
			<point x="291" y="348"/>
			<point x="280" y="360"/>
			<point x="268" y="370" type="curve"/>
			<point x="281" y="379"/>
			<point x="293" y="392"/>
			<point x="304" y="407" type="curve" smooth="yes"/>
			<point x="503" y="674" type="line" smooth="yes"/>
			<point x="521" y="698"/>
			<point x="509" y="720"/>
			<point x="480" y="720" type="curve" smooth="yes"/>
			<point x="427" y="720" type="line" smooth="yes"/>
			<point x="411" y="720"/>
			<point x="399" y="715"/>
			<point x="389" y="701" type="curve" smooth="yes"/>
			<point x="180" y="410" type="line"/>
			<point x="180" y="685" type="line" smooth="yes"/>
			<point x="180" y="707"/>
			<point x="167" y="720"/>
			<point x="145" y="720" type="curve" smooth="yes"/>
			<point x="110" y="720" type="line" smooth="yes"/>
			<point x="89" y="720"/>
			<point x="75" y="706"/>
			<point x="75" y="685" type="curve" smooth="yes"/>
			<point x="75" y="35" type="line" smooth="yes"/>
			<point x="75" y="14"/>
			<point x="89" y="0"/>
			<point x="110" y="0" type="curve" smooth="yes"/>
			<point x="145" y="0" type="line" smooth="yes"/>
			<point x="168" y="0"/>
			<point x="180" y="14"/>
			<point x="180" y="35" type="curve" smooth="yes"/>
			<point x="180" y="331" type="line"/>
			<point x="405" y="20" type="line"/>
			<point x="413" y="7"/>
			<point x="426" y="0"/>
		</contour>
	</outline>
</glyph>
<glyph name="L" format="2">
	<advance width="575"/>
	<unicode hex="004C"/>
	<anchor x="288" y="0" name="bottom"/>
	<anchor x="288" y="700" name="top"/>
	<outline>
		<contour>
			<point x="529" y="97" type="curve"/>
			<point x="180" y="97" type="line"/>
			<point x="180" y="685" type="line"/>
			<point x="180" y="706"/>
			<point x="166" y="720"/>
			<point x="145" y="720" type="curve"/>
			<point x="110" y="720" type="line"/>
			<point x="90" y="720"/>
			<point x="75" y="705"/>
			<point x="75" y="685" type="curve"/>
			<point x="75" y="35" type="line"/>
			<point x="75" y="15"/>
			<point x="90" y="0"/>
			<point x="110" y="0" type="curve"/>
			<point x="529" y="0" type="line"/>
			<point x="549" y="0"/>
			<point x="564" y="15"/>
			<point x="564" y="35" type="curve"/>
			<point x="564" y="62" type="line"/>
			<point x="564" y="82"/>
			<point x="549" y="97"/>
		</contour>
	</outline>
</glyph>
<glyph name="M" format="2">
	<advance width="575"/>
	<unicode hex="004D"/>
	<anchor x="288" y="0" name="bottom"/>
	<anchor x="288" y="720" name="top"/>
	<outline>
		<contour>
			<point x="555" y="36" type="curve"/>
			<point x="535" y="690" type="line"/>
			<point x="535" y="712"/>
			<point x="521" y="725"/>
			<point x="498" y="725" type="curve" smooth="yes"/>
			<point x="482" y="725" type="line" smooth="yes"/>
			<point x="450" y="725"/>
			<point x="427" y="711"/>
			<point x="414" y="683" type="curve" smooth="yes"/>
			<point x="288" y="431" type="line"/>
			<point x="162" y="683" type="line" smooth="yes"/>
			<point x="149" y="711"/>
			<point x="126" y="725"/>
			<point x="94" y="725" type="curve" smooth="yes"/>
			<point x="78" y="725" type="line" smooth="yes"/>
			<point x="55" y="725"/>
			<point x="41" y="712"/>
			<point x="41" y="690" type="curve" smooth="yes"/>
			<point x="21" y="36" type="line" smooth="yes"/>
			<point x="21" y="16"/>
			<point x="37" y="0"/>
			<point x="57" y="0" type="curve" smooth="yes"/>
			<point x="91" y="0" type="line" smooth="yes"/>
			<point x="111" y="0"/>
			<point x="125" y="14"/>
			<point x="126" y="35" type="curve" smooth="yes"/>
			<point x="143" y="540" type="line"/>
			<point x="236" y="354" type="line" smooth="yes"/>
			<point x="243" y="338"/>
			<point x="256" y="330"/>
			<point x="274" y="330" type="curve" smooth="yes"/>
			<point x="302" y="330" type="line" smooth="yes"/>
			<point x="320" y="330"/>
			<point x="333" y="338"/>
			<point x="340" y="354" type="curve" smooth="yes"/>
			<point x="433" y="540" type="line"/>
			<point x="450" y="36" type="line" smooth="yes"/>
			<point x="451" y="14"/>
			<point x="465" y="0"/>
			<point x="485" y="0" type="curve" smooth="yes"/>
			<point x="519" y="0" type="line" smooth="yes"/>
			<point x="539" y="0"/>
			<point x="555" y="16"/>
		</contour>
	</outline>
</glyph>
<glyph name="N" format="1">
  <advance width="575"/>
  <unicode hex="004E"/>
  <outline>
    <contour>
      <point x="446" y="725" type="line" smooth="yes"/>
      <point x="426" y="725"/>
      <point x="411" y="710"/>
      <point x="411" y="689" type="curve" smooth="yes"/>
      <point x="411" y="201" type="line"/>
      <point x="180" y="683" type="line" smooth="yes"/>
      <point x="166" y="711"/>
      <point x="144" y="725"/>
      <point x="112" y="725" type="curve" smooth="yes"/>
      <point x="96" y="725" type="line" smooth="yes"/>
      <point x="73" y="725"/>
      <point x="59" y="712"/>
      <point x="59" y="690" type="curve" smooth="yes"/>
      <point x="59" y="36" type="line" smooth="yes"/>
      <point x="59" y="16"/>
      <point x="75" y="0"/>
      <point x="95" y="0" type="curve" smooth="yes"/>
      <point x="129" y="0" type="line" smooth="yes"/>
      <point x="149" y="0"/>
      <point x="164" y="15"/>
      <point x="164" y="36" type="curve" smooth="yes"/>
      <point x="164" y="515" type="line"/>
      <point x="395" y="41" type="line" smooth="yes"/>
      <point x="409" y="13"/>
      <point x="432" y="0"/>
      <point x="463" y="0" type="curve" smooth="yes"/>
      <point x="479" y="0" type="line" smooth="yes"/>
      <point x="502" y="0"/>
      <point x="516" y="13"/>
      <point x="516" y="35" type="curve" smooth="yes"/>
      <point x="516" y="689" type="line" smooth="yes"/>
      <point x="516" y="709"/>
      <point x="500" y="725"/>
      <point x="480" y="725" type="curve" smooth="yes"/>
    </contour>
    <contour>
      <point x="288" y="700" type="move" name="top"/>
    </contour>
    <contour>
      <point x="288" y="0" type="move" name="bottom"/>
    </contour>
  </outline>
</glyph>
<glyph name="O" format="1">
  <advance width="575"/>
  <unicode hex="004F"/>
  <outline>
    <contour>
      <point x="75" y="253" type="line"/>
      <point x="75" y="106"/>
      <point x="138" y="-10"/>
      <point x="288" y="-10" type="curve"/>
      <point x="435" y="-10"/>
      <point x="500" y="104"/>
      <point x="500" y="253" type="curve"/>
      <point x="500" y="467" type="line"/>
      <point x="500" y="615"/>
      <point x="437" y="730"/>
      <point x="288" y="730" type="curve"/>
      <point x="140" y="730"/>
      <point x="75" y="617"/>
      <point x="75" y="467" type="curve"/>
    </contour>
    <contour>
      <point x="395" y="253" type="line"/>
      <point x="395" y="163"/>
      <point x="372" y="87"/>
      <point x="288" y="87" type="curve"/>
      <point x="203" y="87"/>
      <point x="180" y="163"/>
      <point x="180" y="253" type="curve"/>
      <point x="180" y="467" type="line"/>
      <point x="180" y="557"/>
      <point x="203" y="634"/>
      <point x="288" y="634" type="curve"/>
      <point x="372" y="634"/>
      <point x="395" y="558"/>
      <point x="395" y="467" type="curve"/>
    </contour>
    <contour>
      <point x="288" y="700" type="move" name="top"/>
    </contour>
  </outline>
</glyph>
<glyph name="P" format="1">
  <advance width="575"/>
  <unicode hex="0050"/>
  <outline>
    <contour>
      <point x="110" y="720" type="line" smooth="yes"/>
      <point x="89" y="720"/>
      <point x="75" y="706"/>
      <point x="75" y="685" type="curve" smooth="yes"/>
      <point x="75" y="35" type="line" smooth="yes"/>
      <point x="75" y="14"/>
      <point x="89" y="0"/>
      <point x="110" y="0" type="curve" smooth="yes"/>
      <point x="145" y="0" type="line" smooth="yes"/>
      <point x="167" y="0"/>
      <point x="180" y="13"/>
      <point x="180" y="35" type="curve" smooth="yes"/>
      <point x="180" y="260" type="line"/>
      <point x="245" y="260" type="line" smooth="yes"/>
      <point x="415" y="260"/>
      <point x="527" y="352"/>
      <point x="527" y="490" type="curve" smooth="yes"/>
      <point x="527" y="627"/>
      <point x="414" y="720"/>
      <point x="245" y="720" type="curve" smooth="yes"/>
    </contour>
    <contour>
      <point x="180" y="356" type="line"/>
      <point x="180" y="624" type="line"/>
      <point x="245" y="624" type="line" smooth="yes"/>
      <point x="353" y="624"/>
      <point x="422" y="571"/>
      <point x="422" y="490" type="curve" smooth="yes"/>
      <point x="422" y="408"/>
      <point x="354" y="356"/>
      <point x="245" y="356" type="curve" smooth="yes"/>
    </contour>
  </outline>
</glyph>
<glyph name="Q" format="2">
	<advance width="575"/>
	<unicode hex="0051"/>
	<outline>
		<contour>
			<point x="555" y="-154" type="curve" smooth="yes"/>
			<point x="544" y="-128" type="line" smooth="yes"/>
			<point x="536" y="-109"/>
			<point x="517" y="-101"/>
			<point x="498" y="-109" type="curve"/>
			<point x="472" y="-118"/>
			<point x="451" y="-122"/>
			<point x="427" y="-122" type="curve" smooth="yes"/>
			<point x="374" y="-122"/>
			<point x="341" y="-97"/>
			<point x="341" y="4" type="curve" smooth="yes"/>
			<point x="341" y="63" type="line"/>
			<point x="235" y="63" type="line"/>
			<point x="235" y="4" type="line" smooth="yes"/>
			<point x="235" y="-163"/>
			<point x="329" y="-220"/>
			<point x="427" y="-220" type="curve" smooth="yes"/>
			<point x="463" y="-220"/>
			<point x="502" y="-212"/>
			<point x="535" y="-199" type="curve"/>
			<point x="556" y="-193"/>
			<point x="563" y="-173"/>
		</contour>
		<component base="O"/>
	</outline>
</glyph>
<glyph name="R" format="1">
  <advance width="575"/>
  <unicode hex="0052"/>
  <outline>
    <contour>
      <point x="411" y="341" type="line"/>
      <point x="472" y="375"/>
      <point x="510" y="442"/>
      <point x="510" y="516" type="curve" smooth="yes"/>
      <point x="510" y="640"/>
      <point x="415" y="720"/>
      <point x="268" y="720" type="curve" smooth="yes"/>
      <point x="110" y="720" type="line" smooth="yes"/>
      <point x="88" y="720"/>
      <point x="75" y="707"/>
      <point x="75" y="685" type="curve" smooth="yes"/>
      <point x="75" y="35" type="line" smooth="yes"/>
      <point x="75" y="14"/>
      <point x="89" y="0"/>
      <point x="110" y="0" type="curve" smooth="yes"/>
      <point x="145" y="0" type="line" smooth="yes"/>
      <point x="166" y="0"/>
      <point x="180" y="14"/>
      <point x="180" y="35" type="curve" smooth="yes"/>
      <point x="180" y="312" type="line"/>
      <point x="309" y="312" type="line"/>
      <point x="453" y="24" type="line" smooth="yes"/>
      <point x="461" y="8"/>
      <point x="474" y="0"/>
      <point x="491" y="0" type="curve" smooth="yes"/>
      <point x="533" y="0" type="line" smooth="yes"/>
      <point x="560" y="0"/>
      <point x="572" y="20"/>
      <point x="560" y="44" type="curve" smooth="yes"/>
    </contour>
    <contour>
      <point x="180" y="409" type="line"/>
      <point x="180" y="624" type="line"/>
      <point x="268" y="624" type="line" smooth="yes"/>
      <point x="350" y="624"/>
      <point x="405" y="580"/>
      <point x="405" y="516" type="curve" smooth="yes"/>
      <point x="405" y="453"/>
      <point x="350" y="409"/>
      <point x="268" y="409" type="curve" smooth="yes"/>
    </contour>
    <contour>
      <point x="288" y="700" type="move" name="top"/>
    </contour>
    <contour>
      <point x="288" y="0" type="move" name="bottom"/>
    </contour>
  </outline>
</glyph>
<glyph name="S" format="1">
  <advance width="575"/>
  <unicode hex="0053"/>
  <outline>
    <contour>
      <point x="476" y="659" type="line" smooth="yes"/>
      <point x="483" y="681"/>
      <point x="479" y="693"/>
      <point x="460" y="702" type="curve" smooth="yes"/>
      <point x="421" y="719"/>
      <point x="365" y="730"/>
      <point x="316" y="730" type="curve" smooth="yes"/>
      <point x="173" y="730"/>
      <point x="72" y="649"/>
      <point x="72" y="531" type="curve" smooth="yes"/>
      <point x="72" y="424"/>
      <point x="149" y="346"/>
      <point x="282" y="318" type="curve" smooth="yes"/>
      <point x="369" y="300"/>
      <point x="418" y="257"/>
      <point x="418" y="200" type="curve" smooth="yes"/>
      <point x="418" y="135"/>
      <point x="351" y="89"/>
      <point x="255" y="89" type="curve" smooth="yes"/>
      <point x="214" y="89"/>
      <point x="166" y="97"/>
      <point x="134" y="110" type="curve" smooth="yes"/>
      <point x="114" y="118"/>
      <point x="97" y="111"/>
      <point x="89" y="91" type="curve" smooth="yes"/>
      <point x="79" y="67" type="line" smooth="yes"/>
      <point x="71" y="46"/>
      <point x="78" y="29"/>
      <point x="97" y="21" type="curve" smooth="yes"/>
      <point x="142" y="1"/>
      <point x="198" y="-10"/>
      <point x="250" y="-10" type="curve" smooth="yes"/>
      <point x="405" y="-10"/>
      <point x="524" y="82"/>
      <point x="524" y="205" type="curve" smooth="yes"/>
      <point x="524" y="312"/>
      <point x="439" y="393"/>
      <point x="294" y="423" type="curve" smooth="yes"/>
      <point x="223" y="438"/>
      <point x="178" y="481"/>
      <point x="178" y="534" type="curve" smooth="yes"/>
      <point x="178" y="591"/>
      <point x="237" y="634"/>
      <point x="316" y="634" type="curve" smooth="yes"/>
      <point x="347" y="634"/>
      <point x="382" y="627"/>
      <point x="424" y="612" type="curve" smooth="yes"/>
      <point x="443" y="604"/>
      <point x="461" y="611"/>
      <point x="467" y="632" type="curve" smooth="yes"/>
    </contour>
    <contour>
      <point x="288" y="700" type="move" name="top"/>
    </contour>
    <contour>
      <point x="288" y="0" type="move" name="bottom"/>
    </contour>
  </outline>
</glyph>
<glyph name="T" format="2">
	<advance width="575"/>
	<unicode hex="0054"/>
	<anchor x="288" y="0" name="bottom"/>
	<anchor x="288" y="350" name="center"/>
	<anchor x="288" y="700" name="top"/>
	<outline>
		<contour>
			<point x="564" y="659" type="curve"/>
			<point x="564" y="685" type="line"/>
			<point x="564" y="706"/>
			<point x="549" y="720"/>
			<point x="529" y="720" type="curve"/>
			<point x="47" y="720" type="line"/>
			<point x="26" y="720"/>
			<point x="12" y="705"/>
			<point x="12" y="685" type="curve"/>
			<point x="12" y="659" type="line"/>
			<point x="12" y="639"/>
			<point x="26" y="624"/>
			<point x="46" y="624" type="curve"/>
			<point x="235" y="624" type="line"/>
			<point x="235" y="35" type="line"/>
			<point x="235" y="15"/>
			<point x="250" y="0"/>
			<point x="270" y="0" type="curve"/>
			<point x="305" y="0" type="line"/>
			<point x="326" y="0"/>
			<point x="340" y="15"/>
			<point x="340" y="35" type="curve"/>
			<point x="340" y="624" type="line"/>
			<point x="529" y="624" type="line"/>
			<point x="549" y="624"/>
			<point x="564" y="639"/>
		</contour>
	</outline>
</glyph>
<glyph name="U" format="1">
  <advance width="575"/>
  <unicode hex="0055"/>
  <outline>
    <contour>
      <point x="395" y="223" type="line" smooth="yes"/>
      <point x="395" y="120"/>
      <point x="368" y="86"/>
      <point x="288" y="86" type="curve" smooth="yes"/>
      <point x="208" y="86"/>
      <point x="180" y="120"/>
      <point x="180" y="223" type="curve" smooth="yes"/>
      <point x="180" y="685" type="line" smooth="yes"/>
      <point x="180" y="706"/>
      <point x="166" y="720"/>
      <point x="145" y="720" type="curve" smooth="yes"/>
      <point x="110" y="720" type="line" smooth="yes"/>
      <point x="89" y="720"/>
      <point x="75" y="706"/>
      <point x="75" y="685" type="curve" smooth="yes"/>
      <point x="75" y="223" type="line" smooth="yes"/>
      <point x="75" y="69"/>
      <point x="147" y="-10"/>
      <point x="288" y="-10" type="curve" smooth="yes"/>
      <point x="429" y="-10"/>
      <point x="500" y="68"/>
      <point x="500" y="223" type="curve" smooth="yes"/>
      <point x="500" y="685" type="line" smooth="yes"/>
      <point x="500" y="706"/>
      <point x="486" y="720"/>
      <point x="465" y="720" type="curve" smooth="yes"/>
      <point x="430" y="720" type="line" smooth="yes"/>
      <point x="409" y="720"/>
      <point x="395" y="706"/>
      <point x="395" y="685" type="curve" smooth="yes"/>
    </contour>
    <contour>
      <point x="518" y="5" type="move" name="ogonek"/>
    </contour>
    <contour>
      <point x="288" y="700" type="move" name="top"/>
    </contour>
  </outline>
</glyph>
<glyph name="V" format="2">
	<advance width="575"/>
	<unicode hex="0056"/>
	<anchor x="288" y="0" name="bottom"/>
	<anchor x="288" y="720" name="top"/>
	<outline>
		<contour>
			<point x="420" y="87" type="curve" smooth="yes"/>
			<point x="568" y="680" type="line"/>
			<point x="574" y="702"/>
			<point x="561" y="720"/>
			<point x="537" y="720" type="curve" smooth="yes"/>
			<point x="501" y="720" type="line" smooth="yes"/>
			<point x="482" y="720"/>
			<point x="468" y="710"/>
			<point x="463" y="691" type="curve" smooth="yes"/>
			<point x="317" y="105" type="line" smooth="yes"/>
			<point x="315" y="94"/>
			<point x="303" y="86"/>
			<point x="288" y="86" type="curve" smooth="yes"/>
			<point x="273" y="86"/>
			<point x="261" y="94"/>
			<point x="259" y="105" type="curve" smooth="yes"/>
			<point x="112" y="690" type="line"/>
			<point x="108" y="709"/>
			<point x="94" y="720"/>
			<point x="74" y="720" type="curve" smooth="yes"/>
			<point x="39" y="720" type="line" smooth="yes"/>
			<point x="15" y="720"/>
			<point x="2" y="703"/>
			<point x="7" y="680" type="curve" smooth="yes"/>
			<point x="155" y="87" type="line" smooth="yes"/>
			<point x="171" y="27"/>
			<point x="222" y="-10"/>
			<point x="288" y="-10" type="curve" smooth="yes"/>
			<point x="355" y="-10"/>
			<point x="405" y="27"/>
		</contour>
	</outline>
</glyph>
<glyph name="W" format="1">
  <advance width="575"/>
  <unicode hex="0057"/>
  <outline>
    <component base="M" xOffset="575" yOffset="720" xScale="-1" yScale="-1"/>
    <contour>
      <point x="288" y="700" type="move" name="top"/>
    </contour>
  </outline>
</glyph>
<glyph name="X" format="2">
	<advance width="575"/>
	<unicode hex="0058"/>
	<anchor x="288" y="0" name="bottom"/>
	<anchor x="288" y="720" name="top"/>
	<outline>
		<contour>
			<point x="402" y="396" type="curve" smooth="yes"/>
			<point x="537" y="677" type="line"/>
			<point x="549" y="699"/>
			<point x="534" y="720"/>
			<point x="510" y="720" type="curve" smooth="yes"/>
			<point x="479" y="720" type="line" smooth="yes"/>
			<point x="463" y="720"/>
			<point x="447" y="712"/>
			<point x="440" y="696" type="curve"/>
			<point x="309" y="433" type="line" smooth="yes"/>
			<point x="300" y="415"/>
			<point x="294" y="410"/>
			<point x="288" y="410" type="curve" smooth="yes"/>
			<point x="281" y="410"/>
			<point x="275" y="416"/>
			<point x="267" y="433" type="curve" smooth="yes"/>
			<point x="135" y="696" type="line"/>
			<point x="128" y="712"/>
			<point x="114" y="720"/>
			<point x="97" y="720" type="curve" smooth="yes"/>
			<point x="66" y="720" type="line" smooth="yes"/>
			<point x="40" y="720"/>
			<point x="28" y="698"/>
			<point x="38" y="677" type="curve" smooth="yes"/>
			<point x="174" y="396" type="line" smooth="yes"/>
			<point x="179" y="385"/>
			<point x="188" y="375"/>
			<point x="199" y="367" type="curve"/>
			<point x="188" y="360"/>
			<point x="179" y="349"/>
			<point x="174" y="339" type="curve" smooth="yes"/>
			<point x="31" y="44" type="line"/>
			<point x="21" y="21"/>
			<point x="35" y="0"/>
			<point x="59" y="0" type="curve" smooth="yes"/>
			<point x="90" y="0" type="line" smooth="yes"/>
			<point x="107" y="0"/>
			<point x="121" y="9"/>
			<point x="128" y="24" type="curve" smooth="yes"/>
			<point x="267" y="301" type="line"/>
			<point x="275" y="319"/>
			<point x="281" y="325"/>
			<point x="288" y="325" type="curve" smooth="yes"/>
			<point x="294" y="325"/>
			<point x="300" y="319"/>
			<point x="309" y="301" type="curve" smooth="yes"/>
			<point x="447" y="24" type="line" smooth="yes"/>
			<point x="454" y="9"/>
			<point x="469" y="0"/>
			<point x="486" y="0" type="curve" smooth="yes"/>
			<point x="517" y="0" type="line" smooth="yes"/>
			<point x="542" y="0"/>
			<point x="554" y="21"/>
			<point x="544" y="44" type="curve"/>
			<point x="402" y="339" type="line" smooth="yes"/>
			<point x="397" y="349"/>
			<point x="387" y="360"/>
			<point x="376" y="367" type="curve"/>
			<point x="387" y="375"/>
			<point x="397" y="385"/>
		</contour>
	</outline>
</glyph>
<glyph name="Y" format="2">
	<advance width="575"/>
	<unicode hex="0059"/>
	<anchor x="288" y="0" name="bottom"/>
	<anchor x="288" y="700" name="top"/>
	<anchor x="20" y="720" name="topleft"/>
	<outline>
		<contour>
			<point x="532" y="720" type="curve"/>
			<point x="496" y="720" type="line"/>
			<point x="480" y="720"/>
			<point x="464" y="712"/>
			<point x="457" y="696" type="curve"/>
			<point x="321" y="424" type="line"/>
			<point x="313" y="408"/>
			<point x="303" y="400"/>
			<point x="288" y="400" type="curve"/>
			<point x="273" y="400"/>
			<point x="263" y="408"/>
			<point x="254" y="425" type="curve"/>
			<point x="118" y="696" type="line"/>
			<point x="111" y="712"/>
			<point x="97" y="720"/>
			<point x="80" y="720" type="curve"/>
			<point x="43" y="720" type="line"/>
			<point x="19" y="720"/>
			<point x="4" y="699"/>
			<point x="16" y="676" type="curve"/>
			<point x="161" y="386" type="line"/>
			<point x="177" y="353"/>
			<point x="203" y="329"/>
			<point x="235" y="318" type="curve"/>
			<point x="235" y="35" type="line"/>
			<point x="235" y="15"/>
			<point x="250" y="0"/>
			<point x="270" y="0" type="curve"/>
			<point x="305" y="0" type="line"/>
			<point x="325" y="0"/>
			<point x="340" y="15"/>
			<point x="340" y="35" type="curve"/>
			<point x="340" y="318" type="line"/>
			<point x="372" y="329"/>
			<point x="398" y="353"/>
			<point x="414" y="386" type="curve"/>
			<point x="559" y="677" type="line"/>
			<point x="570" y="698"/>
			<point x="558" y="720"/>
		</contour>
	</outline>
</glyph>
<glyph name="Z" format="1">
  <advance width="575"/>
  <unicode hex="005A"/>
  <outline>
    <contour>
      <point x="441" y="458" type="line"/>
      <point x="492" y="508"/>
      <point x="520" y="580"/>
      <point x="520" y="655" type="curve"/>
      <point x="520" y="685" type="line"/>
      <point x="520" y="706"/>
      <point x="506" y="720"/>
      <point x="485" y="720" type="curve"/>
      <point x="121" y="720" type="line"/>
      <point x="101" y="720"/>
      <point x="86" y="706"/>
      <point x="86" y="685" type="curve"/>
      <point x="86" y="659" type="line"/>
      <point x="86" y="639"/>
      <point x="101" y="624"/>
      <point x="121" y="624" type="curve"/>
      <point x="413" y="624" type="line"/>
      <point x="409" y="578"/>
      <point x="395" y="543"/>
      <point x="373" y="521" type="curve"/>
      <point x="134" y="282" type="line"/>
      <point x="83" y="232"/>
      <point x="55" y="154"/>
      <point x="55" y="65" type="curve"/>
      <point x="55" y="35" type="line"/>
      <point x="55" y="15"/>
      <point x="70" y="0"/>
      <point x="90" y="0" type="curve"/>
      <point x="485" y="0" type="line"/>
      <point x="505" y="0"/>
      <point x="520" y="15"/>
      <point x="520" y="35" type="curve"/>
      <point x="520" y="62" type="line"/>
      <point x="520" y="82"/>
      <point x="505" y="97"/>
      <point x="485" y="97" type="curve"/>
      <point x="161" y="97" type="line"/>
      <point x="165" y="154"/>
      <point x="179" y="196"/>
      <point x="203" y="220" type="curve"/>
    </contour>
    <contour>
      <point x="288" y="700" type="move" name="top"/>
    </contour>
  </outline>
</glyph>
<glyph name="bracketleft" format="2">
	<advance width="575"/>
	<unicode hex="005B"/>
	<outline>
		<contour>
			<point x="470" y="-82" type="curve"/>
			<point x="245" y="-82" type="line"/>
			<point x="245" y="674" type="line"/>
			<point x="470" y="674" type="line"/>
			<point x="491" y="674"/>
			<point x="505" y="688"/>
			<point x="505" y="709" type="curve"/>
			<point x="505" y="735" type="line"/>
			<point x="505" y="756"/>
			<point x="490" y="770"/>
			<point x="470" y="770" type="curve"/>
			<point x="175" y="770" type="line"/>
			<point x="155" y="770"/>
			<point x="140" y="755"/>
			<point x="140" y="735" type="curve"/>
			<point x="140" y="-143" type="line"/>
			<point x="140" y="-164"/>
			<point x="155" y="-178"/>
			<point x="175" y="-178" type="curve"/>
			<point x="470" y="-178" type="line"/>
			<point x="491" y="-178"/>
			<point x="505" y="-164"/>
			<point x="505" y="-143" type="curve"/>
			<point x="505" y="-117" type="line"/>
			<point x="505" y="-97"/>
			<point x="490" y="-82"/>
		</contour>
	</outline>
</glyph>
<glyph name="backslash" format="1">
  <advance width="575"/>
  <unicode hex="005C"/>
  <outline>
    <contour>
      <point x="129" y="686" type="line"/>
      <point x="120" y="704"/>
      <point x="100" y="711"/>
      <point x="83" y="702" type="curve"/>
      <point x="51" y="686" type="line"/>
      <point x="33" y="677"/>
      <point x="26" y="657"/>
      <point x="35" y="640" type="curve"/>
      <point x="448" y="-186" type="line"/>
      <point x="457" y="-204"/>
      <point x="477" y="-211"/>
      <point x="494" y="-202" type="curve"/>
      <point x="526" y="-186" type="line"/>
      <point x="544" y="-177"/>
      <point x="551" y="-157"/>
      <point x="542" y="-140" type="curve"/>
    </contour>
  </outline>
</glyph>
<glyph name="bracketright" format="1">
  <advance width="575"/>
  <unicode hex="005D"/>
  <outline>
    <contour>
      <point x="105" y="770" type="line"/>
      <point x="85" y="770"/>
      <point x="70" y="756"/>
      <point x="70" y="735" type="curve"/>
      <point x="70" y="709" type="line"/>
      <point x="70" y="689"/>
      <point x="85" y="674"/>
      <point x="105" y="674" type="curve"/>
      <point x="330" y="674" type="line"/>
      <point x="330" y="-82" type="line"/>
      <point x="105" y="-82" type="line"/>
      <point x="85" y="-82"/>
      <point x="70" y="-96"/>
      <point x="70" y="-117" type="curve"/>
      <point x="70" y="-143" type="line"/>
      <point x="70" y="-164"/>
      <point x="85" y="-178"/>
      <point x="105" y="-178" type="curve"/>
      <point x="400" y="-178" type="line"/>
      <point x="421" y="-178"/>
      <point x="435" y="-163"/>
      <point x="435" y="-143" type="curve"/>
      <point x="435" y="735" type="line"/>
      <point x="435" y="756"/>
      <point x="420" y="770"/>
      <point x="400" y="770" type="curve"/>
    </contour>
  </outline>
</glyph>
<glyph name="asciicircum" format="2">
	<advance width="575"/>
	<unicode hex="005E"/>
	<outline>
		<contour>
			<point x="211" y="699" type="curve" smooth="yes"/>
			<point x="22" y="516" type="line" smooth="yes"/>
			<point x="7" y="501"/>
			<point x="8" y="479"/>
			<point x="23" y="466" type="curve" smooth="yes"/>
			<point x="46" y="445" type="line" smooth="yes"/>
			<point x="61" y="432"/>
			<point x="81" y="432"/>
			<point x="95" y="447" type="curve" smooth="yes"/>
			<point x="279" y="636" type="line" smooth="yes"/>
			<point x="282" y="639"/>
			<point x="285" y="642"/>
			<point x="288" y="642" type="curve" smooth="yes"/>
			<point x="291" y="642"/>
			<point x="291" y="642"/>
			<point x="295" y="637" type="curve"/>
			<point x="480" y="447" type="line" smooth="yes"/>
			<point x="495" y="432"/>
			<point x="515" y="432"/>
			<point x="530" y="446" type="curve" smooth="yes"/>
			<point x="552" y="466" type="line"/>
			<point x="568" y="479"/>
			<point x="568" y="501"/>
			<point x="553" y="516" type="curve" smooth="yes"/>
			<point x="364" y="699" type="line" smooth="yes"/>
			<point x="344" y="718"/>
			<point x="322" y="739"/>
			<point x="288" y="739" type="curve" smooth="yes"/>
			<point x="254" y="739"/>
			<point x="232" y="719"/>
		</contour>
	</outline>
</glyph>
<glyph name="underscore" format="1">
  <advance width="575"/>
  <unicode hex="005F"/>
  <outline>
    <contour>
      <point x="41" y="-62" type="line"/>
      <point x="41" y="-82"/>
      <point x="56" y="-97"/>
      <point x="76" y="-97" type="curve"/>
      <point x="499" y="-97" type="line"/>
      <point x="520" y="-97"/>
      <point x="534" y="-82"/>
      <point x="534" y="-62" type="curve"/>
      <point x="534" y="-35" type="line"/>
      <point x="534" y="-15"/>
      <point x="519" y="0"/>
      <point x="499" y="0" type="curve"/>
      <point x="76" y="0" type="line"/>
      <point x="56" y="0"/>
      <point x="41" y="-15"/>
      <point x="41" y="-35" type="curve"/>
    </contour>
  </outline>
</glyph>
<glyph name="grave" format="2">
	<advance width="575"/>
	<unicode hex="0060"/>
	<anchor x="288" y="500" name="_top"/>
	<outline>
		<contour>
			<point x="390" y="544" type="curve"/>
			<point x="399" y="562" type="line"/>
			<point x="404" y="577"/>
			<point x="400" y="588"/>
			<point x="385" y="595" type="curve" smooth="yes"/>
			<point x="176" y="696" type="line" smooth="yes"/>
			<point x="161" y="703"/>
			<point x="149" y="699"/>
			<point x="143" y="684" type="curve" smooth="yes"/>
			<point x="121" y="638" type="line" smooth="yes"/>
			<point x="114" y="623"/>
			<point x="119" y="611"/>
			<point x="135" y="606" type="curve" smooth="yes"/>
			<point x="357" y="531" type="line" smooth="yes"/>
			<point x="371" y="526"/>
			<point x="382" y="530"/>
		</contour>
	</outline>
</glyph>
<glyph name="a" format="2">
	<advance width="575"/>
	<unicode hex="0061"/>
	<anchor x="518" y="5" name="ogonek"/>
	<anchor x="288" y="570" name="top"/>
	<outline>
		<contour>
			<point x="288" y="202" type="curve"/>
			<point x="375" y="202" type="line"/>
			<point x="375" y="90" type="line"/>
			<point x="345" y="87"/>
			<point x="317" y="85"/>
			<point x="291" y="85" type="curve"/>
			<point x="210" y="85"/>
			<point x="172" y="107"/>
			<point x="173" y="145" type="curve"/>
			<point x="173" y="181"/>
			<point x="210" y="202"/>
		</contour>
		<contour>
			<point x="480" y="39" type="curve"/>
			<point x="480" y="329" type="line"/>
			<point x="480" y="468"/>
			<point x="417" y="530"/>
			<point x="274" y="530" type="curve"/>
			<point x="228" y="530"/>
			<point x="185" y="526"/>
			<point x="147" y="519" type="curve"/>
			<point x="126" y="515"/>
			<point x="118" y="498"/>
			<point x="120" y="479" type="curve"/>
			<point x="123" y="452" type="line"/>
			<point x="126" y="431"/>
			<point x="146" y="422"/>
			<point x="165" y="425" type="curve"/>
			<point x="206" y="432"/>
			<point x="251" y="434"/>
			<point x="274" y="434" type="curve"/>
			<point x="347" y="434"/>
			<point x="375" y="404"/>
			<point x="375" y="329" type="curve"/>
			<point x="375" y="299" type="line"/>
			<point x="288" y="299" type="line"/>
			<point x="145" y="299"/>
			<point x="67" y="245"/>
			<point x="67" y="144" type="curve"/>
			<point x="69" y="44"/>
			<point x="146" y="-10"/>
			<point x="285" y="-10" type="curve"/>
			<point x="334" y="-10"/>
			<point x="389" y="-5"/>
			<point x="447" y="2" type="curve"/>
			<point x="467" y="5"/>
			<point x="480" y="19"/>
		</contour>
	</outline>
</glyph>
<glyph name="b" format="1">
  <advance width="575"/>
  <unicode hex="0062"/>
  <outline>
    <contour>
      <point x="75" y="50" type="line" smooth="yes"/>
      <point x="75" y="38"/>
      <point x="83" y="25"/>
      <point x="94" y="20" type="curve" smooth="yes"/>
      <point x="142" y="0"/>
      <point x="195" y="-10"/>
      <point x="247" y="-10" type="curve" smooth="yes"/>
      <point x="376" y="-10"/>
      <point x="500" y="64"/>
      <point x="500" y="260" type="curve" smooth="yes"/>
      <point x="500" y="456"/>
      <point x="376" y="530"/>
      <point x="247" y="530" type="curve" smooth="yes"/>
      <point x="225" y="530"/>
      <point x="202" y="528"/>
      <point x="180" y="524" type="curve"/>
      <point x="180" y="735" type="line" smooth="yes"/>
      <point x="180" y="755"/>
      <point x="165" y="770"/>
      <point x="145" y="770" type="curve" smooth="yes"/>
      <point x="110" y="770" type="line" smooth="yes"/>
      <point x="90" y="770"/>
      <point x="75" y="755"/>
      <point x="75" y="735" type="curve" smooth="yes"/>
    </contour>
    <contour>
      <point x="180" y="431" type="line"/>
      <point x="199" y="434"/>
      <point x="218" y="436"/>
      <point x="237" y="436" type="curve" smooth="yes"/>
      <point x="321" y="436"/>
      <point x="394" y="397"/>
      <point x="394" y="260" type="curve" smooth="yes"/>
      <point x="394" y="131"/>
      <point x="331" y="88"/>
      <point x="247" y="88" type="curve" smooth="yes"/>
      <point x="223" y="88"/>
      <point x="202" y="90"/>
      <point x="180" y="95" type="curve"/>
    </contour>
  </outline>
</glyph>
<glyph name="c" format="1">
  <advance width="575"/>
  <unicode hex="0063"/>
  <outline>
    <contour>
      <point x="500" y="453" type="line"/>
      <point x="508" y="472"/>
      <point x="501" y="492"/>
      <point x="482" y="499" type="curve"/>
      <point x="434" y="520"/>
      <point x="380" y="530"/>
      <point x="328" y="530" type="curve"/>
      <point x="199" y="530"/>
      <point x="75" y="456"/>
      <point x="75" y="260" type="curve"/>
      <point x="75" y="64"/>
      <point x="199" y="-10"/>
      <point x="328" y="-10" type="curve"/>
      <point x="380" y="-10"/>
      <point x="434" y="0"/>
      <point x="482" y="21" type="curve"/>
      <point x="501" y="28"/>
      <point x="508" y="48"/>
      <point x="500" y="67" type="curve"/>
      <point x="490" y="91" type="line"/>
      <point x="483" y="109"/>
      <point x="464" y="118"/>
      <point x="445" y="110" type="curve"/>
      <point x="401" y="95"/>
      <point x="368" y="88"/>
      <point x="328" y="88" type="curve"/>
      <point x="244" y="88"/>
      <point x="181" y="131"/>
      <point x="181" y="260" type="curve"/>
      <point x="181" y="389"/>
      <point x="244" y="432"/>
      <point x="328" y="432" type="curve"/>
      <point x="368" y="432"/>
      <point x="402" y="425"/>
      <point x="446" y="410" type="curve"/>
      <point x="464" y="402"/>
      <point x="483" y="411"/>
      <point x="490" y="429" type="curve"/>
    </contour>
    <contour>
      <point x="288" y="570" type="move" name="top"/>
    </contour>
    <contour>
      <point x="288" y="0" type="move" name="bottom"/>
    </contour>
  </outline>
</glyph>
<glyph name="d" format="2">
	<advance width="575"/>
	<unicode hex="0064"/>
	<anchor x="288" y="250" name="center"/>
	<anchor x="409" y="520" name="top"/>
	<anchor x="565" y="500" name="topright"/>
	<outline>
		<contour>
			<point x="500" y="50" type="curve"/>
			<point x="500" y="735" type="line"/>
			<point x="500" y="755"/>
			<point x="485" y="770"/>
			<point x="465" y="770" type="curve"/>
			<point x="430" y="770" type="line"/>
			<point x="410" y="770"/>
			<point x="395" y="755"/>
			<point x="395" y="735" type="curve"/>
			<point x="395" y="524" type="line"/>
			<point x="373" y="528"/>
			<point x="350" y="530"/>
			<point x="328" y="530" type="curve"/>
			<point x="199" y="530"/>
			<point x="75" y="456"/>
			<point x="75" y="260" type="curve"/>
			<point x="75" y="64"/>
			<point x="199" y="-10"/>
			<point x="328" y="-10" type="curve"/>
			<point x="380" y="-10"/>
			<point x="433" y="0"/>
			<point x="481" y="20" type="curve"/>
			<point x="481" y="20" type="line"/>
			<point x="492" y="25"/>
			<point x="500" y="38"/>
		</contour>
		<contour>
			<point x="395" y="431" type="curve"/>
			<point x="395" y="95" type="line"/>
			<point x="372" y="90"/>
			<point x="352" y="88"/>
			<point x="328" y="88" type="curve"/>
			<point x="244" y="88"/>
			<point x="181" y="131"/>
			<point x="181" y="260" type="curve"/>
			<point x="181" y="397"/>
			<point x="254" y="436"/>
			<point x="338" y="436" type="curve"/>
			<point x="357" y="436"/>
			<point x="376" y="434"/>
		</contour>
	</outline>
</glyph>
<glyph name="e" format="2">
	<advance width="575"/>
	<unicode hex="0065"/>
	<anchor x="288" y="0" name="bottom"/>
	<anchor x="518" y="5" name="ogonek"/>
	<anchor x="288" y="570" name="top"/>
	<outline>
		<contour>
			<point x="500" y="67" type="curve" smooth="yes"/>
			<point x="490" y="91" type="line" smooth="yes"/>
			<point x="482" y="111"/>
			<point x="465" y="118"/>
			<point x="445" y="110" type="curve"/>
			<point x="401" y="95"/>
			<point x="367" y="88"/>
			<point x="328" y="88" type="curve" smooth="yes"/>
			<point x="237" y="88"/>
			<point x="188" y="138"/>
			<point x="181" y="237" type="curve"/>
			<point x="465" y="237" type="line" smooth="yes"/>
			<point x="486" y="237"/>
			<point x="500" y="251"/>
			<point x="500" y="272" type="curve" smooth="yes"/>
			<point x="500" y="295" type="line" smooth="yes"/>
			<point x="500" y="432"/>
			<point x="412" y="530"/>
			<point x="292" y="530" type="curve" smooth="yes"/>
			<point x="164" y="530"/>
			<point x="75" y="420"/>
			<point x="75" y="260" type="curve" smooth="yes"/>
			<point x="75" y="91"/>
			<point x="170" y="-10"/>
			<point x="328" y="-10" type="curve" smooth="yes"/>
			<point x="381" y="-10"/>
			<point x="434" y="1"/>
			<point x="482" y="21" type="curve" smooth="yes"/>
			<point x="501" y="29"/>
			<point x="508" y="46"/>
		</contour>
		<contour>
			<point x="293" y="434" type="curve" smooth="yes"/>
			<point x="347" y="434"/>
			<point x="389" y="392"/>
			<point x="395" y="334" type="curve"/>
			<point x="189" y="334" type="line"/>
			<point x="199" y="393"/>
			<point x="241" y="434"/>
		</contour>
	</outline>
</glyph>
<glyph name="f" format="1">
  <advance width="575"/>
  <unicode hex="0066"/>
  <outline>
    <contour>
      <point x="506" y="717" type="line"/>
      <point x="514" y="736"/>
      <point x="507" y="756"/>
      <point x="486" y="763" type="curve"/>
      <point x="453" y="775"/>
      <point x="414" y="783"/>
      <point x="378" y="783" type="curve"/>
      <point x="280" y="783"/>
      <point x="186" y="726"/>
      <point x="186" y="559" type="curve"/>
      <point x="186" y="520" type="line"/>
      <point x="100" y="520" type="line"/>
      <point x="80" y="520"/>
      <point x="65" y="505"/>
      <point x="65" y="485" type="curve"/>
      <point x="65" y="459" type="line"/>
      <point x="65" y="438"/>
      <point x="80" y="424"/>
      <point x="100" y="424" type="curve"/>
      <point x="186" y="424" type="line"/>
      <point x="186" y="35" type="line"/>
      <point x="186" y="15"/>
      <point x="200" y="0"/>
      <point x="221" y="0" type="curve"/>
      <point x="256" y="0" type="line"/>
      <point x="276" y="0"/>
      <point x="291" y="15"/>
      <point x="291" y="35" type="curve"/>
      <point x="291" y="424" type="line"/>
      <point x="445" y="424" type="line"/>
      <point x="465" y="424"/>
      <point x="480" y="439"/>
      <point x="480" y="459" type="curve"/>
      <point x="480" y="485" type="line"/>
      <point x="480" y="505"/>
      <point x="465" y="520"/>
      <point x="445" y="520" type="curve"/>
      <point x="292" y="520" type="line"/>
      <point x="292" y="559" type="line"/>
      <point x="292" y="660"/>
      <point x="326" y="685"/>
      <point x="378" y="685" type="curve"/>
      <point x="402" y="685"/>
      <point x="423" y="681"/>
      <point x="450" y="672" type="curve"/>
      <point x="468" y="664"/>
      <point x="487" y="672"/>
      <point x="495" y="691" type="curve"/>
    </contour>
  </outline>
</glyph>
<glyph name="g" format="1">
  <advance width="575"/>
  <unicode hex="0067"/>
  <outline>
    <contour>
      <point x="217" y="81"/>
      <point x="182" y="92"/>
      <point x="182" y="118" type="curve" smooth="yes"/>
      <point x="182" y="135"/>
      <point x="195" y="152"/>
      <point x="215" y="163" type="curve"/>
      <point x="238" y="156"/>
      <point x="262" y="152"/>
      <point x="288" y="152" type="curve" smooth="yes"/>
      <point x="411" y="152"/>
      <point x="499" y="231"/>
      <point x="499" y="341" type="curve" smooth="yes"/>
      <point x="499" y="376"/>
      <point x="490" y="407"/>
      <point x="475" y="434" type="curve"/>
      <point x="510" y="434" type="line" smooth="yes"/>
      <point x="531" y="434"/>
      <point x="545" y="448"/>
      <point x="545" y="469" type="curve" smooth="yes"/>
      <point x="545" y="485" type="line" smooth="yes"/>
      <point x="545" y="507"/>
      <point x="532" y="520"/>
      <point x="510" y="520" type="curve" smooth="yes"/>
      <point x="360" y="520" type="line"/>
      <point x="338" y="527"/>
      <point x="314" y="530"/>
      <point x="288" y="530" type="curve" smooth="yes"/>
      <point x="165" y="530"/>
      <point x="76" y="450"/>
      <point x="77" y="341" type="curve" smooth="yes"/>
      <point x="76" y="286"/>
      <point x="101" y="237"/>
      <point x="141" y="203" type="curve"/>
      <point x="103" y="180"/>
      <point x="77" y="139"/>
      <point x="77" y="99" type="curve" smooth="yes"/>
      <point x="77" y="65"/>
      <point x="88" y="40"/>
      <point x="112" y="21" type="curve"/>
      <point x="69" y="-8"/>
      <point x="41" y="-55"/>
      <point x="41" y="-103" type="curve" smooth="yes"/>
      <point x="41" y="-197"/>
      <point x="142" y="-248"/>
      <point x="320" y="-248" type="curve" smooth="yes"/>
      <point x="482" y="-248"/>
      <point x="584" y="-183"/>
      <point x="585" y="-77" type="curve" smooth="yes"/>
      <point x="585" y="24"/>
      <point x="487" y="81"/>
      <point x="320" y="81" type="curve" smooth="yes"/>
    </contour>
    <contour>
      <point x="349" y="434"/>
      <point x="394" y="394"/>
      <point x="394" y="341" type="curve" smooth="yes"/>
      <point x="394" y="289"/>
      <point x="349" y="249"/>
      <point x="288" y="249" type="curve" smooth="yes"/>
      <point x="227" y="249"/>
      <point x="182" y="289"/>
      <point x="182" y="341" type="curve" smooth="yes"/>
      <point x="182" y="394"/>
      <point x="227" y="434"/>
      <point x="288" y="434" type="curve" smooth="yes"/>
    </contour>
    <contour>
      <point x="201" y="-151"/>
      <point x="142" y="-124"/>
      <point x="140" y="-78" type="curve"/>
      <point x="140" y="-49"/>
      <point x="162" y="-23"/>
      <point x="196" y="-9" type="curve"/>
      <point x="227" y="-14"/>
      <point x="265" y="-16"/>
      <point x="310" y="-16" type="curve" smooth="yes"/>
      <point x="418" y="-16"/>
      <point x="479" y="-39"/>
      <point x="480" y="-77" type="curve" smooth="yes"/>
      <point x="480" y="-120"/>
      <point x="412" y="-151"/>
      <point x="310" y="-151" type="curve" smooth="yes"/>
    </contour>
    <contour>
      <point x="288" y="570" type="move" name="top"/>
    </contour>
  </outline>
</glyph>
<glyph name="h" format="2">
	<advance width="575"/>
	<unicode hex="0068"/>
	<anchor x="288" y="250" name="center"/>
	<anchor x="388" y="620" name="top"/>
	<outline>
		<contour>
			<point x="180" y="526" type="curve"/>
			<point x="180" y="735" type="line"/>
			<point x="180" y="755"/>
			<point x="165" y="770"/>
			<point x="145" y="770" type="curve"/>
			<point x="110" y="771" type="line"/>
			<point x="90" y="771"/>
			<point x="75" y="756"/>
			<point x="75" y="736" type="curve"/>
			<point x="75" y="35" type="line"/>
			<point x="75" y="15"/>
			<point x="90" y="0"/>
			<point x="110" y="0" type="curve"/>
			<point x="145" y="0" type="line"/>
			<point x="166" y="0"/>
			<point x="180" y="15"/>
			<point x="180" y="35" type="curve"/>
			<point x="180" y="430" type="line"/>
			<point x="221" y="433"/>
			<point x="256" y="434"/>
			<point x="278" y="434" type="curve"/>
			<point x="363" y="434"/>
			<point x="395" y="405"/>
			<point x="395" y="318" type="curve"/>
			<point x="395" y="35" type="line"/>
			<point x="395" y="15"/>
			<point x="410" y="0"/>
			<point x="430" y="0" type="curve"/>
			<point x="465" y="0" type="line"/>
			<point x="486" y="0"/>
			<point x="500" y="15"/>
			<point x="500" y="35" type="curve"/>
			<point x="500" y="318" type="line"/>
			<point x="500" y="469"/>
			<point x="430" y="530"/>
			<point x="278" y="530" type="curve"/>
			<point x="257" y="530"/>
			<point x="222" y="529"/>
		</contour>
	</outline>
</glyph>
<glyph name="i" format="1">
  <advance width="575"/>
  <unicode hex="0069"/>
  <outline>
    <contour>
      <point x="240" y="780" type="line"/>
      <point x="220" y="780"/>
      <point x="205" y="765"/>
      <point x="205" y="745" type="curve"/>
      <point x="205" y="679" type="line"/>
      <point x="205" y="659"/>
      <point x="220" y="644"/>
      <point x="240" y="644" type="curve"/>
      <point x="305" y="644" type="line"/>
      <point x="326" y="644"/>
      <point x="340" y="659"/>
      <point x="340" y="679" type="curve"/>
      <point x="340" y="745" type="line"/>
      <point x="340" y="766"/>
      <point x="325" y="780"/>
      <point x="305" y="780" type="curve"/>
    </contour>
    <component base="dotlessi"/>
  </outline>
</glyph>
<glyph name="j" format="2">
	<advance width="575"/>
	<unicode hex="006A"/>
	<outline>
		<contour>
			<point x="465" y="780" type="curve"/>
			<point x="400" y="780" type="line"/>
			<point x="380" y="780"/>
			<point x="365" y="765"/>
			<point x="365" y="745" type="curve"/>
			<point x="365" y="679" type="line"/>
			<point x="365" y="659"/>
			<point x="380" y="644"/>
			<point x="400" y="644" type="curve"/>
			<point x="465" y="644" type="line"/>
			<point x="486" y="644"/>
			<point x="500" y="659"/>
			<point x="500" y="679" type="curve"/>
			<point x="500" y="745" type="line"/>
			<point x="500" y="766"/>
			<point x="485" y="780"/>
		</contour>
		<contour>
			<point x="465" y="520" type="curve"/>
			<point x="125" y="520" type="line"/>
			<point x="105" y="520"/>
			<point x="90" y="505"/>
			<point x="90" y="485" type="curve"/>
			<point x="90" y="457" type="line"/>
			<point x="90" y="437"/>
			<point x="105" y="422"/>
			<point x="125" y="422" type="curve"/>
			<point x="394" y="422" type="line"/>
			<point x="394" y="130" type="line"/>
			<point x="394" y="-19"/>
			<point x="331" y="-62"/>
			<point x="247" y="-62" type="curve"/>
			<point x="207" y="-62"/>
			<point x="173" y="-55"/>
			<point x="129" y="-40" type="curve"/>
			<point x="111" y="-32"/>
			<point x="92" y="-41"/>
			<point x="85" y="-59" type="curve"/>
			<point x="75" y="-83" type="line"/>
			<point x="67" y="-102"/>
			<point x="74" y="-122"/>
			<point x="93" y="-129" type="curve"/>
			<point x="141" y="-150"/>
			<point x="195" y="-160"/>
			<point x="247" y="-160" type="curve"/>
			<point x="376" y="-160"/>
			<point x="500" y="-86"/>
			<point x="500" y="130" type="curve"/>
			<point x="500" y="485" type="line"/>
			<point x="500" y="505"/>
			<point x="485" y="520"/>
		</contour>
	</outline>
</glyph>
<glyph name="k" format="1">
  <advance width="575"/>
  <unicode hex="006B"/>
  <outline>
    <contour>
      <point x="307" y="250" type="line"/>
      <point x="301" y="256"/>
      <point x="294" y="263"/>
      <point x="280" y="270" type="curve"/>
      <point x="294" y="277"/>
      <point x="301" y="284"/>
      <point x="307" y="290" type="curve"/>
      <point x="489" y="472" type="line"/>
      <point x="510" y="493"/>
      <point x="499" y="520"/>
      <point x="469" y="520" type="curve"/>
      <point x="411" y="520" type="line"/>
      <point x="396" y="520"/>
      <point x="383" y="514"/>
      <point x="373" y="504" type="curve"/>
      <point x="193" y="324" type="line"/>
      <point x="188" y="319"/>
      <point x="183" y="315"/>
      <point x="180" y="312" type="curve"/>
      <point x="180" y="735" type="line"/>
      <point x="180" y="755"/>
      <point x="165" y="770"/>
      <point x="145" y="770" type="curve"/>
      <point x="110" y="770" type="line"/>
      <point x="90" y="770"/>
      <point x="75" y="755"/>
      <point x="75" y="735" type="curve"/>
      <point x="75" y="35" type="line"/>
      <point x="75" y="15"/>
      <point x="90" y="0"/>
      <point x="110" y="0" type="curve"/>
      <point x="145" y="0" type="line"/>
      <point x="165" y="0"/>
      <point x="180" y="15"/>
      <point x="180" y="35" type="curve"/>
      <point x="180" y="229" type="line"/>
      <point x="183" y="226"/>
      <point x="188" y="222"/>
      <point x="193" y="217" type="curve"/>
      <point x="393" y="16" type="line"/>
      <point x="403" y="6"/>
      <point x="416" y="0"/>
      <point x="431" y="0" type="curve"/>
      <point x="489" y="0" type="line"/>
      <point x="519" y="0"/>
      <point x="530" y="27"/>
      <point x="509" y="48" type="curve"/>
    </contour>
    <contour>
      <point x="288" y="570" type="move" name="top"/>
    </contour>
    <contour>
      <point x="288" y="0" type="move" name="bottom"/>
    </contour>
  </outline>
</glyph>
<glyph name="l" format="1">
  <advance width="575"/>
  <unicode hex="006C"/>
  <outline>
    <contour>
      <point x="504" y="44" type="line"/>
      <point x="496" y="70" type="line"/>
      <point x="495" y="71" type="line"/>
      <point x="488" y="89"/>
      <point x="471" y="97"/>
      <point x="452" y="94" type="curve"/>
      <point x="428" y="88"/>
      <point x="405" y="87"/>
      <point x="389" y="87" type="curve" smooth="yes"/>
      <point x="336" y="88"/>
      <point x="320" y="107"/>
      <point x="320" y="160" type="curve" smooth="yes"/>
      <point x="320" y="735" type="line" smooth="yes"/>
      <point x="320" y="756"/>
      <point x="305" y="770"/>
      <point x="285" y="770" type="curve" smooth="yes"/>
      <point x="113" y="770" type="line" smooth="yes"/>
      <point x="93" y="770"/>
      <point x="78" y="756"/>
      <point x="78" y="735" type="curve" smooth="yes"/>
      <point x="78" y="709" type="line" smooth="yes"/>
      <point x="78" y="689"/>
      <point x="93" y="674"/>
      <point x="113" y="674" type="curve" smooth="yes"/>
      <point x="215" y="674" type="line"/>
      <point x="215" y="160" type="line" smooth="yes"/>
      <point x="215" y="46"/>
      <point x="271" y="-10"/>
      <point x="389" y="-10" type="curve" smooth="yes"/>
      <point x="409" y="-10"/>
      <point x="441" y="-9"/>
      <point x="479" y="0" type="curve" smooth="yes"/>
      <point x="501" y="5"/>
      <point x="511" y="26"/>
      <point x="503" y="45" type="curve"/>
    </contour>
    <contour>
      <point x="288" y="700" type="move" name="top"/>
    </contour>
    <contour>
      <point x="288" y="0" type="move" name="bottom"/>
    </contour>
    <contour>
      <point x="565" y="500" type="move" name="topright"/>
    </contour>
  </outline>
</glyph>
<glyph name="m" format="1">
  <advance width="575"/>
  <unicode hex="006D"/>
  <outline>
    <contour>
      <point x="352" y="528"/>
      <point x="318" y="520"/>
      <point x="285" y="506" type="curve"/>
      <point x="262" y="521"/>
      <point x="230" y="528"/>
      <point x="189" y="528" type="curve" smooth="yes"/>
      <point x="159" y="528"/>
      <point x="122" y="524"/>
      <point x="72" y="515" type="curve" smooth="yes"/>
      <point x="52" y="511"/>
      <point x="41" y="497"/>
      <point x="41" y="478" type="curve" smooth="yes"/>
      <point x="41" y="35" type="line" smooth="yes"/>
      <point x="41" y="14"/>
      <point x="55" y="0"/>
      <point x="76" y="0" type="curve" smooth="yes"/>
      <point x="111" y="0" type="line" smooth="yes"/>
      <point x="133" y="0"/>
      <point x="146" y="13"/>
      <point x="146" y="35" type="curve"/>
      <point x="146" y="431" type="line"/>
      <point x="158" y="432"/>
      <point x="167" y="432"/>
      <point x="170" y="432" type="curve" smooth="yes"/>
      <point x="219" y="432"/>
      <point x="235" y="415"/>
      <point x="235" y="360" type="curve" smooth="yes"/>
      <point x="235" y="35" type="line" smooth="yes"/>
      <point x="235" y="14"/>
      <point x="249" y="0"/>
      <point x="270" y="0" type="curve" smooth="yes"/>
      <point x="305" y="0" type="line" smooth="yes"/>
      <point x="327" y="0"/>
      <point x="340" y="13"/>
      <point x="340" y="35" type="curve" smooth="yes"/>
      <point x="340" y="360" type="line" smooth="yes"/>
      <point x="340" y="383"/>
      <point x="339" y="406"/>
      <point x="333" y="430" type="curve"/>
      <point x="349" y="432"/>
      <point x="360" y="432"/>
      <point x="364" y="432" type="curve" smooth="yes"/>
      <point x="413" y="432"/>
      <point x="429" y="415"/>
      <point x="429" y="360" type="curve" smooth="yes"/>
      <point x="429" y="35" type="line" smooth="yes"/>
      <point x="429" y="14"/>
      <point x="443" y="0"/>
      <point x="464" y="0" type="curve" smooth="yes"/>
      <point x="499" y="0" type="line" smooth="yes"/>
      <point x="520" y="0"/>
      <point x="534" y="14"/>
      <point x="534" y="35" type="curve" smooth="yes"/>
      <point x="534" y="362" type="line" smooth="yes"/>
      <point x="534" y="477"/>
      <point x="490" y="528"/>
      <point x="388" y="528" type="curve" smooth="yes"/>
    </contour>
    <contour>
      <point x="288" y="570" type="move" name="top"/>
    </contour>
    <contour>
      <point x="288" y="0" type="move" name="bottom"/>
    </contour>
  </outline>
</glyph>
<glyph name="o" format="2">
	<advance width="575"/>
	<unicode hex="006F"/>
	<anchor x="288" y="560" name="top"/>
	<outline>
		<contour>
			<point x="291" y="532" type="curve" smooth="yes"/>
			<point x="159" y="532"/>
			<point x="75" y="426"/>
			<point x="75" y="260" type="curve" smooth="yes"/>
			<point x="75" y="94"/>
			<point x="159" y="-12"/>
			<point x="291" y="-12" type="curve" smooth="yes"/>
			<point x="421" y="-12"/>
			<point x="500" y="92"/>
			<point x="500" y="260" type="curve" smooth="yes"/>
			<point x="500" y="428"/>
			<point x="421" y="532"/>
		</contour>
		<contour>
			<point x="288" y="85" type="curve" smooth="yes"/>
			<point x="222" y="85"/>
			<point x="180" y="151"/>
			<point x="180" y="260" type="curve" smooth="yes"/>
			<point x="180" y="369"/>
			<point x="222" y="435"/>
			<point x="288" y="435" type="curve" smooth="yes"/>
			<point x="354" y="435"/>
			<point x="395" y="369"/>
			<point x="395" y="260" type="curve" smooth="yes"/>
			<point x="395" y="151"/>
			<point x="354" y="85"/>
		</contour>
	</outline>
</glyph>
<glyph name="p" format="1">
  <advance width="575"/>
  <unicode hex="0070"/>
  <outline>
    <contour>
      <point x="75" y="-215" type="line" smooth="yes"/>
      <point x="75" y="-235"/>
      <point x="90" y="-250"/>
      <point x="110" y="-250" type="curve" smooth="yes"/>
      <point x="145" y="-250" type="line" smooth="yes"/>
      <point x="165" y="-250"/>
      <point x="180" y="-235"/>
      <point x="180" y="-215" type="curve" smooth="yes"/>
      <point x="180" y="-4" type="line"/>
      <point x="202" y="-8"/>
      <point x="225" y="-10"/>
      <point x="247" y="-10" type="curve" smooth="yes"/>
      <point x="376" y="-10"/>
      <point x="500" y="64"/>
      <point x="500" y="260" type="curve" smooth="yes"/>
      <point x="500" y="456"/>
      <point x="376" y="530"/>
      <point x="247" y="530" type="curve" smooth="yes"/>
      <point x="195" y="530"/>
      <point x="142" y="520"/>
      <point x="94" y="500" type="curve" smooth="yes"/>
      <point x="83" y="495"/>
      <point x="75" y="482"/>
      <point x="75" y="470" type="curve" smooth="yes"/>
    </contour>
    <contour>
      <point x="180" y="425" type="line"/>
      <point x="202" y="430"/>
      <point x="223" y="432"/>
      <point x="247" y="432" type="curve" smooth="yes"/>
      <point x="331" y="432"/>
      <point x="394" y="389"/>
      <point x="394" y="260" type="curve" smooth="yes"/>
      <point x="394" y="123"/>
      <point x="321" y="84"/>
      <point x="237" y="84" type="curve" smooth="yes"/>
      <point x="218" y="84"/>
      <point x="199" y="86"/>
      <point x="180" y="89" type="curve"/>
    </contour>
    <contour>
      <point x="288" y="570" type="move" name="top"/>
    </contour>
    <contour>
      <point x="288" y="0" type="move" name="bottom"/>
    </contour>
  </outline>
</glyph>
<glyph name="q" format="1">
  <advance width="575"/>
  <unicode hex="0071"/>
  <outline>
    <component base="b" xOffset="575" yOffset="520" xScale="-1" yScale="-1"/>
    <contour>
      <point x="288" y="520" type="move" name="top"/>
    </contour>
    <contour>
      <point x="288" y="0" type="move" name="bottom"/>
    </contour>
  </outline>
</glyph>
<glyph name="r" format="1">
  <advance width="575"/>
  <unicode hex="0072"/>
  <outline>
    <contour>
      <point x="75" y="35" type="line"/>
      <point x="75" y="15"/>
      <point x="90" y="0"/>
      <point x="110" y="0" type="curve"/>
      <point x="145" y="0" type="line"/>
      <point x="166" y="0"/>
      <point x="180" y="15"/>
      <point x="180" y="35" type="curve"/>
      <point x="180" y="431" type="line"/>
      <point x="221" y="433"/>
      <point x="256" y="434"/>
      <point x="278" y="434" type="curve"/>
      <point x="365" y="434"/>
      <point x="395" y="414"/>
      <point x="395" y="358" type="curve"/>
      <point x="395" y="338"/>
      <point x="410" y="323"/>
      <point x="430" y="323" type="curve"/>
      <point x="465" y="323" type="line"/>
      <point x="486" y="323"/>
      <point x="500" y="337"/>
      <point x="500" y="358" type="curve"/>
      <point x="500" y="482"/>
      <point x="436" y="530"/>
      <point x="278" y="530" type="curve"/>
      <point x="245" y="530"/>
      <point x="180" y="529"/>
      <point x="107" y="518" type="curve"/>
      <point x="88" y="514"/>
      <point x="75" y="500"/>
      <point x="75" y="481" type="curve"/>
    </contour>
    <contour>
      <point x="288" y="570" type="move" name="top"/>
    </contour>
    <contour>
      <point x="288" y="0" type="move" name="bottom"/>
    </contour>
  </outline>
</glyph>
<glyph name="s" format="1">
  <advance width="575"/>
  <unicode hex="0073"/>
  <outline>
    <contour>
      <point x="446" y="476" type="line"/>
      <point x="451" y="497"/>
      <point x="439" y="515"/>
      <point x="419" y="519" type="curve"/>
      <point x="370" y="528"/>
      <point x="325" y="530"/>
      <point x="299" y="530" type="curve"/>
      <point x="171" y="530"/>
      <point x="96" y="474"/>
      <point x="96" y="374" type="curve"/>
      <point x="96" y="291"/>
      <point x="165" y="235"/>
      <point x="282" y="222" type="curve"/>
      <point x="343" y="216"/>
      <point x="375" y="189"/>
      <point x="374" y="151" type="curve"/>
      <point x="374" y="111"/>
      <point x="335" y="87"/>
      <point x="259" y="87" type="curve"/>
      <point x="236" y="87"/>
      <point x="192" y="88"/>
      <point x="141" y="97" type="curve"/>
      <point x="121" y="99"/>
      <point x="104" y="89"/>
      <point x="100" y="69" type="curve"/>
      <point x="94" y="43" type="line"/>
      <point x="89" y="23"/>
      <point x="101" y="5"/>
      <point x="122" y="1" type="curve"/>
      <point x="179" y="-8"/>
      <point x="227" y="-10"/>
      <point x="259" y="-10" type="curve"/>
      <point x="398" y="-10"/>
      <point x="479" y="50"/>
      <point x="479" y="156" type="curve"/>
      <point x="479" y="246"/>
      <point x="411" y="305"/>
      <point x="294" y="319" type="curve"/>
      <point x="233" y="326"/>
      <point x="201" y="348"/>
      <point x="201" y="378" type="curve"/>
      <point x="201" y="411"/>
      <point x="234" y="432"/>
      <point x="299" y="434" type="curve"/>
      <point x="318" y="434"/>
      <point x="355" y="432"/>
      <point x="397" y="425" type="curve"/>
      <point x="417" y="421"/>
      <point x="434" y="432"/>
      <point x="439" y="450" type="curve"/>
    </contour>
    <contour>
      <point x="288" y="570" type="move" name="top"/>
    </contour>
    <contour>
      <point x="288" y="0" type="move" name="bottom"/>
    </contour>
  </outline>
</glyph>
<glyph name="t" format="1">
  <advance width="575"/>
  <unicode hex="0074"/>
  <outline>
    <contour>
      <point x="485" y="82" type="line"/>
      <point x="477" y="101"/>
      <point x="458" y="109"/>
      <point x="439" y="101" type="curve"/>
      <point x="413" y="92"/>
      <point x="392" y="88"/>
      <point x="368" y="88" type="curve"/>
      <point x="315" y="88"/>
      <point x="281" y="113"/>
      <point x="281" y="214" type="curve"/>
      <point x="281" y="424" type="line"/>
      <point x="435" y="424" type="line"/>
      <point x="455" y="424"/>
      <point x="470" y="439"/>
      <point x="470" y="459" type="curve"/>
      <point x="470" y="485" type="line"/>
      <point x="470" y="506"/>
      <point x="455" y="520"/>
      <point x="435" y="520" type="curve"/>
      <point x="281" y="520" type="line"/>
      <point x="281" y="645" type="line"/>
      <point x="281" y="665"/>
      <point x="266" y="680"/>
      <point x="246" y="680" type="curve"/>
      <point x="211" y="680" type="line"/>
      <point x="191" y="680"/>
      <point x="176" y="665"/>
      <point x="176" y="645" type="curve"/>
      <point x="176" y="520" type="line"/>
      <point x="110" y="520" type="line"/>
      <point x="90" y="520"/>
      <point x="75" y="506"/>
      <point x="75" y="485" type="curve"/>
      <point x="75" y="459" type="line"/>
      <point x="75" y="439"/>
      <point x="90" y="424"/>
      <point x="110" y="424" type="curve"/>
      <point x="176" y="424" type="line"/>
      <point x="176" y="214" type="line"/>
      <point x="176" y="47"/>
      <point x="270" y="-10"/>
      <point x="368" y="-10" type="curve"/>
      <point x="404" y="-10"/>
      <point x="443" y="-2"/>
      <point x="476" y="11" type="curve"/>
      <point x="497" y="17"/>
      <point x="504" y="37"/>
      <point x="496" y="56" type="curve"/>
    </contour>
    <contour>
      <point x="288" y="0" type="move" name="bottom"/>
    </contour>
    <contour>
      <point x="288" y="520" type="move" name="top"/>
    </contour>
    <contour>
      <point x="555" y="520" type="move" name="topright"/>
    </contour>
    <contour>
      <point x="288" y="250" type="move" name="center"/>
    </contour>
  </outline>
</glyph>
<glyph name="u" format="1">
  <advance width="575"/>
  <unicode hex="0075"/>
  <outline>
    <contour>
      <point x="500" y="485" type="line"/>
      <point x="500" y="505"/>
      <point x="485" y="520"/>
      <point x="465" y="520" type="curve"/>
      <point x="430" y="520" type="line"/>
      <point x="409" y="520"/>
      <point x="395" y="505"/>
      <point x="395" y="485" type="curve"/>
      <point x="395" y="89" type="line"/>
      <point x="354" y="87"/>
      <point x="319" y="86"/>
      <point x="297" y="86" type="curve"/>
      <point x="212" y="86"/>
      <point x="180" y="115"/>
      <point x="180" y="202" type="curve"/>
      <point x="180" y="485" type="line"/>
      <point x="180" y="505"/>
      <point x="165" y="520"/>
      <point x="145" y="520" type="curve"/>
      <point x="110" y="520" type="line"/>
      <point x="89" y="520"/>
      <point x="75" y="505"/>
      <point x="75" y="485" type="curve"/>
      <point x="75" y="202" type="line"/>
      <point x="75" y="51"/>
      <point x="145" y="-10"/>
      <point x="297" y="-10" type="curve"/>
      <point x="330" y="-10"/>
      <point x="395" y="-9"/>
      <point x="468" y="2" type="curve"/>
      <point x="487" y="6"/>
      <point x="500" y="20"/>
      <point x="500" y="39" type="curve"/>
    </contour>
    <contour>
      <point x="518" y="5" type="move" name="ogonek"/>
    </contour>
    <contour>
      <point x="287" y="-50" type="move" name="bottom"/>
    </contour>
    <contour>
      <point x="288" y="570" type="move" name="top"/>
    </contour>
  </outline>
</glyph>
<glyph name="v" format="2">
	<advance width="575"/>
	<unicode hex="0076"/>
	<anchor x="288" y="560" name="top"/>
	<outline>
		<contour>
			<point x="414" y="491" type="curve" smooth="yes"/>
			<point x="317" y="105" type="line"/>
			<point x="314" y="94"/>
			<point x="303" y="86"/>
			<point x="288" y="86" type="curve" smooth="yes"/>
			<point x="273" y="86"/>
			<point x="262" y="94"/>
			<point x="259" y="105" type="curve" smooth="yes"/>
			<point x="162" y="490" type="line" smooth="yes"/>
			<point x="157" y="510"/>
			<point x="144" y="520"/>
			<point x="125" y="520" type="curve" smooth="yes"/>
			<point x="89" y="520" type="line" smooth="yes"/>
			<point x="65" y="520"/>
			<point x="51" y="504"/>
			<point x="57" y="480" type="curve" smooth="yes"/>
			<point x="155" y="87" type="line" smooth="yes"/>
			<point x="170" y="27"/>
			<point x="222" y="-10"/>
			<point x="288" y="-10" type="curve" smooth="yes"/>
			<point x="355" y="-10"/>
			<point x="405" y="27"/>
			<point x="420" y="87" type="curve" smooth="yes"/>
			<point x="518" y="480" type="line" smooth="yes"/>
			<point x="524" y="504"/>
			<point x="510" y="520"/>
			<point x="486" y="520" type="curve" smooth="yes"/>
			<point x="451" y="520" type="line" smooth="yes"/>
			<point x="432" y="520"/>
			<point x="419" y="510"/>
		</contour>
	</outline>
</glyph>
<glyph name="w" format="1">
  <advance width="575"/>
  <unicode hex="0077"/>
  <outline>
    <contour>
      <point x="555" y="484" type="line"/>
      <point x="555" y="504"/>
      <point x="539" y="520"/>
      <point x="519" y="520" type="curve" smooth="yes"/>
      <point x="485" y="520" type="line" smooth="yes"/>
      <point x="465" y="520"/>
      <point x="451" y="506"/>
      <point x="450" y="485" type="curve" smooth="yes"/>
      <point x="434" y="178" type="line"/>
      <point x="340" y="366" type="line" smooth="yes"/>
      <point x="333" y="382"/>
      <point x="320" y="390"/>
      <point x="302" y="390" type="curve" smooth="yes"/>
      <point x="274" y="390" type="line" smooth="yes"/>
      <point x="256" y="390"/>
      <point x="243" y="382"/>
      <point x="236" y="366" type="curve" smooth="yes"/>
      <point x="142" y="178" type="line"/>
      <point x="126" y="485" type="line" smooth="yes"/>
      <point x="125" y="506"/>
      <point x="111" y="520"/>
      <point x="91" y="520" type="curve" smooth="yes"/>
      <point x="57" y="520" type="line" smooth="yes"/>
      <point x="36" y="520"/>
      <point x="20" y="504"/>
      <point x="21" y="483" type="curve" smooth="yes"/>
      <point x="41" y="30" type="line" smooth="yes"/>
      <point x="42" y="7"/>
      <point x="56" y="-5"/>
      <point x="78" y="-5" type="curve" smooth="yes"/>
      <point x="94" y="-5" type="line" smooth="yes"/>
      <point x="126" y="-5"/>
      <point x="149" y="9"/>
      <point x="162" y="37" type="curve" smooth="yes"/>
      <point x="288" y="289" type="line"/>
      <point x="414" y="37" type="line" smooth="yes"/>
      <point x="427" y="9"/>
      <point x="450" y="-5"/>
      <point x="482" y="-5" type="curve" smooth="yes"/>
      <point x="498" y="-5" type="line" smooth="yes"/>
      <point x="521" y="-5"/>
      <point x="535" y="8"/>
      <point x="535" y="30" type="curve"/>
    </contour>
    <contour>
      <point x="288" y="570" type="move" name="top"/>
    </contour>
  </outline>
</glyph>
<glyph name="x" format="1">
  <advance width="575"/>
  <unicode hex="0078"/>
  <outline>
    <contour>
      <point x="489" y="477" type="line"/>
      <point x="499" y="498"/>
      <point x="487" y="520"/>
      <point x="462" y="520" type="curve"/>
      <point x="429" y="520" type="line"/>
      <point x="413" y="520"/>
      <point x="397" y="512"/>
      <point x="390" y="496" type="curve"/>
      <point x="309" y="333" type="line"/>
      <point x="299" y="314"/>
      <point x="297" y="309"/>
      <point x="287" y="309" type="curve"/>
      <point x="279" y="309"/>
      <point x="277" y="313"/>
      <point x="267" y="333" type="curve"/>
      <point x="185" y="496" type="line"/>
      <point x="178" y="512"/>
      <point x="164" y="520"/>
      <point x="147" y="520" type="curve"/>
      <point x="114" y="520" type="line"/>
      <point x="90" y="520"/>
      <point x="76" y="499"/>
      <point x="86" y="477" type="curve"/>
      <point x="174" y="296" type="line"/>
      <point x="179" y="285"/>
      <point x="188" y="275"/>
      <point x="199" y="267" type="curve"/>
      <point x="188" y="260"/>
      <point x="179" y="249"/>
      <point x="174" y="239" type="curve"/>
      <point x="80" y="44" type="line"/>
      <point x="68" y="21"/>
      <point x="83" y="0"/>
      <point x="107" y="0" type="curve"/>
      <point x="140" y="0" type="line"/>
      <point x="157" y="0"/>
      <point x="171" y="9"/>
      <point x="178" y="24" type="curve"/>
      <point x="267" y="201" type="line"/>
      <point x="277" y="221"/>
      <point x="279" y="225"/>
      <point x="288" y="225" type="curve"/>
      <point x="297" y="225"/>
      <point x="299" y="221"/>
      <point x="309" y="201" type="curve"/>
      <point x="397" y="24" type="line"/>
      <point x="404" y="9"/>
      <point x="419" y="0"/>
      <point x="436" y="0" type="curve"/>
      <point x="468" y="0" type="line"/>
      <point x="494" y="0"/>
      <point x="506" y="21"/>
      <point x="496" y="44" type="curve"/>
      <point x="402" y="239" type="line"/>
      <point x="397" y="249"/>
      <point x="387" y="260"/>
      <point x="376" y="267" type="curve"/>
      <point x="387" y="275"/>
      <point x="397" y="285"/>
      <point x="402" y="296" type="curve"/>
    </contour>
  </outline>
</glyph>
<glyph name="y" format="1">
  <advance width="575"/>
  <unicode hex="0079"/>
  <outline>
    <contour>
      <point x="451" y="520" type="line" smooth="yes"/>
      <point x="433" y="520"/>
      <point x="418" y="509"/>
      <point x="413" y="492" type="curve"/>
      <point x="311" y="83" type="line"/>
      <point x="288" y="83" type="line" smooth="yes"/>
      <point x="271" y="83"/>
      <point x="262" y="90"/>
      <point x="259" y="105" type="curve"/>
      <point x="162" y="491" type="line" smooth="yes"/>
      <point x="158" y="509"/>
      <point x="143" y="520"/>
      <point x="125" y="520" type="curve" smooth="yes"/>
      <point x="89" y="520" type="line" smooth="yes"/>
      <point x="66" y="520"/>
      <point x="52" y="503"/>
      <point x="57" y="480" type="curve" smooth="yes"/>
      <point x="155" y="88" type="line" smooth="yes"/>
      <point x="171" y="26"/>
      <point x="220" y="-10"/>
      <point x="288" y="-10" type="curve"/>
      <point x="261" y="-111"/>
      <point x="224" y="-151"/>
      <point x="164" y="-151" type="curve" smooth="yes"/>
      <point x="141" y="-151"/>
      <point x="101" y="-145"/>
      <point x="71" y="-135" type="curve"/>
      <point x="53" y="-127"/>
      <point x="33" y="-137"/>
      <point x="27" y="-156" type="curve"/>
      <point x="18" y="-181" type="line" smooth="yes"/>
      <point x="11" y="-200"/>
      <point x="20" y="-218"/>
      <point x="38" y="-225" type="curve" smooth="yes"/>
      <point x="84" y="-242"/>
      <point x="127" y="-250"/>
      <point x="164" y="-250" type="curve" smooth="yes"/>
      <point x="284" y="-250"/>
      <point x="352" y="-177"/>
      <point x="394" y="-12" type="curve" smooth="yes"/>
      <point x="518" y="480" type="line" smooth="yes"/>
      <point x="523" y="501"/>
      <point x="509" y="520"/>
      <point x="487" y="520" type="curve" smooth="yes"/>
    </contour>
    <contour>
      <point x="288" y="570" type="move" name="top"/>
    </contour>
  </outline>
</glyph>
<glyph name="z" format="2">
	<advance width="575"/>
	<unicode hex="007A"/>
	<anchor x="288" y="570" name="top"/>
	<outline>
		<contour>
			<point x="465" y="97" type="curve" smooth="yes"/>
			<point x="195" y="97" type="line"/>
			<point x="470" y="372" type="line" smooth="yes"/>
			<point x="490" y="392"/>
			<point x="499" y="413"/>
			<point x="499" y="441" type="curve" smooth="yes"/>
			<point x="499" y="485" type="line" smooth="yes"/>
			<point x="499" y="507"/>
			<point x="486" y="520"/>
			<point x="465" y="520" type="curve" smooth="yes"/>
			<point x="131" y="520" type="line" smooth="yes"/>
			<point x="109" y="520"/>
			<point x="96" y="507"/>
			<point x="96" y="485" type="curve" smooth="yes"/>
			<point x="96" y="459" type="line" smooth="yes"/>
			<point x="96" y="438"/>
			<point x="110" y="424"/>
			<point x="131" y="424" type="curve" smooth="yes"/>
			<point x="380" y="424" type="line"/>
			<point x="105" y="149" type="line" smooth="yes"/>
			<point x="85" y="129"/>
			<point x="76" y="108"/>
			<point x="76" y="80" type="curve" smooth="yes"/>
			<point x="76" y="35" type="line" smooth="yes"/>
			<point x="76" y="13"/>
			<point x="89" y="0"/>
			<point x="110" y="0" type="curve" smooth="yes"/>
			<point x="465" y="0" type="line" smooth="yes"/>
			<point x="487" y="0"/>
			<point x="500" y="13"/>
			<point x="500" y="35" type="curve" smooth="yes"/>
			<point x="500" y="62" type="line" smooth="yes"/>
			<point x="500" y="84"/>
			<point x="487" y="97"/>
		</contour>
	</outline>
</glyph>
<glyph name="braceleft" format="1">
  <advance width="575"/>
  <unicode hex="007B"/>
  <outline>
    <contour>
      <point x="340" y="595" type="line" smooth="yes"/>
      <point x="340" y="654"/>
      <point x="358" y="674"/>
      <point x="410" y="674" type="curve" smooth="yes"/>
      <point x="491" y="674" type="line" smooth="yes"/>
      <point x="513" y="674"/>
      <point x="526" y="687"/>
      <point x="526" y="709" type="curve" smooth="yes"/>
      <point x="526" y="735" type="line" smooth="yes"/>
      <point x="526" y="756"/>
      <point x="512" y="770"/>
      <point x="491" y="770" type="curve" smooth="yes"/>
      <point x="410" y="770" type="line" smooth="yes"/>
      <point x="287" y="770"/>
      <point x="235" y="718"/>
      <point x="235" y="595" type="curve" smooth="yes"/>
      <point x="235" y="419" type="line" smooth="yes"/>
      <point x="235" y="364"/>
      <point x="217" y="344"/>
      <point x="165" y="344" type="curve" smooth="yes"/>
      <point x="85" y="344" type="line" smooth="yes"/>
      <point x="63" y="344"/>
      <point x="50" y="331"/>
      <point x="50" y="309" type="curve" smooth="yes"/>
      <point x="50" y="283" type="line" smooth="yes"/>
      <point x="50" y="262"/>
      <point x="64" y="248"/>
      <point x="85" y="248" type="curve" smooth="yes"/>
      <point x="165" y="248" type="line" smooth="yes"/>
      <point x="217" y="248"/>
      <point x="235" y="229"/>
      <point x="235" y="174" type="curve" smooth="yes"/>
      <point x="235" y="-3" type="line" smooth="yes"/>
      <point x="235" y="-126"/>
      <point x="287" y="-178"/>
      <point x="410" y="-178" type="curve" smooth="yes"/>
      <point x="491" y="-178" type="line" smooth="yes"/>
      <point x="513" y="-178"/>
      <point x="526" y="-165"/>
      <point x="526" y="-143" type="curve" smooth="yes"/>
      <point x="526" y="-117" type="line" smooth="yes"/>
      <point x="526" y="-96"/>
      <point x="512" y="-82"/>
      <point x="491" y="-82" type="curve" smooth="yes"/>
      <point x="410" y="-82" type="line" smooth="yes"/>
      <point x="358" y="-82"/>
      <point x="340" y="-62"/>
      <point x="340" y="-3" type="curve" smooth="yes"/>
      <point x="340" y="174" type="line" smooth="yes"/>
      <point x="340" y="220"/>
      <point x="333" y="266"/>
      <point x="285" y="296" type="curve"/>
      <point x="333" y="326"/>
      <point x="340" y="369"/>
      <point x="340" y="419" type="curve" smooth="yes"/>
    </contour>
  </outline>
</glyph>
<glyph name="bar" format="1">
  <advance width="575"/>
  <unicode hex="007C"/>
  <outline>
    <contour>
      <point x="270" y="770" type="line"/>
      <point x="250" y="770"/>
      <point x="235" y="755"/>
      <point x="235" y="735" type="curve"/>
      <point x="235" y="-143" type="line"/>
      <point x="235" y="-164"/>
      <point x="250" y="-178"/>
      <point x="270" y="-178" type="curve"/>
      <point x="305" y="-178" type="line"/>
      <point x="326" y="-178"/>
      <point x="340" y="-163"/>
      <point x="340" y="-143" type="curve"/>
      <point x="340" y="735" type="line"/>
      <point x="340" y="756"/>
      <point x="325" y="770"/>
      <point x="305" y="770" type="curve"/>
    </contour>
  </outline>
</glyph>
<glyph name="braceright" format="1">
  <advance width="575"/>
  <unicode hex="007D"/>
  <outline>
    <contour>
      <point x="235" y="369"/>
      <point x="242" y="326"/>
      <point x="290" y="296" type="curve"/>
      <point x="242" y="266"/>
      <point x="235" y="220"/>
      <point x="235" y="174" type="curve" smooth="yes"/>
      <point x="235" y="-3" type="line" smooth="yes"/>
      <point x="235" y="-62"/>
      <point x="217" y="-82"/>
      <point x="165" y="-82" type="curve" smooth="yes"/>
      <point x="84" y="-82" type="line" smooth="yes"/>
      <point x="63" y="-82"/>
      <point x="49" y="-96"/>
      <point x="49" y="-117" type="curve" smooth="yes"/>
      <point x="49" y="-143" type="line" smooth="yes"/>
      <point x="49" y="-165"/>
      <point x="62" y="-178"/>
      <point x="84" y="-178" type="curve" smooth="yes"/>
      <point x="165" y="-178" type="line" smooth="yes"/>
      <point x="288" y="-178"/>
      <point x="340" y="-126"/>
      <point x="340" y="-3" type="curve" smooth="yes"/>
      <point x="340" y="174" type="line" smooth="yes"/>
      <point x="340" y="229"/>
      <point x="358" y="248"/>
      <point x="410" y="248" type="curve" smooth="yes"/>
      <point x="490" y="248" type="line" smooth="yes"/>
      <point x="511" y="248"/>
      <point x="525" y="262"/>
      <point x="525" y="283" type="curve" smooth="yes"/>
      <point x="525" y="309" type="line" smooth="yes"/>
      <point x="525" y="331"/>
      <point x="512" y="344"/>
      <point x="490" y="344" type="curve" smooth="yes"/>
      <point x="410" y="344" type="line" smooth="yes"/>
      <point x="358" y="344"/>
      <point x="340" y="364"/>
      <point x="340" y="419" type="curve" smooth="yes"/>
      <point x="340" y="595" type="line" smooth="yes"/>
      <point x="340" y="718"/>
      <point x="288" y="770"/>
      <point x="165" y="770" type="curve" smooth="yes"/>
      <point x="84" y="770" type="line" smooth="yes"/>
      <point x="63" y="770"/>
      <point x="49" y="756"/>
      <point x="49" y="735" type="curve" smooth="yes"/>
      <point x="49" y="709" type="line" smooth="yes"/>
      <point x="49" y="687"/>
      <point x="62" y="674"/>
      <point x="84" y="674" type="curve" smooth="yes"/>
      <point x="165" y="674" type="line" smooth="yes"/>
      <point x="217" y="674"/>
      <point x="235" y="654"/>
      <point x="235" y="595" type="curve" smooth="yes"/>
      <point x="235" y="419" type="line" smooth="yes"/>
    </contour>
  </outline>
</glyph>
<glyph name="asciitilde" format="1">
  <advance width="575"/>
  <unicode hex="007E"/>
  <outline>
    <contour>
      <point x="486" y="328" type="line"/>
      <point x="465" y="328"/>
      <point x="449" y="315"/>
      <point x="449" y="296" type="curve"/>
      <point x="449" y="256"/>
      <point x="435" y="236"/>
      <point x="412" y="236" type="curve"/>
      <point x="391" y="236"/>
      <point x="360" y="256"/>
      <point x="322" y="294" type="curve"/>
      <point x="267" y="349"/>
      <point x="210" y="381"/>
      <point x="164" y="381" type="curve"/>
      <point x="77" y="381"/>
      <point x="27" y="324"/>
      <point x="27" y="229" type="curve"/>
      <point x="27" y="208"/>
      <point x="42" y="193"/>
      <point x="61" y="193" type="curve"/>
      <point x="89" y="193" type="line"/>
      <point x="111" y="193"/>
      <point x="126" y="207"/>
      <point x="126" y="225" type="curve"/>
      <point x="126" y="265"/>
      <point x="140" y="284"/>
      <point x="164" y="284" type="curve"/>
      <point x="184" y="284"/>
      <point x="215" y="265"/>
      <point x="254" y="226" type="curve"/>
      <point x="309" y="171"/>
      <point x="365" y="140"/>
      <point x="412" y="140" type="curve"/>
      <point x="497" y="140"/>
      <point x="548" y="196"/>
      <point x="548" y="292" type="curve"/>
      <point x="548" y="313"/>
      <point x="534" y="328"/>
      <point x="515" y="328" type="curve"/>
    </contour>
  </outline>
</glyph>
<glyph name="cent" format="2">
	<advance width="575"/>
	<unicode hex="00A2"/>
	<outline>
		<contour>
			<point x="248" y="653" type="curve"/>
			<point x="248" y="455" type="line"/>
			<point x="353" y="471" type="line"/>
			<point x="353" y="653" type="line"/>
			<point x="353" y="674"/>
			<point x="338" y="688"/>
			<point x="318" y="688" type="curve"/>
			<point x="283" y="688" type="line"/>
			<point x="263" y="688"/>
			<point x="248" y="674"/>
		</contour>
		<contour>
			<point x="353" y="-153" type="curve"/>
			<point x="353" y="40" type="line"/>
			<point x="248" y="56" type="line"/>
			<point x="248" y="-153" type="line"/>
			<point x="248" y="-174"/>
			<point x="263" y="-188"/>
			<point x="283" y="-188" type="curve"/>
			<point x="318" y="-188" type="line"/>
			<point x="338" y="-188"/>
			<point x="353" y="-174"/>
		</contour>
		<component base="c"/>
	</outline>
</glyph>
<glyph name="sterling" format="1">
  <advance width="575"/>
  <unicode hex="00A3"/>
  <outline>
    <contour>
      <point x="465" y="518" type="line"/>
      <point x="485" y="518"/>
      <point x="500" y="533"/>
      <point x="500" y="554" type="curve"/>
      <point x="499" y="644"/>
      <point x="453" y="730"/>
      <point x="327" y="730" type="curve"/>
      <point x="232" y="730"/>
      <point x="154" y="679"/>
      <point x="154" y="548" type="curve"/>
      <point x="154" y="409" type="line"/>
      <point x="110" y="409" type="line"/>
      <point x="90" y="409"/>
      <point x="75" y="394"/>
      <point x="75" y="373" type="curve"/>
      <point x="75" y="347" type="line"/>
      <point x="75" y="327"/>
      <point x="90" y="312"/>
      <point x="110" y="312" type="curve"/>
      <point x="154" y="312" type="line"/>
      <point x="154" y="97" type="line"/>
      <point x="110" y="97" type="line"/>
      <point x="90" y="97"/>
      <point x="75" y="82"/>
      <point x="75" y="62" type="curve"/>
      <point x="75" y="35" type="line"/>
      <point x="75" y="15"/>
      <point x="90" y="0"/>
      <point x="110" y="0" type="curve"/>
      <point x="465" y="0" type="line"/>
      <point x="486" y="0"/>
      <point x="500" y="15"/>
      <point x="500" y="35" type="curve"/>
      <point x="500" y="62" type="line"/>
      <point x="500" y="82"/>
      <point x="486" y="97"/>
      <point x="465" y="97" type="curve"/>
      <point x="259" y="97" type="line"/>
      <point x="259" y="312" type="line"/>
      <point x="425" y="312" type="line"/>
      <point x="445" y="312"/>
      <point x="460" y="327"/>
      <point x="460" y="347" type="curve"/>
      <point x="460" y="374" type="line"/>
      <point x="460" y="394"/>
      <point x="445" y="409"/>
      <point x="425" y="409" type="curve"/>
      <point x="259" y="409" type="line"/>
      <point x="259" y="548" type="line"/>
      <point x="259" y="604"/>
      <point x="288" y="634"/>
      <point x="327" y="634" type="curve"/>
      <point x="377" y="634"/>
      <point x="394" y="596"/>
      <point x="395" y="554" type="curve"/>
      <point x="395" y="533"/>
      <point x="410" y="518"/>
      <point x="430" y="518" type="curve"/>
    </contour>
  </outline>
</glyph>
<glyph name="currency" format="2">
	<advance width="575"/>
	<unicode hex="00A4"/>
	<outline>
		<contour>
			<point x="467" y="358" type="curve"/>
			<point x="543" y="435" type="line"/>
			<point x="558" y="449"/>
			<point x="558" y="471"/>
			<point x="541" y="485" type="curve"/>
			<point x="519" y="505" type="line"/>
			<point x="504" y="518"/>
			<point x="484" y="518"/>
			<point x="470" y="504" type="curve"/>
			<point x="396" y="430" type="line"/>
			<point x="363" y="449"/>
			<point x="325" y="459"/>
			<point x="288" y="459" type="curve"/>
			<point x="250" y="459"/>
			<point x="212" y="449"/>
			<point x="180" y="430" type="curve"/>
			<point x="106" y="504" type="line"/>
			<point x="91" y="518"/>
			<point x="71" y="518"/>
			<point x="56" y="504" type="curve"/>
			<point x="33" y="485" type="line"/>
			<point x="18" y="470"/>
			<point x="18" y="449"/>
			<point x="32" y="435" type="curve"/>
			<point x="108" y="358" type="line"/>
			<point x="89" y="326"/>
			<point x="79" y="288"/>
			<point x="79" y="250" type="curve"/>
			<point x="79" y="213"/>
			<point x="89" y="175"/>
			<point x="108" y="142" type="curve"/>
			<point x="32" y="66" type="line"/>
			<point x="18" y="51"/>
			<point x="18" y="31"/>
			<point x="33" y="17" type="curve"/>
			<point x="56" y="-4" type="line"/>
			<point x="71" y="-18"/>
			<point x="91" y="-18"/>
			<point x="106" y="-3" type="curve"/>
			<point x="180" y="71" type="line"/>
			<point x="212" y="52"/>
			<point x="250" y="41"/>
			<point x="288" y="41" type="curve"/>
			<point x="325" y="41"/>
			<point x="364" y="52"/>
			<point x="396" y="71" type="curve"/>
			<point x="470" y="-3" type="line"/>
			<point x="484" y="-18"/>
			<point x="504" y="-18"/>
			<point x="519" y="-4" type="curve"/>
			<point x="542" y="17" type="line"/>
			<point x="558" y="30"/>
			<point x="558" y="51"/>
			<point x="543" y="66" type="curve"/>
			<point x="467" y="142" type="line"/>
			<point x="486" y="174"/>
			<point x="497" y="213"/>
			<point x="497" y="250" type="curve"/>
			<point x="497" y="288"/>
			<point x="486" y="326"/>
		</contour>
		<contour>
			<point x="288" y="138" type="curve"/>
			<point x="226" y="138"/>
			<point x="175" y="188"/>
			<point x="175" y="250" type="curve"/>
			<point x="175" y="312"/>
			<point x="226" y="363"/>
			<point x="288" y="363" type="curve"/>
			<point x="350" y="363"/>
			<point x="400" y="312"/>
			<point x="400" y="250" type="curve"/>
			<point x="400" y="188"/>
			<point x="350" y="138"/>
		</contour>
	</outline>
</glyph>
<glyph name="yen" format="2">
	<advance width="575"/>
	<unicode hex="00A5"/>
	<outline>
		<contour>
			<point x="532" y="720" type="curve"/>
			<point x="496" y="720" type="line"/>
			<point x="480" y="720"/>
			<point x="464" y="712"/>
			<point x="457" y="696" type="curve"/>
			<point x="321" y="424" type="line"/>
			<point x="313" y="408"/>
			<point x="303" y="400"/>
			<point x="288" y="400" type="curve"/>
			<point x="273" y="400"/>
			<point x="263" y="408"/>
			<point x="254" y="425" type="curve"/>
			<point x="118" y="696" type="line"/>
			<point x="111" y="712"/>
			<point x="97" y="720"/>
			<point x="80" y="720" type="curve"/>
			<point x="43" y="720" type="line"/>
			<point x="19" y="720"/>
			<point x="4" y="699"/>
			<point x="16" y="676" type="curve"/>
			<point x="136" y="436" type="line"/>
			<point x="98" y="436" type="line"/>
			<point x="78" y="436"/>
			<point x="63" y="422"/>
			<point x="63" y="401" type="curve"/>
			<point x="63" y="380" type="line"/>
			<point x="63" y="360"/>
			<point x="78" y="345"/>
			<point x="98" y="345" type="curve"/>
			<point x="478" y="345" type="line"/>
			<point x="498" y="345"/>
			<point x="513" y="360"/>
			<point x="513" y="380" type="curve"/>
			<point x="513" y="401" type="line"/>
			<point x="513" y="422"/>
			<point x="498" y="436"/>
			<point x="478" y="436" type="curve"/>
			<point x="439" y="436" type="line"/>
			<point x="559" y="677" type="line"/>
			<point x="570" y="698"/>
			<point x="558" y="720"/>
		</contour>
		<contour>
			<point x="478" y="295" type="curve"/>
			<point x="98" y="295" type="line"/>
			<point x="78" y="295"/>
			<point x="63" y="281"/>
			<point x="63" y="260" type="curve"/>
			<point x="63" y="239" type="line"/>
			<point x="63" y="219"/>
			<point x="78" y="204"/>
			<point x="98" y="204" type="curve"/>
			<point x="235" y="204" type="line"/>
			<point x="235" y="35" type="line"/>
			<point x="235" y="15"/>
			<point x="250" y="0"/>
			<point x="270" y="0" type="curve"/>
			<point x="305" y="0" type="line"/>
			<point x="325" y="0"/>
			<point x="340" y="15"/>
			<point x="340" y="35" type="curve"/>
			<point x="340" y="204" type="line"/>
			<point x="478" y="204" type="line"/>
			<point x="498" y="204"/>
			<point x="513" y="219"/>
			<point x="513" y="239" type="curve"/>
			<point x="513" y="260" type="line"/>
			<point x="513" y="281"/>
			<point x="498" y="295"/>
		</contour>
	</outline>
</glyph>
<glyph name="brokenbar" format="1">
  <advance width="575"/>
  <unicode hex="00A6"/>
  <outline>
    <contour>
      <point x="305" y="-178" type="line"/>
      <point x="326" y="-178"/>
      <point x="340" y="-163"/>
      <point x="340" y="-143" type="curve"/>
      <point x="340" y="178" type="line"/>
      <point x="340" y="199"/>
      <point x="325" y="213"/>
      <point x="305" y="213" type="curve"/>
      <point x="270" y="213" type="line"/>
      <point x="250" y="213"/>
      <point x="235" y="199"/>
      <point x="235" y="178" type="curve"/>
      <point x="235" y="-143" type="line"/>
      <point x="235" y="-164"/>
      <point x="250" y="-178"/>
      <point x="270" y="-178" type="curve"/>
    </contour>
    <contour>
      <point x="305" y="379" type="line"/>
      <point x="325" y="379"/>
      <point x="340" y="394"/>
      <point x="340" y="414" type="curve"/>
      <point x="340" y="735" type="line"/>
      <point x="340" y="756"/>
      <point x="326" y="770"/>
      <point x="305" y="770" type="curve"/>
      <point x="270" y="770" type="line"/>
      <point x="250" y="770"/>
      <point x="235" y="755"/>
      <point x="235" y="735" type="curve"/>
      <point x="235" y="414" type="line"/>
      <point x="235" y="394"/>
      <point x="250" y="379"/>
      <point x="270" y="379" type="curve"/>
    </contour>
  </outline>
</glyph>
<glyph name="section" format="1">
  <advance width="575"/>
  <unicode hex="00A7"/>
  <outline>
    <contour>
      <point x="452" y="233"/>
      <point x="479" y="271"/>
      <point x="479" y="321" type="curve" smooth="yes"/>
      <point x="479" y="396"/>
      <point x="428" y="439"/>
      <point x="301" y="479" type="curve"/>
      <point x="236" y="497"/>
      <point x="201" y="530"/>
      <point x="201" y="568" type="curve" smooth="yes"/>
      <point x="201" y="601"/>
      <point x="234" y="622"/>
      <point x="299" y="624" type="curve" smooth="yes"/>
      <point x="318" y="624"/>
      <point x="355" y="622"/>
      <point x="397" y="615" type="curve" smooth="yes"/>
      <point x="417" y="611"/>
      <point x="434" y="622"/>
      <point x="439" y="640" type="curve" smooth="yes"/>
      <point x="446" y="666" type="line" smooth="yes"/>
      <point x="451" y="687"/>
      <point x="439" y="705"/>
      <point x="419" y="709" type="curve" smooth="yes"/>
      <point x="370" y="718"/>
      <point x="325" y="720"/>
      <point x="299" y="720" type="curve" smooth="yes"/>
      <point x="171" y="720"/>
      <point x="96" y="664"/>
      <point x="96" y="564" type="curve" smooth="yes"/>
      <point x="96" y="511"/>
      <point x="123" y="465"/>
      <point x="173" y="430" type="curve"/>
      <point x="123" y="407"/>
      <point x="96" y="370"/>
      <point x="96" y="320" type="curve" smooth="yes"/>
      <point x="96" y="245"/>
      <point x="147" y="201"/>
      <point x="275" y="162" type="curve" smooth="yes"/>
      <point x="342" y="142"/>
      <point x="374" y="112"/>
      <point x="374" y="73" type="curve" smooth="yes"/>
      <point x="374" y="40"/>
      <point x="338" y="18"/>
      <point x="267" y="17" type="curve" smooth="yes"/>
      <point x="247" y="17"/>
      <point x="195" y="18"/>
      <point x="154" y="26" type="curve"/>
      <point x="134" y="29"/>
      <point x="116" y="20"/>
      <point x="111" y="-1" type="curve" smooth="yes"/>
      <point x="105" y="-27" type="line" smooth="yes"/>
      <point x="100" y="-46"/>
      <point x="111" y="-65"/>
      <point x="132" y="-69" type="curve" smooth="yes"/>
      <point x="181" y="-78"/>
      <point x="241" y="-80"/>
      <point x="267" y="-80" type="curve" smooth="yes"/>
      <point x="401" y="-80"/>
      <point x="479" y="-24"/>
      <point x="479" y="76" type="curve" smooth="yes"/>
      <point x="479" y="130"/>
      <point x="452" y="176"/>
      <point x="402" y="211" type="curve"/>
    </contour>
    <contour>
      <point x="261" y="387"/>
      <point x="268" y="385"/>
      <point x="275" y="382" type="curve"/>
      <point x="349" y="361"/>
      <point x="375" y="339"/>
      <point x="374" y="306" type="curve" smooth="yes"/>
      <point x="374" y="284"/>
      <point x="355" y="265"/>
      <point x="317" y="252" type="curve"/>
      <point x="301" y="258" type="line"/>
      <point x="226" y="279"/>
      <point x="201" y="301"/>
      <point x="201" y="335" type="curve" smooth="yes"/>
      <point x="201" y="358"/>
      <point x="219" y="377"/>
      <point x="254" y="389" type="curve"/>
    </contour>
  </outline>
</glyph>
<glyph name="dieresis" format="2">
	<advance width="575"/>
	<unicode hex="00A8"/>
	<anchor x="288" y="500" name="_top"/>
	<outline>
		<contour>
			<point x="227" y="629" type="curve" smooth="yes"/>
			<point x="227" y="675" type="line" smooth="yes"/>
			<point x="227" y="691"/>
			<point x="219" y="700"/>
			<point x="202" y="700" type="curve" smooth="yes"/>
			<point x="167" y="700" type="line" smooth="yes"/>
			<point x="151" y="700"/>
			<point x="142" y="691"/>
			<point x="142" y="675" type="curve" smooth="yes"/>
			<point x="142" y="629" type="line" smooth="yes"/>
			<point x="142" y="613"/>
			<point x="151" y="604"/>
			<point x="167" y="604" type="curve" smooth="yes"/>
			<point x="202" y="604" type="line" smooth="yes"/>
			<point x="219" y="604"/>
			<point x="227" y="612"/>
		</contour>
		<contour>
			<point x="434" y="629" type="curve" smooth="yes"/>
			<point x="434" y="675" type="line" smooth="yes"/>
			<point x="434" y="691"/>
			<point x="425" y="700"/>
			<point x="409" y="700" type="curve" smooth="yes"/>
			<point x="374" y="700" type="line" smooth="yes"/>
			<point x="358" y="700"/>
			<point x="349" y="691"/>
			<point x="349" y="675" type="curve" smooth="yes"/>
			<point x="349" y="629" type="line" smooth="yes"/>
			<point x="349" y="613"/>
			<point x="357" y="604"/>
			<point x="374" y="604" type="curve" smooth="yes"/>
			<point x="409" y="604" type="line" smooth="yes"/>
			<point x="425" y="604"/>
			<point x="434" y="612"/>
		</contour>
	</outline>
</glyph>
<glyph name="copyright" format="1">
  <advance width="575"/>
  <unicode hex="00A9"/>
  <outline>
    <contour>
      <point x="376" y="468" type="line" smooth="yes"/>
      <point x="388" y="479"/>
      <point x="389" y="493"/>
      <point x="375" y="503" type="curve" smooth="yes"/>
      <point x="351" y="521"/>
      <point x="320" y="532"/>
      <point x="290" y="532" type="curve" smooth="yes"/>
      <point x="287" y="531" type="line" smooth="yes"/>
      <point x="247" y="531"/>
      <point x="208" y="513"/>
      <point x="181" y="484" type="curve" smooth="yes"/>
      <point x="154" y="455"/>
      <point x="138" y="415"/>
      <point x="138" y="375" type="curve" smooth="yes"/>
      <point x="138" y="335"/>
      <point x="154" y="296"/>
      <point x="181" y="267" type="curve" smooth="yes"/>
      <point x="208" y="237"/>
      <point x="247" y="220"/>
      <point x="287" y="219" type="curve" smooth="yes"/>
      <point x="290" y="219" type="line" smooth="yes"/>
      <point x="320" y="219"/>
      <point x="351" y="229"/>
      <point x="375" y="247" type="curve" smooth="yes"/>
      <point x="389" y="257"/>
      <point x="388" y="271"/>
      <point x="376" y="282" type="curve" smooth="yes"/>
      <point x="366" y="291" type="line" smooth="yes"/>
      <point x="355" y="302"/>
      <point x="345" y="301"/>
      <point x="331" y="293" type="curve" smooth="yes"/>
      <point x="319" y="286"/>
      <point x="304" y="281"/>
      <point x="289" y="281" type="curve" smooth="yes"/>
      <point x="288" y="281" type="line" smooth="yes"/>
      <point x="265" y="282"/>
      <point x="241" y="293"/>
      <point x="225" y="310" type="curve" smooth="yes"/>
      <point x="210" y="328"/>
      <point x="201" y="352"/>
      <point x="201" y="375" type="curve" smooth="yes"/>
      <point x="201" y="399"/>
      <point x="210" y="423"/>
      <point x="225" y="440" type="curve" smooth="yes"/>
      <point x="241" y="458"/>
      <point x="265" y="469"/>
      <point x="288" y="469" type="curve" smooth="yes"/>
      <point x="289" y="469" type="line" smooth="yes"/>
      <point x="304" y="469"/>
      <point x="319" y="465"/>
      <point x="331" y="458" type="curve" smooth="yes"/>
      <point x="345" y="450"/>
      <point x="355" y="448"/>
      <point x="366" y="459" type="curve" smooth="yes"/>
    </contour>
    <contour>
      <point x="26" y="307"/>
      <point x="54" y="238"/>
      <point x="102" y="190" type="curve" smooth="yes"/>
      <point x="151" y="141"/>
      <point x="219" y="113"/>
      <point x="288" y="113" type="curve" smooth="yes"/>
      <point x="356" y="113"/>
      <point x="425" y="141"/>
      <point x="473" y="190" type="curve" smooth="yes"/>
      <point x="522" y="238"/>
      <point x="550" y="307"/>
      <point x="550" y="375" type="curve" smooth="yes"/>
      <point x="550" y="444"/>
      <point x="522" y="512"/>
      <point x="473" y="561" type="curve" smooth="yes"/>
      <point x="425" y="609"/>
      <point x="356" y="637"/>
      <point x="288" y="637" type="curve" smooth="yes"/>
      <point x="219" y="637"/>
      <point x="151" y="609"/>
      <point x="102" y="561" type="curve" smooth="yes"/>
      <point x="54" y="512"/>
      <point x="26" y="444"/>
      <point x="26" y="375" type="curve" smooth="yes"/>
    </contour>
    <contour>
      <point x="487" y="323"/>
      <point x="466" y="271"/>
      <point x="429" y="234" type="curve" smooth="yes"/>
      <point x="392" y="197"/>
      <point x="340" y="176"/>
      <point x="288" y="176" type="curve" smooth="yes"/>
      <point x="236" y="176"/>
      <point x="184" y="197"/>
      <point x="147" y="234" type="curve" smooth="yes"/>
      <point x="110" y="271"/>
      <point x="88" y="323"/>
      <point x="88" y="375" type="curve" smooth="yes"/>
      <point x="88" y="427"/>
      <point x="110" y="479"/>
      <point x="147" y="516" type="curve" smooth="yes"/>
      <point x="184" y="553"/>
      <point x="236" y="575"/>
      <point x="288" y="575" type="curve" smooth="yes"/>
      <point x="340" y="575"/>
      <point x="392" y="553"/>
      <point x="429" y="516" type="curve" smooth="yes"/>
      <point x="466" y="479"/>
      <point x="487" y="427"/>
      <point x="487" y="375" type="curve" smooth="yes"/>
    </contour>
  </outline>
</glyph>
<glyph name="ordfeminine" format="1">
  <advance width="575"/>
  <unicode hex="00AA"/>
  <outline>
    <contour>
      <point x="421" y="596" type="line" smooth="yes"/>
      <point x="421" y="694"/>
      <point x="374" y="740"/>
      <point x="274" y="740" type="curve" smooth="yes"/>
      <point x="247" y="740"/>
      <point x="219" y="738"/>
      <point x="187" y="733" type="curve"/>
      <point x="169" y="729"/>
      <point x="160" y="715"/>
      <point x="161" y="695" type="curve"/>
      <point x="163" y="677" type="line"/>
      <point x="166" y="659"/>
      <point x="183" y="647"/>
      <point x="203" y="650" type="curve" smooth="yes"/>
      <point x="230" y="655"/>
      <point x="259" y="656"/>
      <point x="274" y="656" type="curve" smooth="yes"/>
      <point x="317" y="656"/>
      <point x="331" y="641"/>
      <point x="331" y="596" type="curve" smooth="yes"/>
      <point x="331" y="586" type="line"/>
      <point x="283" y="586" type="line" smooth="yes"/>
      <point x="182" y="586"/>
      <point x="126" y="546"/>
      <point x="126" y="473" type="curve" smooth="yes"/>
      <point x="127" y="400"/>
      <point x="183" y="360"/>
      <point x="281" y="360" type="curve" smooth="yes"/>
      <point x="313" y="360"/>
      <point x="350" y="363"/>
      <point x="390" y="368" type="curve" smooth="yes"/>
      <point x="409" y="371"/>
      <point x="421" y="384"/>
      <point x="421" y="403" type="curve" smooth="yes"/>
    </contour>
    <contour>
      <point x="331" y="501" type="line"/>
      <point x="331" y="446" type="line"/>
      <point x="315" y="444"/>
      <point x="300" y="443"/>
      <point x="285" y="443" type="curve" smooth="yes"/>
      <point x="239" y="443"/>
      <point x="216" y="454"/>
      <point x="217" y="473" type="curve"/>
      <point x="217" y="491"/>
      <point x="238" y="501"/>
      <point x="283" y="501" type="curve" smooth="yes"/>
    </contour>
  </outline>
</glyph>
<glyph name="guillemotleft" format="2">
	<advance width="575"/>
	<unicode hex="00AB"/>
	<outline>
		<contour>
			<point x="308" y="80" type="curve" smooth="yes"/>
			<point x="128" y="260" type="line"/>
			<point x="308" y="440" type="line"/>
			<point x="323" y="456"/>
			<point x="323" y="476"/>
			<point x="307" y="490" type="curve" smooth="yes"/>
			<point x="284" y="511" type="line" smooth="yes"/>
			<point x="268" y="525"/>
			<point x="250" y="525"/>
			<point x="234" y="509" type="curve" smooth="yes"/>
			<point x="58" y="333" type="line" smooth="yes"/>
			<point x="31" y="306"/>
			<point x="20" y="285"/>
			<point x="20" y="260" type="curve" smooth="yes"/>
			<point x="20" y="229"/>
			<point x="39" y="207"/>
			<point x="58" y="188" type="curve" smooth="yes"/>
			<point x="234" y="11" type="line"/>
			<point x="250" y="-4"/>
			<point x="267" y="-4"/>
			<point x="283" y="9" type="curve"/>
			<point x="307" y="31" type="line" smooth="yes"/>
			<point x="323" y="45"/>
			<point x="323" y="65"/>
		</contour>
		<contour>
			<point x="544" y="80" type="curve"/>
			<point x="364" y="260" type="line"/>
			<point x="544" y="440" type="line" smooth="yes"/>
			<point x="560" y="456"/>
			<point x="560" y="476"/>
			<point x="542" y="491" type="curve" smooth="yes"/>
			<point x="520" y="511" type="line" smooth="yes"/>
			<point x="504" y="525"/>
			<point x="485" y="525"/>
			<point x="471" y="509" type="curve"/>
			<point x="294" y="333" type="line" smooth="yes"/>
			<point x="267" y="306"/>
			<point x="256" y="285"/>
			<point x="256" y="260" type="curve" smooth="yes"/>
			<point x="256" y="229"/>
			<point x="275" y="207"/>
			<point x="294" y="188" type="curve" smooth="yes"/>
			<point x="471" y="11" type="line" smooth="yes"/>
			<point x="485" y="-4"/>
			<point x="503" y="-4"/>
			<point x="519" y="9" type="curve"/>
			<point x="543" y="31" type="line"/>
			<point x="560" y="45"/>
			<point x="561" y="65"/>
		</contour>
	</outline>
</glyph>
<glyph name="logicalnot" format="1">
  <advance width="575"/>
  <unicode hex="00AC"/>
  <outline>
    <contour>
      <point x="110" y="434" type="line"/>
      <point x="90" y="434"/>
      <point x="75" y="419"/>
      <point x="75" y="399" type="curve"/>
      <point x="75" y="372" type="line"/>
      <point x="75" y="352"/>
      <point x="90" y="337"/>
      <point x="110" y="337" type="curve"/>
      <point x="395" y="337" type="line"/>
      <point x="395" y="160" type="line"/>
      <point x="395" y="140"/>
      <point x="410" y="125"/>
      <point x="430" y="125" type="curve"/>
      <point x="465" y="125" type="line"/>
      <point x="486" y="125"/>
      <point x="500" y="140"/>
      <point x="500" y="160" type="curve"/>
      <point x="500" y="399" type="line"/>
      <point x="500" y="419"/>
      <point x="485" y="434"/>
      <point x="465" y="434" type="curve"/>
    </contour>
  </outline>
</glyph>
<glyph name="registered" format="2">
	<advance width="575"/>
	<unicode hex="00AE"/>
	<outline>
		<contour>
			<point x="473" y="561" type="curve" smooth="yes"/>
			<point x="425" y="609"/>
			<point x="356" y="637"/>
			<point x="288" y="637" type="curve" smooth="yes"/>
			<point x="219" y="637"/>
			<point x="151" y="609"/>
			<point x="102" y="561" type="curve" smooth="yes"/>
			<point x="54" y="512"/>
			<point x="26" y="444"/>
			<point x="26" y="375" type="curve" smooth="yes"/>
			<point x="26" y="307"/>
			<point x="54" y="238"/>
			<point x="102" y="190" type="curve" smooth="yes"/>
			<point x="151" y="141"/>
			<point x="219" y="113"/>
			<point x="288" y="113" type="curve" smooth="yes"/>
			<point x="356" y="113"/>
			<point x="425" y="141"/>
			<point x="473" y="190" type="curve" smooth="yes"/>
			<point x="522" y="238"/>
			<point x="550" y="307"/>
			<point x="550" y="375" type="curve" smooth="yes"/>
			<point x="550" y="444"/>
			<point x="522" y="512"/>
		</contour>
		<contour>
			<point x="429" y="234" type="curve" smooth="yes"/>
			<point x="392" y="197"/>
			<point x="340" y="176"/>
			<point x="288" y="176" type="curve" smooth="yes"/>
			<point x="236" y="176"/>
			<point x="184" y="197"/>
			<point x="147" y="234" type="curve" smooth="yes"/>
			<point x="110" y="271"/>
			<point x="88" y="323"/>
			<point x="88" y="375" type="curve" smooth="yes"/>
			<point x="88" y="427"/>
			<point x="110" y="479"/>
			<point x="147" y="516" type="curve" smooth="yes"/>
			<point x="184" y="553"/>
			<point x="236" y="575"/>
			<point x="288" y="575" type="curve" smooth="yes"/>
			<point x="340" y="575"/>
			<point x="392" y="553"/>
			<point x="429" y="516" type="curve" smooth="yes"/>
			<point x="466" y="479"/>
			<point x="487" y="427"/>
			<point x="487" y="375" type="curve" smooth="yes"/>
			<point x="487" y="323"/>
			<point x="466" y="271"/>
		</contour>
		<contour>
			<point x="307" y="500" type="curve"/>
			<point x="206" y="500" type="line"/>
			<point x="190" y="500"/>
			<point x="181" y="492"/>
			<point x="181" y="475" type="curve" smooth="yes"/>
			<point x="181" y="275" type="line" smooth="yes"/>
			<point x="181" y="259"/>
			<point x="190" y="250"/>
			<point x="206" y="250" type="curve" smooth="yes"/>
			<point x="218" y="250" type="line" smooth="yes"/>
			<point x="235" y="250"/>
			<point x="243" y="259"/>
			<point x="243" y="275" type="curve" smooth="yes"/>
			<point x="243" y="344" type="line"/>
			<point x="272" y="344" type="line"/>
			<point x="332" y="265" type="line" smooth="yes"/>
			<point x="340" y="255"/>
			<point x="349" y="250"/>
			<point x="362" y="250" type="curve" smooth="yes"/>
			<point x="383" y="250" type="line" smooth="yes"/>
			<point x="404" y="250"/>
			<point x="411" y="264"/>
			<point x="398" y="281" type="curve" smooth="yes"/>
			<point x="348" y="347" type="line"/>
			<point x="359" y="349"/>
			<point x="370" y="353"/>
			<point x="379" y="359" type="curve" smooth="yes"/>
			<point x="390" y="366"/>
			<point x="398" y="376"/>
			<point x="404" y="386" type="curve" smooth="yes"/>
			<point x="410" y="397"/>
			<point x="414" y="410"/>
			<point x="414" y="422" type="curve" smooth="yes"/>
			<point x="414" y="435"/>
			<point x="410" y="447"/>
			<point x="404" y="458" type="curve" smooth="yes"/>
			<point x="398" y="469"/>
			<point x="390" y="478"/>
			<point x="379" y="485" type="curve" smooth="yes"/>
			<point x="369" y="492"/>
			<point x="357" y="496"/>
			<point x="345" y="498" type="curve" smooth="yes"/>
			<point x="332" y="500"/>
			<point x="320" y="500"/>
		</contour>
		<contour>
			<point x="317" y="407" type="curve" smooth="yes"/>
			<point x="243" y="407" type="line"/>
			<point x="243" y="438" type="line"/>
			<point x="317" y="438" type="line" smooth="yes"/>
			<point x="328" y="438"/>
			<point x="351" y="435"/>
			<point x="351" y="422" type="curve" smooth="yes"/>
			<point x="352" y="407"/>
			<point x="329" y="407"/>
		</contour>
	</outline>
</glyph>
<glyph name="macron" format="2">
	<advance width="575"/>
	<unicode hex="00AF"/>
	<anchor x="288" y="500" name="_top"/>
	<outline>
		<contour>
			<point x="144" y="675" type="curve" smooth="yes"/>
			<point x="144" y="649" type="line" smooth="yes"/>
			<point x="144" y="632"/>
			<point x="153" y="624"/>
			<point x="169" y="624" type="curve" smooth="yes"/>
			<point x="407" y="624" type="line" smooth="yes"/>
			<point x="423" y="624"/>
			<point x="432" y="632"/>
			<point x="432" y="648" type="curve" smooth="yes"/>
			<point x="432" y="675" type="line" smooth="yes"/>
			<point x="432" y="691"/>
			<point x="423" y="700"/>
			<point x="407" y="700" type="curve" smooth="yes"/>
			<point x="169" y="700" type="line" smooth="yes"/>
			<point x="153" y="700"/>
			<point x="144" y="691"/>
		</contour>
	</outline>
</glyph>
<glyph name="degree" format="1">
  <advance width="575"/>
  <unicode hex="00B0"/>
  <outline>
    <contour>
      <point x="179" y="730"/>
      <point x="95" y="647"/>
      <point x="95" y="538" type="curve" smooth="yes"/>
      <point x="95" y="429"/>
      <point x="179" y="346"/>
      <point x="291" y="346" type="curve" smooth="yes"/>
      <point x="399" y="346"/>
      <point x="480" y="429"/>
      <point x="480" y="538" type="curve" smooth="yes"/>
      <point x="480" y="647"/>
      <point x="399" y="730"/>
      <point x="291" y="730" type="curve" smooth="yes"/>
    </contour>
    <contour>
      <point x="238" y="443"/>
      <point x="200" y="483"/>
      <point x="200" y="538" type="curve" smooth="yes"/>
      <point x="200" y="593"/>
      <point x="238" y="633"/>
      <point x="288" y="633" type="curve" smooth="yes"/>
      <point x="338" y="633"/>
      <point x="375" y="592"/>
      <point x="375" y="538" type="curve" smooth="yes"/>
      <point x="375" y="484"/>
      <point x="338" y="443"/>
      <point x="288" y="443" type="curve" smooth="yes"/>
    </contour>
  </outline>
</glyph>
<glyph name="plusminus" format="1">
  <advance width="575"/>
  <unicode hex="00B1"/>
  <outline>
    <contour>
      <point x="340" y="472" type="line"/>
      <point x="340" y="635" type="line"/>
      <point x="340" y="655"/>
      <point x="326" y="670"/>
      <point x="305" y="670" type="curve"/>
      <point x="270" y="670" type="line"/>
      <point x="250" y="670"/>
      <point x="235" y="655"/>
      <point x="235" y="635" type="curve"/>
      <point x="235" y="472" type="line"/>
      <point x="76" y="472" type="line"/>
      <point x="56" y="472"/>
      <point x="41" y="457"/>
      <point x="41" y="436" type="curve"/>
      <point x="41" y="410" type="line"/>
      <point x="41" y="390"/>
      <point x="56" y="375"/>
      <point x="76" y="375" type="curve"/>
      <point x="235" y="375" type="line"/>
      <point x="235" y="212" type="line"/>
      <point x="235" y="192"/>
      <point x="250" y="177"/>
      <point x="270" y="177" type="curve"/>
      <point x="305" y="177" type="line"/>
      <point x="326" y="177"/>
      <point x="340" y="191"/>
      <point x="340" y="212" type="curve"/>
      <point x="340" y="375" type="line"/>
      <point x="499" y="375" type="line"/>
      <point x="520" y="375"/>
      <point x="534" y="390"/>
      <point x="534" y="410" type="curve"/>
      <point x="534" y="437" type="line"/>
      <point x="534" y="457"/>
      <point x="520" y="472"/>
      <point x="499" y="472" type="curve"/>
    </contour>
    <contour>
      <point x="41" y="35" type="line"/>
      <point x="41" y="15"/>
      <point x="56" y="0"/>
      <point x="76" y="0" type="curve"/>
      <point x="499" y="0" type="line"/>
      <point x="520" y="0"/>
      <point x="534" y="15"/>
      <point x="534" y="35" type="curve"/>
      <point x="534" y="62" type="line"/>
      <point x="534" y="82"/>
      <point x="520" y="97"/>
      <point x="499" y="97" type="curve"/>
      <point x="76" y="97" type="line"/>
      <point x="56" y="97"/>
      <point x="41" y="82"/>
      <point x="41" y="62" type="curve"/>
    </contour>
  </outline>
</glyph>
<glyph name="acute" format="2">
	<advance width="575"/>
	<unicode hex="00B4"/>
	<anchor x="288" y="500" name="_top"/>
	<outline>
		<contour>
			<point x="177" y="592" type="curve"/>
			<point x="185" y="574" type="line"/>
			<point x="193" y="560"/>
			<point x="204" y="556"/>
			<point x="219" y="561" type="curve" smooth="yes"/>
			<point x="440" y="636" type="line" smooth="yes"/>
			<point x="456" y="641"/>
			<point x="461" y="653"/>
			<point x="454" y="668" type="curve" smooth="yes"/>
			<point x="433" y="714" type="line" smooth="yes"/>
			<point x="426" y="729"/>
			<point x="414" y="733"/>
			<point x="400" y="726" type="curve" smooth="yes"/>
			<point x="190" y="625" type="line" smooth="yes"/>
			<point x="175" y="618"/>
			<point x="171" y="607"/>
		</contour>
		<contour>
			<point x="177" y="592" type="curve"/>
			<point x="185" y="574" type="line"/>
			<point x="193" y="560"/>
			<point x="204" y="556"/>
			<point x="219" y="561" type="curve" smooth="yes"/>
			<point x="440" y="636" type="line" smooth="yes"/>
			<point x="456" y="641"/>
			<point x="461" y="653"/>
			<point x="454" y="668" type="curve" smooth="yes"/>
			<point x="433" y="714" type="line" smooth="yes"/>
			<point x="426" y="729"/>
			<point x="414" y="733"/>
			<point x="400" y="726" type="curve" smooth="yes"/>
			<point x="190" y="625" type="line" smooth="yes"/>
			<point x="175" y="618"/>
			<point x="171" y="607"/>
		</contour>
	</outline>
</glyph>
<glyph name="uni00B5" format="2">
	<advance width="575"/>
	<unicode hex="00B5"/>
	<outline>
		<contour>
			<point x="500" y="39" type="curve" smooth="yes"/>
			<point x="500" y="485" type="line" smooth="yes"/>
			<point x="500" y="506"/>
			<point x="486" y="520"/>
			<point x="465" y="520" type="curve" smooth="yes"/>
			<point x="430" y="520" type="line" smooth="yes"/>
			<point x="407" y="520"/>
			<point x="395" y="506"/>
			<point x="395" y="485" type="curve" smooth="yes"/>
			<point x="395" y="89" type="line"/>
			<point x="354" y="87"/>
			<point x="319" y="86"/>
			<point x="297" y="86" type="curve" smooth="yes"/>
			<point x="210" y="86"/>
			<point x="180" y="112"/>
			<point x="180" y="202" type="curve" smooth="yes"/>
			<point x="180" y="485" type="line" smooth="yes"/>
			<point x="180" y="506"/>
			<point x="166" y="520"/>
			<point x="145" y="520" type="curve" smooth="yes"/>
			<point x="110" y="520" type="line" smooth="yes"/>
			<point x="87" y="520"/>
			<point x="75" y="506"/>
			<point x="75" y="485" type="curve" smooth="yes"/>
			<point x="75" y="-215" type="line" smooth="yes"/>
			<point x="75" y="-236"/>
			<point x="89" y="-250"/>
			<point x="110" y="-250" type="curve" smooth="yes"/>
			<point x="145" y="-250" type="line" smooth="yes"/>
			<point x="168" y="-250"/>
			<point x="180" y="-236"/>
			<point x="180" y="-215" type="curve" smooth="yes"/>
			<point x="180" y="14" type="line"/>
			<point x="212" y="-5"/>
			<point x="251" y="-10"/>
			<point x="297" y="-10" type="curve" smooth="yes"/>
			<point x="330" y="-10"/>
			<point x="395" y="-9"/>
			<point x="469" y="2" type="curve" smooth="yes"/>
			<point x="488" y="6"/>
			<point x="500" y="19"/>
		</contour>
	</outline>
</glyph>
<glyph name="paragraph" format="2">
	<advance width="575"/>
	<unicode hex="00B6"/>
	<outline>
		<contour>
			<point x="310" y="720" type="curve" smooth="yes"/>
			<point x="250" y="720" type="line" smooth="yes"/>
			<point x="119" y="720"/>
			<point x="49" y="650"/>
			<point x="49" y="521" type="curve" smooth="yes"/>
			<point x="49" y="395"/>
			<point x="116" y="326"/>
			<point x="240" y="322" type="curve"/>
			<point x="240" y="-65" type="line" smooth="yes"/>
			<point x="240" y="-86"/>
			<point x="254" y="-100"/>
			<point x="275" y="-100" type="curve" smooth="yes"/>
			<point x="310" y="-100" type="line" smooth="yes"/>
			<point x="332" y="-100"/>
			<point x="345" y="-87"/>
			<point x="345" y="-65" type="curve" smooth="yes"/>
			<point x="345" y="685" type="line" smooth="yes"/>
			<point x="345" y="707"/>
			<point x="332" y="720"/>
		</contour>
		<contour>
			<point x="495" y="720" type="curve" smooth="yes"/>
			<point x="460" y="720" type="line" smooth="yes"/>
			<point x="439" y="720"/>
			<point x="425" y="706"/>
			<point x="425" y="685" type="curve" smooth="yes"/>
			<point x="425" y="-65" type="line" smooth="yes"/>
			<point x="425" y="-86"/>
			<point x="439" y="-100"/>
			<point x="460" y="-100" type="curve" smooth="yes"/>
			<point x="495" y="-100" type="line" smooth="yes"/>
			<point x="517" y="-100"/>
			<point x="530" y="-87"/>
			<point x="530" y="-65" type="curve" smooth="yes"/>
			<point x="530" y="685" type="line" smooth="yes"/>
			<point x="530" y="707"/>
			<point x="517" y="720"/>
		</contour>
	</outline>
</glyph>
<glyph name="periodcentered" format="1">
  <advance width="575"/>
  <unicode hex="00B7"/>
  <outline>
    <contour>
      <point x="340" y="284" type="line"/>
      <point x="340" y="304"/>
      <point x="326" y="319"/>
      <point x="305" y="319" type="curve"/>
      <point x="270" y="319" type="line"/>
      <point x="250" y="319"/>
      <point x="235" y="304"/>
      <point x="235" y="283" type="curve"/>
      <point x="235" y="237" type="line"/>
      <point x="235" y="217"/>
      <point x="250" y="202"/>
      <point x="270" y="202" type="curve"/>
      <point x="305" y="202" type="line"/>
      <point x="326" y="202"/>
      <point x="340" y="217"/>
      <point x="340" y="237" type="curve"/>
    </contour>
  </outline>
</glyph>
<glyph name="cedilla" format="1">
  <advance width="575"/>
  <unicode hex="00B8"/>
  <outline>
    <contour>
      <point x="313" y="-17" type="line" smooth="yes"/>
      <point x="321" y="1"/>
      <point x="314" y="12"/>
      <point x="295" y="13" type="curve" smooth="yes"/>
      <point x="277" y="13" type="line" smooth="yes"/>
      <point x="262" y="14"/>
      <point x="253" y="8"/>
      <point x="247" y="-5" type="curve" smooth="yes"/>
      <point x="227" y="-48" type="line" smooth="yes"/>
      <point x="221" y="-61"/>
      <point x="223" y="-72"/>
      <point x="233" y="-82" type="curve" smooth="yes"/>
      <point x="261" y="-111" type="line" smooth="yes"/>
      <point x="271" y="-121"/>
      <point x="281" y="-123"/>
      <point x="294" y="-121" type="curve" smooth="yes"/>
      <point x="304" y="-120"/>
      <point x="313" y="-119"/>
      <point x="321" y="-119" type="curve" smooth="yes"/>
      <point x="351" y="-119"/>
      <point x="366" y="-129"/>
      <point x="366" y="-142" type="curve" smooth="yes"/>
      <point x="366" y="-160"/>
      <point x="336" y="-181"/>
      <point x="275" y="-181" type="curve" smooth="yes"/>
      <point x="259" y="-181"/>
      <point x="237" y="-179"/>
      <point x="216" y="-175" type="curve" smooth="yes"/>
      <point x="201" y="-172"/>
      <point x="190" y="-177"/>
      <point x="185" y="-192" type="curve" smooth="yes"/>
      <point x="181" y="-203" type="line" smooth="yes"/>
      <point x="175" y="-218"/>
      <point x="181" y="-230"/>
      <point x="197" y="-235" type="curve" smooth="yes"/>
      <point x="225" y="-242"/>
      <point x="250" y="-246"/>
      <point x="275" y="-246" type="curve" smooth="yes"/>
      <point x="400" y="-246"/>
      <point x="463" y="-187"/>
      <point x="463" y="-135" type="curve" smooth="yes"/>
      <point x="463" y="-96"/>
      <point x="426" y="-61"/>
      <point x="351" y="-61" type="curve" smooth="yes"/>
      <point x="333" y="-61"/>
      <point x="313" y="-63"/>
      <point x="290" y="-68" type="curve"/>
    </contour>
    <contour>
      <point x="302" y="0" type="move" name="_bottom"/>
    </contour>
  </outline>
</glyph>
<glyph name="ordmasculine" format="1">
  <advance width="575"/>
  <unicode hex="00BA"/>
  <outline>
    <contour>
      <point x="196" y="731"/>
      <point x="136" y="656"/>
      <point x="136" y="540" type="curve" smooth="yes"/>
      <point x="136" y="424"/>
      <point x="196" y="349"/>
      <point x="290" y="349" type="curve" smooth="yes"/>
      <point x="382" y="349"/>
      <point x="439" y="422"/>
      <point x="439" y="540" type="curve" smooth="yes"/>
      <point x="439" y="658"/>
      <point x="382" y="731"/>
      <point x="290" y="731" type="curve" smooth="yes"/>
    </contour>
    <contour>
      <point x="250" y="433"/>
      <point x="226" y="473"/>
      <point x="226" y="540" type="curve" smooth="yes"/>
      <point x="226" y="607"/>
      <point x="250" y="647"/>
      <point x="288" y="647" type="curve" smooth="yes"/>
      <point x="326" y="647"/>
      <point x="349" y="608"/>
      <point x="349" y="540" type="curve" smooth="yes"/>
      <point x="349" y="472"/>
      <point x="326" y="433"/>
      <point x="288" y="433" type="curve" smooth="yes"/>
    </contour>
  </outline>
</glyph>
<glyph name="AE" format="1">
  <advance width="575"/>
  <unicode hex="00C6"/>
  <outline>
    <contour>
      <point x="383" y="97" type="line"/>
      <point x="383" y="326" type="line"/>
      <point x="475" y="326" type="line"/>
      <point x="496" y="326"/>
      <point x="510" y="340"/>
      <point x="510" y="361" type="curve"/>
      <point x="510" y="388" type="line"/>
      <point x="510" y="409"/>
      <point x="496" y="423"/>
      <point x="475" y="423" type="curve"/>
      <point x="383" y="423" type="line"/>
      <point x="383" y="624" type="line"/>
      <point x="482" y="624" type="line"/>
      <point x="504" y="624"/>
      <point x="517" y="637"/>
      <point x="517" y="659" type="curve"/>
      <point x="517" y="685" type="line"/>
      <point x="517" y="707"/>
      <point x="504" y="720"/>
      <point x="482" y="720" type="curve"/>
      <point x="288" y="720" type="line"/>
      <point x="214" y="720"/>
      <point x="170" y="692"/>
      <point x="155" y="634" type="curve"/>
      <point x="7" y="40" type="line"/>
      <point x="2" y="17"/>
      <point x="15" y="0"/>
      <point x="39" y="0" type="curve"/>
      <point x="74" y="0" type="line"/>
      <point x="94" y="0"/>
      <point x="108" y="11"/>
      <point x="112" y="30" type="curve"/>
      <point x="147" y="170" type="line"/>
      <point x="278" y="170" type="line"/>
      <point x="278" y="35" type="line"/>
      <point x="278" y="14"/>
      <point x="292" y="0"/>
      <point x="313" y="0" type="curve"/>
      <point x="493" y="0" type="line"/>
      <point x="515" y="0"/>
      <point x="528" y="13"/>
      <point x="528" y="35" type="curve"/>
      <point x="528" y="62" type="line"/>
      <point x="528" y="84"/>
      <point x="515" y="97"/>
      <point x="493" y="97" type="curve"/>
    </contour>
    <contour>
      <point x="278" y="266" type="line"/>
      <point x="171" y="266" type="line"/>
      <point x="259" y="615" type="line"/>
      <point x="261" y="625"/>
      <point x="268" y="631"/>
      <point x="278" y="633" type="curve"/>
    </contour>
  </outline>
</glyph>
<glyph name="Eth" format="2">
	<advance width="575"/>
	<unicode hex="00D0"/>
	<outline>
		<contour>
			<point x="42" y="363" type="curve" smooth="yes"/>
			<point x="42" y="337" type="line" smooth="yes"/>
			<point x="42" y="321"/>
			<point x="51" y="312"/>
			<point x="67" y="312" type="curve" smooth="yes"/>
			<point x="290" y="312" type="line" smooth="yes"/>
			<point x="306" y="312"/>
			<point x="315" y="321"/>
			<point x="315" y="337" type="curve" smooth="yes"/>
			<point x="315" y="364" type="line" smooth="yes"/>
			<point x="315" y="380"/>
			<point x="306" y="389"/>
			<point x="290" y="389" type="curve" smooth="yes"/>
			<point x="67" y="389" type="line" smooth="yes"/>
			<point x="51" y="389"/>
			<point x="42" y="380"/>
		</contour>
		<component base="D"/>
	</outline>
</glyph>
<glyph name="multiply" format="1">
  <advance width="575"/>
  <unicode hex="00D7"/>
  <outline>
    <contour>
      <point x="351" y="272" type="line"/>
      <point x="496" y="461" type="line" smooth="yes"/>
      <point x="509" y="477"/>
      <point x="505" y="498"/>
      <point x="489" y="510" type="curve"/>
      <point x="462" y="528" type="line" smooth="yes"/>
      <point x="445" y="540"/>
      <point x="425" y="536"/>
      <point x="413" y="520" type="curve" smooth="yes"/>
      <point x="287" y="355" type="line"/>
      <point x="162" y="520" type="line"/>
      <point x="151" y="536"/>
      <point x="130" y="539"/>
      <point x="113" y="528" type="curve" smooth="yes"/>
      <point x="87" y="510" type="line" smooth="yes"/>
      <point x="70" y="498"/>
      <point x="66" y="477"/>
      <point x="79" y="461" type="curve" smooth="yes"/>
      <point x="223" y="273" type="line"/>
      <point x="59" y="60" type="line" smooth="yes"/>
      <point x="46" y="44"/>
      <point x="50" y="22"/>
      <point x="68" y="11" type="curve"/>
      <point x="67" y="11" type="line"/>
      <point x="93" y="-8" type="line" smooth="yes"/>
      <point x="110" y="-20"/>
      <point x="130" y="-16"/>
      <point x="142" y="0" type="curve" smooth="yes"/>
      <point x="288" y="190" type="line"/>
      <point x="434" y="0" type="line"/>
      <point x="445" y="-16"/>
      <point x="465" y="-19"/>
      <point x="482" y="-8" type="curve"/>
      <point x="483" y="-8" type="line"/>
      <point x="509" y="11" type="line" smooth="yes"/>
      <point x="525" y="22"/>
      <point x="529" y="44"/>
      <point x="516" y="60" type="curve" smooth="yes"/>
    </contour>
  </outline>
</glyph>
<glyph name="Thorn" format="1">
  <advance width="575"/>
  <unicode hex="00DE"/>
  <outline>
    <contour>
      <point x="180" y="685" type="line"/>
      <point x="180" y="706"/>
      <point x="166" y="720"/>
      <point x="145" y="720" type="curve" smooth="yes"/>
      <point x="110" y="720" type="line" smooth="yes"/>
      <point x="89" y="720"/>
      <point x="75" y="706"/>
      <point x="75" y="685" type="curve" smooth="yes"/>
      <point x="75" y="35" type="line" smooth="yes"/>
      <point x="75" y="14"/>
      <point x="89" y="0"/>
      <point x="110" y="0" type="curve" smooth="yes"/>
      <point x="145" y="0" type="line" smooth="yes"/>
      <point x="166" y="0"/>
      <point x="180" y="14"/>
      <point x="180" y="35" type="curve" smooth="yes"/>
      <point x="180" y="125" type="line"/>
      <point x="213" y="122"/>
      <point x="241" y="121"/>
      <point x="259" y="121" type="curve" smooth="yes"/>
      <point x="430" y="121"/>
      <point x="500" y="200"/>
      <point x="500" y="392" type="curve" smooth="yes"/>
      <point x="500" y="583"/>
      <point x="430" y="662"/>
      <point x="259" y="662" type="curve" smooth="yes"/>
      <point x="239" y="662"/>
      <point x="212" y="661"/>
      <point x="180" y="658" type="curve"/>
    </contour>
    <contour>
      <point x="180" y="563" type="line"/>
      <point x="214" y="565"/>
      <point x="242" y="565"/>
      <point x="259" y="565" type="curve" smooth="yes"/>
      <point x="363" y="565"/>
      <point x="395" y="524"/>
      <point x="395" y="392" type="curve" smooth="yes"/>
      <point x="395" y="259"/>
      <point x="363" y="218"/>
      <point x="259" y="218" type="curve" smooth="yes"/>
      <point x="241" y="218"/>
      <point x="213" y="219"/>
      <point x="180" y="221" type="curve"/>
    </contour>
  </outline>
</glyph>
<glyph name="germandbls" format="2">
	<advance width="575"/>
	<unicode hex="00DF"/>
	<outline>
		<contour>
			<point x="294" y="682" type="curve" smooth="yes"/>
			<point x="365" y="682"/>
			<point x="383" y="659"/>
			<point x="383" y="625" type="curve" smooth="yes"/>
			<point x="383" y="597"/>
			<point x="369" y="572"/>
			<point x="345" y="543" type="curve" smooth="yes"/>
			<point x="310" y="502"/>
			<point x="293" y="465"/>
			<point x="293" y="434" type="curve" smooth="yes"/>
			<point x="293" y="395"/>
			<point x="317" y="363"/>
			<point x="356" y="335" type="curve" smooth="yes"/>
			<point x="406" y="299"/>
			<point x="423" y="266"/>
			<point x="422" y="219" type="curve" smooth="yes"/>
			<point x="421" y="147"/>
			<point x="379" y="99"/>
			<point x="290" y="99" type="curve" smooth="yes"/>
			<point x="269" y="99"/>
			<point x="255" y="85"/>
			<point x="255" y="64" type="curve" smooth="yes"/>
			<point x="255" y="36" type="line" smooth="yes"/>
			<point x="255" y="15"/>
			<point x="269" y="1"/>
			<point x="290" y="1" type="curve" smooth="yes"/>
			<point x="420" y="1"/>
			<point x="525" y="67"/>
			<point x="527" y="218" type="curve" smooth="yes"/>
			<point x="528" y="290"/>
			<point x="506" y="351"/>
			<point x="431" y="405" type="curve" smooth="yes"/>
			<point x="409" y="421"/>
			<point x="399" y="429"/>
			<point x="399" y="439" type="curve" smooth="yes"/>
			<point x="399" y="448"/>
			<point x="406" y="459"/>
			<point x="424" y="479" type="curve" smooth="yes"/>
			<point x="463" y="520"/>
			<point x="483" y="565"/>
			<point x="483" y="620" type="curve" smooth="yes"/>
			<point x="483" y="720"/>
			<point x="415" y="780"/>
			<point x="294" y="780" type="curve" smooth="yes"/>
			<point x="165" y="780"/>
			<point x="92" y="706"/>
			<point x="92" y="564" type="curve" smooth="yes"/>
			<point x="92" y="35" type="line" smooth="yes"/>
			<point x="92" y="14"/>
			<point x="106" y="0"/>
			<point x="127" y="0" type="curve" smooth="yes"/>
			<point x="162" y="0" type="line" smooth="yes"/>
			<point x="185" y="0"/>
			<point x="197" y="14"/>
			<point x="197" y="35" type="curve" smooth="yes"/>
			<point x="197" y="564" type="line" smooth="yes"/>
			<point x="197" y="647"/>
			<point x="229" y="682"/>
		</contour>
	</outline>
</glyph>
<glyph name="ae" format="1">
  <advance width="575"/>
  <unicode hex="00E6"/>
  <outline>
    <contour>
      <point x="115" y="450" type="line"/>
      <point x="120" y="432"/>
      <point x="137" y="421"/>
      <point x="157" y="425" type="curve"/>
      <point x="183" y="429"/>
      <point x="209" y="431"/>
      <point x="230" y="433" type="curve"/>
      <point x="230" y="317" type="line"/>
      <point x="120" y="307"/>
      <point x="55" y="255"/>
      <point x="55" y="159" type="curve"/>
      <point x="57" y="52"/>
      <point x="121" y="-10"/>
      <point x="290" y="-10" type="curve"/>
      <point x="362" y="-9"/>
      <point x="375" y="-9"/>
      <point x="430" y="1" type="curve"/>
      <point x="451" y="5"/>
      <point x="463" y="23"/>
      <point x="458" y="43" type="curve"/>
      <point x="452" y="69" type="line"/>
      <point x="447" y="89"/>
      <point x="430" y="100"/>
      <point x="410" y="96" type="curve"/>
      <point x="382" y="92"/>
      <point x="357" y="89"/>
      <point x="335" y="88" type="curve"/>
      <point x="335" y="222" type="line"/>
      <point x="459" y="222" type="line"/>
      <point x="479" y="222"/>
      <point x="494" y="237"/>
      <point x="494" y="257" type="curve"/>
      <point x="494" y="280" type="line"/>
      <point x="494" y="425"/>
      <point x="423" y="530"/>
      <point x="252" y="530" type="curve"/>
      <point x="216" y="530"/>
      <point x="173" y="526"/>
      <point x="135" y="519" type="curve"/>
      <point x="115" y="515"/>
      <point x="103" y="498"/>
      <point x="108" y="478" type="curve"/>
    </contour>
    <contour>
      <point x="335" y="319" type="line"/>
      <point x="335" y="411" type="line"/>
      <point x="371" y="395"/>
      <point x="384" y="358"/>
      <point x="388" y="319" type="curve"/>
    </contour>
    <contour>
      <point x="230" y="89" type="line"/>
      <point x="188" y="96"/>
      <point x="160" y="118"/>
      <point x="160" y="150" type="curve"/>
      <point x="161" y="190"/>
      <point x="185" y="211"/>
      <point x="230" y="219" type="curve"/>
    </contour>
  </outline>
</glyph>
